<?xml version="1.0" encoding="utf-8"?>
<svg xmlns="http://www.w3.org/2000/svg" xmlns:xlink="http://www.w3.org/1999/xlink" width="528" height="336" viewBox="0 0 2112 1344">
<defs>
  <clipPath id="clip760">
    <rect x="0" y="0" width="2112" height="1344"/>
  </clipPath>
</defs>
<path clip-path="url(#clip760)" d="M0 1344 L2112 1344 L2112 2.13163e-14 L0 2.13163e-14  Z" fill="#ffffff" fill-rule="evenodd" fill-opacity="1"/>
<defs>
  <clipPath id="clip761">
    <rect x="422" y="0" width="1479" height="1344"/>
  </clipPath>
</defs>
<path clip-path="url(#clip760)" d="M215.15 1173.47 L2064.76 1173.47 L2064.76 47.2441 L215.15 47.2441  Z" fill="#ffffff" fill-rule="evenodd" fill-opacity="1"/>
<defs>
  <clipPath id="clip762">
    <rect x="215" y="47" width="1851" height="1127"/>
  </clipPath>
</defs>
<polyline clip-path="url(#clip762)" style="stroke:#000000; stroke-linecap:round; stroke-linejoin:round; stroke-width:2; stroke-opacity:0.1; fill:none" points="267.498,1173.47 267.498,47.2441 "/>
<polyline clip-path="url(#clip762)" style="stroke:#000000; stroke-linecap:round; stroke-linejoin:round; stroke-width:2; stroke-opacity:0.1; fill:none" points="616.48,1173.47 616.48,47.2441 "/>
<polyline clip-path="url(#clip762)" style="stroke:#000000; stroke-linecap:round; stroke-linejoin:round; stroke-width:2; stroke-opacity:0.1; fill:none" points="965.462,1173.47 965.462,47.2441 "/>
<polyline clip-path="url(#clip762)" style="stroke:#000000; stroke-linecap:round; stroke-linejoin:round; stroke-width:2; stroke-opacity:0.1; fill:none" points="1314.44,1173.47 1314.44,47.2441 "/>
<polyline clip-path="url(#clip762)" style="stroke:#000000; stroke-linecap:round; stroke-linejoin:round; stroke-width:2; stroke-opacity:0.1; fill:none" points="1663.43,1173.47 1663.43,47.2441 "/>
<polyline clip-path="url(#clip762)" style="stroke:#000000; stroke-linecap:round; stroke-linejoin:round; stroke-width:2; stroke-opacity:0.1; fill:none" points="2012.41,1173.47 2012.41,47.2441 "/>
<polyline clip-path="url(#clip762)" style="stroke:#000000; stroke-linecap:round; stroke-linejoin:round; stroke-width:2; stroke-opacity:0.1; fill:none" points="215.15,988.433 2064.76,988.433 "/>
<polyline clip-path="url(#clip762)" style="stroke:#000000; stroke-linecap:round; stroke-linejoin:round; stroke-width:2; stroke-opacity:0.1; fill:none" points="215.15,754.658 2064.76,754.658 "/>
<polyline clip-path="url(#clip762)" style="stroke:#000000; stroke-linecap:round; stroke-linejoin:round; stroke-width:2; stroke-opacity:0.1; fill:none" points="215.15,520.883 2064.76,520.883 "/>
<polyline clip-path="url(#clip762)" style="stroke:#000000; stroke-linecap:round; stroke-linejoin:round; stroke-width:2; stroke-opacity:0.1; fill:none" points="215.15,287.108 2064.76,287.108 "/>
<polyline clip-path="url(#clip762)" style="stroke:#000000; stroke-linecap:round; stroke-linejoin:round; stroke-width:2; stroke-opacity:0.1; fill:none" points="215.15,53.3328 2064.76,53.3328 "/>
<polyline clip-path="url(#clip760)" style="stroke:#000000; stroke-linecap:round; stroke-linejoin:round; stroke-width:4; stroke-opacity:1; fill:none" points="215.15,1173.47 2064.76,1173.47 "/>
<polyline clip-path="url(#clip760)" style="stroke:#000000; stroke-linecap:round; stroke-linejoin:round; stroke-width:4; stroke-opacity:1; fill:none" points="267.498,1173.47 267.498,1154.57 "/>
<polyline clip-path="url(#clip760)" style="stroke:#000000; stroke-linecap:round; stroke-linejoin:round; stroke-width:4; stroke-opacity:1; fill:none" points="616.48,1173.47 616.48,1154.57 "/>
<polyline clip-path="url(#clip760)" style="stroke:#000000; stroke-linecap:round; stroke-linejoin:round; stroke-width:4; stroke-opacity:1; fill:none" points="965.462,1173.47 965.462,1154.57 "/>
<polyline clip-path="url(#clip760)" style="stroke:#000000; stroke-linecap:round; stroke-linejoin:round; stroke-width:4; stroke-opacity:1; fill:none" points="1314.44,1173.47 1314.44,1154.57 "/>
<polyline clip-path="url(#clip760)" style="stroke:#000000; stroke-linecap:round; stroke-linejoin:round; stroke-width:4; stroke-opacity:1; fill:none" points="1663.43,1173.47 1663.43,1154.57 "/>
<polyline clip-path="url(#clip760)" style="stroke:#000000; stroke-linecap:round; stroke-linejoin:round; stroke-width:4; stroke-opacity:1; fill:none" points="2012.41,1173.47 2012.41,1154.57 "/>
<path clip-path="url(#clip760)" d="M267.498 1202.09 Q263.887 1202.09 262.058 1205.65 Q260.252 1209.19 260.252 1216.32 Q260.252 1223.43 262.058 1226.99 Q263.887 1230.53 267.498 1230.53 Q271.132 1230.53 272.937 1226.99 Q274.766 1223.43 274.766 1216.32 Q274.766 1209.19 272.937 1205.65 Q271.132 1202.09 267.498 1202.09 M267.498 1198.38 Q273.308 1198.38 276.363 1202.99 Q279.442 1207.57 279.442 1216.32 Q279.442 1225.05 276.363 1229.65 Q273.308 1234.24 267.498 1234.24 Q261.688 1234.24 258.609 1229.65 Q255.553 1225.05 255.553 1216.32 Q255.553 1207.57 258.609 1202.99 Q261.688 1198.38 267.498 1198.38 Z" fill="#000000" fill-rule="nonzero" fill-opacity="1" /><path clip-path="url(#clip760)" d="M606.758 1199.01 L625.114 1199.01 L625.114 1202.94 L611.04 1202.94 L611.04 1211.41 Q612.059 1211.07 613.077 1210.9 Q614.096 1210.72 615.114 1210.72 Q620.901 1210.72 624.281 1213.89 Q627.66 1217.06 627.66 1222.48 Q627.66 1228.06 624.188 1231.16 Q620.716 1234.24 614.397 1234.24 Q612.221 1234.24 609.952 1233.87 Q607.707 1233.5 605.299 1232.76 L605.299 1228.06 Q607.383 1229.19 609.605 1229.75 Q611.827 1230.3 614.304 1230.3 Q618.309 1230.3 620.646 1228.2 Q622.984 1226.09 622.984 1222.48 Q622.984 1218.87 620.646 1216.76 Q618.309 1214.65 614.304 1214.65 Q612.429 1214.65 610.554 1215.07 Q608.702 1215.49 606.758 1216.37 L606.758 1199.01 Z" fill="#000000" fill-rule="nonzero" fill-opacity="1" /><path clip-path="url(#clip760)" d="M940.15 1229.63 L947.789 1229.63 L947.789 1203.27 L939.478 1204.93 L939.478 1200.67 L947.742 1199.01 L952.418 1199.01 L952.418 1229.63 L960.057 1229.63 L960.057 1233.57 L940.15 1233.57 L940.15 1229.63 Z" fill="#000000" fill-rule="nonzero" fill-opacity="1" /><path clip-path="url(#clip760)" d="M979.501 1202.09 Q975.89 1202.09 974.062 1205.65 Q972.256 1209.19 972.256 1216.32 Q972.256 1223.43 974.062 1226.99 Q975.89 1230.53 979.501 1230.53 Q983.136 1230.53 984.941 1226.99 Q986.77 1223.43 986.77 1216.32 Q986.77 1209.19 984.941 1205.65 Q983.136 1202.09 979.501 1202.09 M979.501 1198.38 Q985.311 1198.38 988.367 1202.99 Q991.446 1207.57 991.446 1216.32 Q991.446 1225.05 988.367 1229.65 Q985.311 1234.24 979.501 1234.24 Q973.691 1234.24 970.612 1229.65 Q967.557 1225.05 967.557 1216.32 Q967.557 1207.57 970.612 1202.99 Q973.691 1198.38 979.501 1198.38 Z" fill="#000000" fill-rule="nonzero" fill-opacity="1" /><path clip-path="url(#clip760)" d="M1289.63 1229.63 L1297.27 1229.63 L1297.27 1203.27 L1288.96 1204.93 L1288.96 1200.67 L1297.22 1199.01 L1301.9 1199.01 L1301.9 1229.63 L1309.54 1229.63 L1309.54 1233.57 L1289.63 1233.57 L1289.63 1229.63 Z" fill="#000000" fill-rule="nonzero" fill-opacity="1" /><path clip-path="url(#clip760)" d="M1319.03 1199.01 L1337.38 1199.01 L1337.38 1202.94 L1323.31 1202.94 L1323.31 1211.41 Q1324.33 1211.07 1325.35 1210.9 Q1326.37 1210.72 1327.38 1210.72 Q1333.17 1210.72 1336.55 1213.89 Q1339.93 1217.06 1339.93 1222.48 Q1339.93 1228.06 1336.46 1231.16 Q1332.99 1234.24 1326.67 1234.24 Q1324.49 1234.24 1322.22 1233.87 Q1319.98 1233.5 1317.57 1232.76 L1317.57 1228.06 Q1319.65 1229.19 1321.87 1229.75 Q1324.1 1230.3 1326.57 1230.3 Q1330.58 1230.3 1332.92 1228.2 Q1335.25 1226.09 1335.25 1222.48 Q1335.25 1218.87 1332.92 1216.76 Q1330.58 1214.65 1326.57 1214.65 Q1324.7 1214.65 1322.82 1215.07 Q1320.97 1215.49 1319.03 1216.37 L1319.03 1199.01 Z" fill="#000000" fill-rule="nonzero" fill-opacity="1" /><path clip-path="url(#clip760)" d="M1642.2 1229.63 L1658.52 1229.63 L1658.52 1233.57 L1636.57 1233.57 L1636.57 1229.63 Q1639.24 1226.88 1643.82 1222.25 Q1648.43 1217.59 1649.61 1216.25 Q1651.85 1213.73 1652.73 1211.99 Q1653.63 1210.23 1653.63 1208.54 Q1653.63 1205.79 1651.69 1204.05 Q1649.77 1202.32 1646.67 1202.32 Q1644.47 1202.32 1642.01 1203.08 Q1639.58 1203.84 1636.81 1205.4 L1636.81 1200.67 Q1639.63 1199.54 1642.08 1198.96 Q1644.54 1198.38 1646.57 1198.38 Q1651.94 1198.38 1655.14 1201.07 Q1658.33 1203.75 1658.33 1208.24 Q1658.33 1210.37 1657.52 1212.29 Q1656.74 1214.19 1654.63 1216.78 Q1654.05 1217.46 1650.95 1220.67 Q1647.85 1223.87 1642.2 1229.63 Z" fill="#000000" fill-rule="nonzero" fill-opacity="1" /><path clip-path="url(#clip760)" d="M1678.33 1202.09 Q1674.72 1202.09 1672.89 1205.65 Q1671.09 1209.19 1671.09 1216.32 Q1671.09 1223.43 1672.89 1226.99 Q1674.72 1230.53 1678.33 1230.53 Q1681.97 1230.53 1683.77 1226.99 Q1685.6 1223.43 1685.6 1216.32 Q1685.6 1209.19 1683.77 1205.65 Q1681.97 1202.09 1678.33 1202.09 M1678.33 1198.38 Q1684.14 1198.38 1687.2 1202.99 Q1690.28 1207.57 1690.28 1216.32 Q1690.28 1225.05 1687.2 1229.65 Q1684.14 1234.24 1678.33 1234.24 Q1672.52 1234.24 1669.44 1229.65 Q1666.39 1225.05 1666.39 1216.32 Q1666.39 1207.57 1669.44 1202.99 Q1672.52 1198.38 1678.33 1198.38 Z" fill="#000000" fill-rule="nonzero" fill-opacity="1" /><path clip-path="url(#clip760)" d="M1991.68 1229.63 L2008 1229.63 L2008 1233.57 L1986.05 1233.57 L1986.05 1229.63 Q1988.72 1226.88 1993.3 1222.25 Q1997.91 1217.59 1999.09 1216.25 Q2001.33 1213.73 2002.21 1211.99 Q2003.11 1210.23 2003.11 1208.54 Q2003.11 1205.79 2001.17 1204.05 Q1999.25 1202.32 1996.15 1202.32 Q1993.95 1202.32 1991.49 1203.08 Q1989.06 1203.84 1986.29 1205.4 L1986.29 1200.67 Q1989.11 1199.54 1991.56 1198.96 Q1994.02 1198.38 1996.05 1198.38 Q2001.42 1198.38 2004.62 1201.07 Q2007.81 1203.75 2007.81 1208.24 Q2007.81 1210.37 2007 1212.29 Q2006.22 1214.19 2004.11 1216.78 Q2003.53 1217.46 2000.43 1220.67 Q1997.33 1223.87 1991.68 1229.63 Z" fill="#000000" fill-rule="nonzero" fill-opacity="1" /><path clip-path="url(#clip760)" d="M2017.86 1199.01 L2036.22 1199.01 L2036.22 1202.94 L2022.14 1202.94 L2022.14 1211.41 Q2023.16 1211.07 2024.18 1210.9 Q2025.2 1210.72 2026.22 1210.72 Q2032 1210.72 2035.38 1213.89 Q2038.76 1217.06 2038.76 1222.48 Q2038.76 1228.06 2035.29 1231.16 Q2031.82 1234.24 2025.5 1234.24 Q2023.32 1234.24 2021.05 1233.87 Q2018.81 1233.5 2016.4 1232.76 L2016.4 1228.06 Q2018.48 1229.19 2020.71 1229.75 Q2022.93 1230.3 2025.41 1230.3 Q2029.41 1230.3 2031.75 1228.2 Q2034.09 1226.09 2034.09 1222.48 Q2034.09 1218.87 2031.75 1216.76 Q2029.41 1214.65 2025.41 1214.65 Q2023.53 1214.65 2021.66 1215.07 Q2019.8 1215.49 2017.86 1216.37 L2017.86 1199.01 Z" fill="#000000" fill-rule="nonzero" fill-opacity="1" /><path clip-path="url(#clip760)" d="M923.455 1271.78 L923.455 1308.73 L931.222 1308.73 Q941.057 1308.73 945.608 1304.28 Q950.191 1299.82 950.191 1290.21 Q950.191 1280.66 945.608 1276.23 Q941.057 1271.78 931.222 1271.78 L923.455 1271.78 M917.026 1266.49 L930.235 1266.49 Q944.049 1266.49 950.51 1272.26 Q956.971 1277.98 956.971 1290.21 Q956.971 1302.49 950.478 1308.25 Q943.985 1314.01 930.235 1314.01 L917.026 1314.01 L917.026 1266.49 Z" fill="#000000" fill-rule="nonzero" fill-opacity="1" /><path clip-path="url(#clip760)" d="M966.965 1278.37 L972.821 1278.37 L972.821 1314.01 L966.965 1314.01 L966.965 1278.37 M966.965 1264.49 L972.821 1264.49 L972.821 1271.91 L966.965 1271.91 L966.965 1264.49 Z" fill="#000000" fill-rule="nonzero" fill-opacity="1" /><path clip-path="url(#clip760)" d="M1007.8 1279.42 L1007.8 1284.96 Q1005.32 1283.68 1002.64 1283.05 Q999.971 1282.41 997.107 1282.41 Q992.746 1282.41 990.55 1283.75 Q988.386 1285.08 988.386 1287.76 Q988.386 1289.79 989.945 1290.97 Q991.505 1292.12 996.215 1293.17 L998.221 1293.61 Q1004.46 1294.95 1007.07 1297.4 Q1009.71 1299.82 1009.71 1304.18 Q1009.71 1309.14 1005.76 1312.04 Q1001.85 1314.94 994.974 1314.94 Q992.11 1314.94 988.99 1314.36 Q985.903 1313.82 982.466 1312.71 L982.466 1306.66 Q985.712 1308.35 988.863 1309.21 Q992.014 1310.04 995.101 1310.04 Q999.239 1310.04 1001.47 1308.64 Q1003.7 1307.2 1003.7 1304.63 Q1003.7 1302.24 1002.07 1300.97 Q1000.48 1299.69 995.038 1298.51 L993.001 1298.04 Q987.558 1296.89 985.139 1294.54 Q982.72 1292.15 982.72 1288.01 Q982.72 1282.98 986.285 1280.24 Q989.85 1277.51 996.406 1277.51 Q999.653 1277.51 1002.52 1277.98 Q1005.38 1278.46 1007.8 1279.42 Z" fill="#000000" fill-rule="nonzero" fill-opacity="1" /><path clip-path="url(#clip760)" d="M1024.83 1268.25 L1024.83 1278.37 L1036.89 1278.37 L1036.89 1282.92 L1024.83 1282.92 L1024.83 1302.27 Q1024.83 1306.63 1026.01 1307.87 Q1027.22 1309.11 1030.88 1309.11 L1036.89 1309.11 L1036.89 1314.01 L1030.88 1314.01 Q1024.1 1314.01 1021.52 1311.5 Q1018.94 1308.95 1018.94 1302.27 L1018.94 1282.92 L1014.64 1282.92 L1014.64 1278.37 L1018.94 1278.37 L1018.94 1268.25 L1024.83 1268.25 Z" fill="#000000" fill-rule="nonzero" fill-opacity="1" /><path clip-path="url(#clip760)" d="M1060.8 1296.1 Q1053.7 1296.1 1050.96 1297.72 Q1048.22 1299.34 1048.22 1303.26 Q1048.22 1306.38 1050.26 1308.22 Q1052.33 1310.04 1055.86 1310.04 Q1060.73 1310.04 1063.66 1306.6 Q1066.62 1303.13 1066.62 1297.4 L1066.62 1296.1 L1060.8 1296.1 M1072.48 1293.68 L1072.48 1314.01 L1066.62 1314.01 L1066.62 1308.6 Q1064.61 1311.85 1061.62 1313.41 Q1058.63 1314.94 1054.3 1314.94 Q1048.83 1314.94 1045.58 1311.88 Q1042.37 1308.79 1042.37 1303.64 Q1042.37 1297.62 1046.38 1294.57 Q1050.42 1291.51 1058.41 1291.51 L1066.62 1291.51 L1066.62 1290.94 Q1066.62 1286.9 1063.95 1284.7 Q1061.3 1282.47 1056.5 1282.47 Q1053.44 1282.47 1050.55 1283.2 Q1047.65 1283.94 1044.98 1285.4 L1044.98 1279.99 Q1048.19 1278.75 1051.22 1278.14 Q1054.24 1277.51 1057.1 1277.51 Q1064.84 1277.51 1068.66 1281.52 Q1072.48 1285.53 1072.48 1293.68 Z" fill="#000000" fill-rule="nonzero" fill-opacity="1" /><path clip-path="url(#clip760)" d="M1114.17 1292.5 L1114.17 1314.01 L1108.32 1314.01 L1108.32 1292.69 Q1108.32 1287.63 1106.34 1285.11 Q1104.37 1282.6 1100.42 1282.6 Q1095.68 1282.6 1092.94 1285.62 Q1090.21 1288.65 1090.21 1293.87 L1090.21 1314.01 L1084.32 1314.01 L1084.32 1278.37 L1090.21 1278.37 L1090.21 1283.9 Q1092.31 1280.69 1095.14 1279.1 Q1098 1277.51 1101.73 1277.51 Q1107.87 1277.51 1111.02 1281.33 Q1114.17 1285.11 1114.17 1292.5 Z" fill="#000000" fill-rule="nonzero" fill-opacity="1" /><path clip-path="url(#clip760)" d="M1151.51 1279.74 L1151.51 1285.21 Q1149.02 1283.84 1146.51 1283.17 Q1144.03 1282.47 1141.48 1282.47 Q1135.78 1282.47 1132.63 1286.1 Q1129.48 1289.7 1129.48 1296.22 Q1129.48 1302.75 1132.63 1306.38 Q1135.78 1309.97 1141.48 1309.97 Q1144.03 1309.97 1146.51 1309.3 Q1149.02 1308.6 1151.51 1307.24 L1151.51 1312.65 Q1149.06 1313.79 1146.41 1314.36 Q1143.8 1314.94 1140.84 1314.94 Q1132.79 1314.94 1128.05 1309.88 Q1123.31 1304.82 1123.31 1296.22 Q1123.31 1287.5 1128.08 1282.5 Q1132.89 1277.51 1141.23 1277.51 Q1143.93 1277.51 1146.51 1278.08 Q1149.09 1278.62 1151.51 1279.74 Z" fill="#000000" fill-rule="nonzero" fill-opacity="1" /><path clip-path="url(#clip760)" d="M1192.18 1294.73 L1192.18 1297.59 L1165.26 1297.59 Q1165.64 1303.64 1168.89 1306.82 Q1172.16 1309.97 1177.99 1309.97 Q1181.36 1309.97 1184.51 1309.14 Q1187.7 1308.32 1190.82 1306.66 L1190.82 1312.2 Q1187.66 1313.54 1184.35 1314.24 Q1181.04 1314.94 1177.64 1314.94 Q1169.11 1314.94 1164.11 1309.97 Q1159.15 1305.01 1159.15 1296.54 Q1159.15 1287.79 1163.86 1282.66 Q1168.6 1277.51 1176.62 1277.51 Q1183.81 1277.51 1187.98 1282.15 Q1192.18 1286.77 1192.18 1294.73 M1186.33 1293.01 Q1186.26 1288.2 1183.62 1285.34 Q1181.01 1282.47 1176.68 1282.47 Q1171.78 1282.47 1168.82 1285.24 Q1165.89 1288.01 1165.45 1293.04 L1186.33 1293.01 Z" fill="#000000" fill-rule="nonzero" fill-opacity="1" /><path clip-path="url(#clip760)" d="M1236.58 1264.55 Q1232.32 1271.87 1230.25 1279.04 Q1228.18 1286.2 1228.18 1293.55 Q1228.18 1300.9 1230.25 1308.13 Q1232.35 1315.32 1236.58 1322.61 L1231.49 1322.61 Q1226.72 1315.13 1224.33 1307.9 Q1221.98 1300.68 1221.98 1293.55 Q1221.98 1286.45 1224.33 1279.26 Q1226.69 1272.06 1231.49 1264.55 L1236.58 1264.55 Z" fill="#000000" fill-rule="nonzero" fill-opacity="1" /><path clip-path="url(#clip760)" d="M1247.72 1264.49 L1253.61 1264.49 L1253.61 1293.74 L1271.09 1278.37 L1278.57 1278.37 L1259.66 1295.04 L1279.36 1314.01 L1271.72 1314.01 L1253.61 1296.6 L1253.61 1314.01 L1247.72 1314.01 L1247.72 1264.49 Z" fill="#000000" fill-rule="nonzero" fill-opacity="1" /><path clip-path="url(#clip760)" d="M1313.45 1285.21 Q1315.65 1281.26 1318.7 1279.39 Q1321.76 1277.51 1325.9 1277.51 Q1331.47 1277.51 1334.49 1281.42 Q1337.51 1285.31 1337.51 1292.5 L1337.51 1314.01 L1331.62 1314.01 L1331.62 1292.69 Q1331.62 1287.57 1329.81 1285.08 Q1328 1282.6 1324.27 1282.6 Q1319.72 1282.6 1317.08 1285.62 Q1314.44 1288.65 1314.44 1293.87 L1314.44 1314.01 L1308.55 1314.01 L1308.55 1292.69 Q1308.55 1287.53 1306.73 1285.08 Q1304.92 1282.6 1301.13 1282.6 Q1296.64 1282.6 1294 1285.66 Q1291.36 1288.68 1291.36 1293.87 L1291.36 1314.01 L1285.47 1314.01 L1285.47 1278.37 L1291.36 1278.37 L1291.36 1283.9 Q1293.37 1280.63 1296.17 1279.07 Q1298.97 1277.51 1302.82 1277.51 Q1306.7 1277.51 1309.41 1279.48 Q1312.15 1281.45 1313.45 1285.21 Z" fill="#000000" fill-rule="nonzero" fill-opacity="1" /><path clip-path="url(#clip760)" d="M1348.27 1264.55 L1353.36 1264.55 Q1358.14 1272.06 1360.49 1279.26 Q1362.88 1286.45 1362.88 1293.55 Q1362.88 1300.68 1360.49 1307.9 Q1358.14 1315.13 1353.36 1322.61 L1348.27 1322.61 Q1352.5 1315.32 1354.57 1308.13 Q1356.67 1300.9 1356.67 1293.55 Q1356.67 1286.2 1354.57 1279.04 Q1352.5 1271.87 1348.27 1264.55 Z" fill="#000000" fill-rule="nonzero" fill-opacity="1" /><polyline clip-path="url(#clip760)" style="stroke:#000000; stroke-linecap:round; stroke-linejoin:round; stroke-width:4; stroke-opacity:1; fill:none" points="215.15,1173.47 215.15,47.2441 "/>
<polyline clip-path="url(#clip760)" style="stroke:#000000; stroke-linecap:round; stroke-linejoin:round; stroke-width:4; stroke-opacity:1; fill:none" points="215.15,988.433 234.048,988.433 "/>
<polyline clip-path="url(#clip760)" style="stroke:#000000; stroke-linecap:round; stroke-linejoin:round; stroke-width:4; stroke-opacity:1; fill:none" points="215.15,754.658 234.048,754.658 "/>
<polyline clip-path="url(#clip760)" style="stroke:#000000; stroke-linecap:round; stroke-linejoin:round; stroke-width:4; stroke-opacity:1; fill:none" points="215.15,520.883 234.048,520.883 "/>
<polyline clip-path="url(#clip760)" style="stroke:#000000; stroke-linecap:round; stroke-linejoin:round; stroke-width:4; stroke-opacity:1; fill:none" points="215.15,287.108 234.048,287.108 "/>
<polyline clip-path="url(#clip760)" style="stroke:#000000; stroke-linecap:round; stroke-linejoin:round; stroke-width:4; stroke-opacity:1; fill:none" points="215.15,53.3328 234.048,53.3328 "/>
<path clip-path="url(#clip760)" d="M120.323 1001.78 L136.642 1001.78 L136.642 1005.71 L114.698 1005.71 L114.698 1001.78 Q117.36 999.024 121.943 994.394 Q126.549 989.741 127.73 988.399 Q129.975 985.876 130.855 984.139 Q131.758 982.38 131.758 980.69 Q131.758 977.936 129.813 976.2 Q127.892 974.464 124.79 974.464 Q122.591 974.464 120.137 975.227 Q117.707 975.991 114.929 977.542 L114.929 972.82 Q117.753 971.686 120.207 971.107 Q122.66 970.528 124.698 970.528 Q130.068 970.528 133.262 973.214 Q136.457 975.899 136.457 980.389 Q136.457 982.519 135.647 984.44 Q134.859 986.338 132.753 988.931 Q132.174 989.602 129.072 992.82 Q125.971 996.014 120.323 1001.78 Z" fill="#000000" fill-rule="nonzero" fill-opacity="1" /><path clip-path="url(#clip760)" d="M146.457 999.834 L151.341 999.834 L151.341 1005.71 L146.457 1005.71 L146.457 999.834 Z" fill="#000000" fill-rule="nonzero" fill-opacity="1" /><path clip-path="url(#clip760)" d="M171.526 974.232 Q167.915 974.232 166.086 977.797 Q164.281 981.339 164.281 988.468 Q164.281 995.575 166.086 999.139 Q167.915 1002.68 171.526 1002.68 Q175.16 1002.68 176.966 999.139 Q178.794 995.575 178.794 988.468 Q178.794 981.339 176.966 977.797 Q175.16 974.232 171.526 974.232 M171.526 970.528 Q177.336 970.528 180.392 975.135 Q183.47 979.718 183.47 988.468 Q183.47 997.195 180.392 1001.8 Q177.336 1006.38 171.526 1006.38 Q165.716 1006.38 162.637 1001.8 Q159.582 997.195 159.582 988.468 Q159.582 979.718 162.637 975.135 Q165.716 970.528 171.526 970.528 Z" fill="#000000" fill-rule="nonzero" fill-opacity="1" /><path clip-path="url(#clip760)" d="M121.318 768.003 L137.637 768.003 L137.637 771.938 L115.693 771.938 L115.693 768.003 Q118.355 765.248 122.938 760.619 Q127.545 755.966 128.725 754.624 Q130.971 752.1 131.85 750.364 Q132.753 748.605 132.753 746.915 Q132.753 744.161 130.809 742.425 Q128.887 740.688 125.785 740.688 Q123.586 740.688 121.133 741.452 Q118.702 742.216 115.924 743.767 L115.924 739.045 Q118.748 737.911 121.202 737.332 Q123.656 736.753 125.693 736.753 Q131.063 736.753 134.258 739.438 Q137.452 742.124 137.452 746.614 Q137.452 748.744 136.642 750.665 Q135.855 752.563 133.748 755.156 Q133.17 755.827 130.068 759.045 Q126.966 762.239 121.318 768.003 Z" fill="#000000" fill-rule="nonzero" fill-opacity="1" /><path clip-path="url(#clip760)" d="M147.452 766.059 L152.336 766.059 L152.336 771.938 L147.452 771.938 L147.452 766.059 Z" fill="#000000" fill-rule="nonzero" fill-opacity="1" /><path clip-path="url(#clip760)" d="M162.568 737.378 L180.924 737.378 L180.924 741.313 L166.85 741.313 L166.85 749.786 Q167.869 749.438 168.887 749.276 Q169.906 749.091 170.924 749.091 Q176.711 749.091 180.091 752.262 Q183.47 755.434 183.47 760.85 Q183.47 766.429 179.998 769.531 Q176.526 772.61 170.207 772.61 Q168.031 772.61 165.762 772.239 Q163.517 771.869 161.109 771.128 L161.109 766.429 Q163.193 767.563 165.415 768.119 Q167.637 768.674 170.114 768.674 Q174.119 768.674 176.456 766.568 Q178.794 764.461 178.794 760.85 Q178.794 757.239 176.456 755.133 Q174.119 753.026 170.114 753.026 Q168.239 753.026 166.364 753.443 Q164.512 753.86 162.568 754.739 L162.568 737.378 Z" fill="#000000" fill-rule="nonzero" fill-opacity="1" /><path clip-path="url(#clip760)" d="M130.461 519.529 Q133.818 520.247 135.693 522.515 Q137.591 524.784 137.591 528.117 Q137.591 533.233 134.072 536.033 Q130.554 538.834 124.073 538.834 Q121.897 538.834 119.582 538.395 Q117.29 537.978 114.836 537.121 L114.836 532.608 Q116.781 533.742 119.096 534.321 Q121.41 534.899 123.934 534.899 Q128.332 534.899 130.623 533.163 Q132.938 531.427 132.938 528.117 Q132.938 525.061 130.785 523.348 Q128.656 521.612 124.836 521.612 L120.809 521.612 L120.809 517.77 L125.022 517.77 Q128.471 517.77 130.299 516.404 Q132.128 515.015 132.128 512.423 Q132.128 509.76 130.23 508.348 Q128.355 506.913 124.836 506.913 Q122.915 506.913 120.716 507.33 Q118.517 507.747 115.878 508.626 L115.878 504.46 Q118.54 503.719 120.855 503.348 Q123.193 502.978 125.253 502.978 Q130.577 502.978 133.679 505.409 Q136.781 507.816 136.781 511.936 Q136.781 514.807 135.137 516.797 Q133.494 518.765 130.461 519.529 Z" fill="#000000" fill-rule="nonzero" fill-opacity="1" /><path clip-path="url(#clip760)" d="M146.457 532.284 L151.341 532.284 L151.341 538.163 L146.457 538.163 L146.457 532.284 Z" fill="#000000" fill-rule="nonzero" fill-opacity="1" /><path clip-path="url(#clip760)" d="M171.526 506.682 Q167.915 506.682 166.086 510.247 Q164.281 513.788 164.281 520.918 Q164.281 528.024 166.086 531.589 Q167.915 535.131 171.526 535.131 Q175.16 535.131 176.966 531.589 Q178.794 528.024 178.794 520.918 Q178.794 513.788 176.966 510.247 Q175.16 506.682 171.526 506.682 M171.526 502.978 Q177.336 502.978 180.392 507.585 Q183.47 512.168 183.47 520.918 Q183.47 529.645 180.392 534.251 Q177.336 538.834 171.526 538.834 Q165.716 538.834 162.637 534.251 Q159.582 529.645 159.582 520.918 Q159.582 512.168 162.637 507.585 Q165.716 502.978 171.526 502.978 Z" fill="#000000" fill-rule="nonzero" fill-opacity="1" /><path clip-path="url(#clip760)" d="M131.457 285.754 Q134.813 286.471 136.688 288.74 Q138.586 291.008 138.586 294.342 Q138.586 299.457 135.068 302.258 Q131.549 305.059 125.068 305.059 Q122.892 305.059 120.577 304.619 Q118.286 304.203 115.832 303.346 L115.832 298.832 Q117.776 299.967 120.091 300.545 Q122.406 301.124 124.929 301.124 Q129.327 301.124 131.619 299.388 Q133.934 297.652 133.934 294.342 Q133.934 291.286 131.781 289.573 Q129.651 287.837 125.832 287.837 L121.804 287.837 L121.804 283.995 L126.017 283.995 Q129.466 283.995 131.295 282.629 Q133.123 281.24 133.123 278.647 Q133.123 275.985 131.225 274.573 Q129.35 273.138 125.832 273.138 Q123.91 273.138 121.711 273.555 Q119.512 273.971 116.873 274.851 L116.873 270.684 Q119.535 269.944 121.85 269.573 Q124.188 269.203 126.248 269.203 Q131.572 269.203 134.674 271.634 Q137.776 274.041 137.776 278.161 Q137.776 281.032 136.133 283.022 Q134.489 284.99 131.457 285.754 Z" fill="#000000" fill-rule="nonzero" fill-opacity="1" /><path clip-path="url(#clip760)" d="M147.452 298.508 L152.336 298.508 L152.336 304.388 L147.452 304.388 L147.452 298.508 Z" fill="#000000" fill-rule="nonzero" fill-opacity="1" /><path clip-path="url(#clip760)" d="M162.568 269.828 L180.924 269.828 L180.924 273.763 L166.85 273.763 L166.85 282.235 Q167.869 281.888 168.887 281.726 Q169.906 281.541 170.924 281.541 Q176.711 281.541 180.091 284.712 Q183.47 287.883 183.47 293.3 Q183.47 298.879 179.998 301.981 Q176.526 305.059 170.207 305.059 Q168.031 305.059 165.762 304.689 Q163.517 304.319 161.109 303.578 L161.109 298.879 Q163.193 300.013 165.415 300.569 Q167.637 301.124 170.114 301.124 Q174.119 301.124 176.456 299.018 Q178.794 296.911 178.794 293.3 Q178.794 289.689 176.456 287.583 Q174.119 285.476 170.114 285.476 Q168.239 285.476 166.364 285.893 Q164.512 286.309 162.568 287.189 L162.568 269.828 Z" fill="#000000" fill-rule="nonzero" fill-opacity="1" /><path clip-path="url(#clip760)" d="M129.142 40.1269 L117.336 58.5759 L129.142 58.5759 L129.142 40.1269 M127.915 36.0528 L133.795 36.0528 L133.795 58.5759 L138.725 58.5759 L138.725 62.4647 L133.795 62.4647 L133.795 70.6128 L129.142 70.6128 L129.142 62.4647 L113.54 62.4647 L113.54 57.9509 L127.915 36.0528 Z" fill="#000000" fill-rule="nonzero" fill-opacity="1" /><path clip-path="url(#clip760)" d="M146.457 64.7332 L151.341 64.7332 L151.341 70.6128 L146.457 70.6128 L146.457 64.7332 Z" fill="#000000" fill-rule="nonzero" fill-opacity="1" /><path clip-path="url(#clip760)" d="M171.526 39.1315 Q167.915 39.1315 166.086 42.6963 Q164.281 46.238 164.281 53.3676 Q164.281 60.474 166.086 64.0388 Q167.915 67.5804 171.526 67.5804 Q175.16 67.5804 176.966 64.0388 Q178.794 60.474 178.794 53.3676 Q178.794 46.238 176.966 42.6963 Q175.16 39.1315 171.526 39.1315 M171.526 35.4278 Q177.336 35.4278 180.392 40.0343 Q183.47 44.6176 183.47 53.3676 Q183.47 62.0944 180.392 66.7008 Q177.336 71.2841 171.526 71.2841 Q165.716 71.2841 162.637 66.7008 Q159.582 62.0944 159.582 53.3676 Q159.582 44.6176 162.637 40.0343 Q165.716 35.4278 171.526 35.4278 Z" fill="#000000" fill-rule="nonzero" fill-opacity="1" /><path clip-path="url(#clip760)" d="M23.7444 1022.43 L30.5239 1022.43 Q27.5002 1025.67 26.0043 1029.36 Q24.5083 1033.02 24.5083 1037.16 Q24.5083 1045.31 29.5054 1049.64 Q34.4707 1053.97 43.8919 1053.97 Q53.2813 1053.97 58.2784 1049.64 Q63.2436 1045.31 63.2436 1037.16 Q63.2436 1033.02 61.7477 1029.36 Q60.2518 1025.67 57.2281 1022.43 L63.9439 1022.43 Q66.2355 1025.8 67.3814 1029.59 Q68.5272 1033.34 68.5272 1037.54 Q68.5272 1048.33 61.9387 1054.54 Q55.3183 1060.75 43.8919 1060.75 Q32.4336 1060.75 25.8451 1054.54 Q19.2248 1048.33 19.2248 1037.54 Q19.2248 1033.28 20.3706 1029.52 Q21.4846 1025.74 23.7444 1022.43 Z" fill="#000000" fill-rule="nonzero" fill-opacity="1" /><path clip-path="url(#clip760)" d="M36.0621 998.936 Q36.0621 1003.65 39.7542 1006.38 Q43.4145 1009.12 49.812 1009.12 Q56.2095 1009.12 59.9017 1006.42 Q63.5619 1003.68 63.5619 998.936 Q63.5619 994.257 59.8698 991.52 Q56.1777 988.783 49.812 988.783 Q43.4781 988.783 39.786 991.52 Q36.0621 994.257 36.0621 998.936 M31.0968 998.936 Q31.0968 991.297 36.0621 986.937 Q41.0273 982.576 49.812 982.576 Q58.5649 982.576 63.5619 986.937 Q68.5272 991.297 68.5272 998.936 Q68.5272 1006.61 63.5619 1010.97 Q58.5649 1015.3 49.812 1015.3 Q41.0273 1015.3 36.0621 1010.97 Q31.0968 1006.61 31.0968 998.936 Z" fill="#000000" fill-rule="nonzero" fill-opacity="1" /><path clip-path="url(#clip760)" d="M46.0881 943.236 L67.6042 943.236 L67.6042 949.093 L46.279 949.093 Q41.2183 949.093 38.7038 951.066 Q36.1894 953.039 36.1894 956.986 Q36.1894 961.729 39.2131 964.466 Q42.2368 967.203 47.4567 967.203 L67.6042 967.203 L67.6042 973.091 L31.9562 973.091 L31.9562 967.203 L37.4944 967.203 Q34.2797 965.102 32.6883 962.27 Q31.0968 959.405 31.0968 955.681 Q31.0968 949.538 34.9163 946.387 Q38.7038 943.236 46.0881 943.236 Z" fill="#000000" fill-rule="nonzero" fill-opacity="1" /><path clip-path="url(#clip760)" d="M33.3248 905.901 L38.7993 905.901 Q37.4307 908.384 36.7623 910.898 Q36.0621 913.381 36.0621 915.927 Q36.0621 921.625 39.6905 924.776 Q43.2872 927.927 49.812 927.927 Q56.3369 927.927 59.9653 924.776 Q63.5619 921.625 63.5619 915.927 Q63.5619 913.381 62.8935 910.898 Q62.1933 908.384 60.8247 905.901 L66.2355 905.901 Q67.3814 908.352 67.9543 910.994 Q68.5272 913.604 68.5272 916.564 Q68.5272 924.616 63.4664 929.359 Q58.4057 934.101 49.812 934.101 Q41.091 934.101 36.0939 929.327 Q31.0968 924.521 31.0968 916.182 Q31.0968 913.476 31.6697 910.898 Q32.2108 908.32 33.3248 905.901 Z" fill="#000000" fill-rule="nonzero" fill-opacity="1" /><path clip-path="url(#clip760)" d="M48.3161 865.224 L51.1806 865.224 L51.1806 892.151 Q57.2281 891.769 60.4109 888.523 Q63.5619 885.245 63.5619 879.42 Q63.5619 876.046 62.7344 872.895 Q61.9069 869.712 60.2518 866.593 L65.7899 866.593 Q67.1267 869.744 67.827 873.054 Q68.5272 876.364 68.5272 879.77 Q68.5272 888.3 63.5619 893.297 Q58.5967 898.262 50.1303 898.262 Q41.3774 898.262 36.2531 893.552 Q31.0968 888.809 31.0968 880.789 Q31.0968 873.595 35.7438 869.426 Q40.3589 865.224 48.3161 865.224 M46.5973 871.081 Q41.7912 871.145 38.9266 873.786 Q36.0621 876.396 36.0621 880.725 Q36.0621 885.626 38.8312 888.587 Q41.6002 891.515 46.6292 891.96 L46.5973 871.081 Z" fill="#000000" fill-rule="nonzero" fill-opacity="1" /><path clip-path="url(#clip760)" d="M46.0881 825.98 L67.6042 825.98 L67.6042 831.836 L46.279 831.836 Q41.2183 831.836 38.7038 833.81 Q36.1894 835.783 36.1894 839.73 Q36.1894 844.472 39.2131 847.209 Q42.2368 849.947 47.4567 849.947 L67.6042 849.947 L67.6042 855.835 L31.9562 855.835 L31.9562 849.947 L37.4944 849.947 Q34.2797 847.846 32.6883 845.013 Q31.0968 842.149 31.0968 838.425 Q31.0968 832.282 34.9163 829.131 Q38.7038 825.98 46.0881 825.98 Z" fill="#000000" fill-rule="nonzero" fill-opacity="1" /><path clip-path="url(#clip760)" d="M21.8347 808.506 L31.9562 808.506 L31.9562 796.443 L36.5077 796.443 L36.5077 808.506 L55.8594 808.506 Q60.2199 808.506 61.4613 807.328 Q62.7026 806.119 62.7026 802.459 L62.7026 796.443 L67.6042 796.443 L67.6042 802.459 Q67.6042 809.238 65.0897 811.816 Q62.5434 814.394 55.8594 814.394 L36.5077 814.394 L36.5077 818.691 L31.9562 818.691 L31.9562 814.394 L21.8347 814.394 L21.8347 808.506 Z" fill="#000000" fill-rule="nonzero" fill-opacity="1" /><path clip-path="url(#clip760)" d="M37.4307 768.084 Q36.8578 769.07 36.6032 770.248 Q36.3167 771.394 36.3167 772.794 Q36.3167 777.76 39.5632 780.433 Q42.7779 783.075 48.8253 783.075 L67.6042 783.075 L67.6042 788.963 L31.9562 788.963 L31.9562 783.075 L37.4944 783.075 Q34.2479 781.229 32.6883 778.269 Q31.0968 775.309 31.0968 771.076 Q31.0968 770.471 31.1923 769.739 Q31.256 769.007 31.4151 768.116 L37.4307 768.084 Z" fill="#000000" fill-rule="nonzero" fill-opacity="1" /><path clip-path="url(#clip760)" d="M49.6847 745.74 Q49.6847 752.838 51.3079 755.575 Q52.9312 758.312 56.8461 758.312 Q59.9653 758.312 61.8114 756.275 Q63.6256 754.206 63.6256 750.674 Q63.6256 745.804 60.1881 742.876 Q56.7188 739.915 50.9897 739.915 L49.6847 739.915 L49.6847 745.74 M47.2657 734.059 L67.6042 734.059 L67.6042 739.915 L62.1933 739.915 Q65.4398 741.921 66.9994 744.913 Q68.5272 747.904 68.5272 752.233 Q68.5272 757.708 65.4716 760.954 Q62.3843 764.169 57.2281 764.169 Q51.2125 764.169 48.1569 760.158 Q45.1014 756.116 45.1014 748.127 L45.1014 739.915 L44.5285 739.915 Q40.4862 739.915 38.2901 742.589 Q36.0621 745.231 36.0621 750.037 Q36.0621 753.092 36.7941 755.989 Q37.5262 758.885 38.9903 761.559 L33.5795 761.559 Q32.3381 758.344 31.7334 755.32 Q31.0968 752.297 31.0968 749.432 Q31.0968 741.698 35.1072 737.878 Q39.1176 734.059 47.2657 734.059 Z" fill="#000000" fill-rule="nonzero" fill-opacity="1" /><path clip-path="url(#clip760)" d="M21.8347 716.203 L31.9562 716.203 L31.9562 704.14 L36.5077 704.14 L36.5077 716.203 L55.8594 716.203 Q60.2199 716.203 61.4613 715.026 Q62.7026 713.816 62.7026 710.156 L62.7026 704.14 L67.6042 704.14 L67.6042 710.156 Q67.6042 716.935 65.0897 719.513 Q62.5434 722.091 55.8594 722.091 L36.5077 722.091 L36.5077 726.388 L31.9562 726.388 L31.9562 722.091 L21.8347 722.091 L21.8347 716.203 Z" fill="#000000" fill-rule="nonzero" fill-opacity="1" /><path clip-path="url(#clip760)" d="M31.9562 696.438 L31.9562 690.581 L67.6042 690.581 L67.6042 696.438 L31.9562 696.438 M18.079 696.438 L18.079 690.581 L25.495 690.581 L25.495 696.438 L18.079 696.438 Z" fill="#000000" fill-rule="nonzero" fill-opacity="1" /><path clip-path="url(#clip760)" d="M36.0621 664.514 Q36.0621 669.224 39.7542 671.962 Q43.4145 674.699 49.812 674.699 Q56.2095 674.699 59.9017 671.993 Q63.5619 669.256 63.5619 664.514 Q63.5619 659.835 59.8698 657.098 Q56.1777 654.36 49.812 654.36 Q43.4781 654.36 39.786 657.098 Q36.0621 659.835 36.0621 664.514 M31.0968 664.514 Q31.0968 656.875 36.0621 652.514 Q41.0273 648.154 49.812 648.154 Q58.5649 648.154 63.5619 652.514 Q68.5272 656.875 68.5272 664.514 Q68.5272 672.184 63.5619 676.545 Q58.5649 680.874 49.812 680.874 Q41.0273 680.874 36.0621 676.545 Q31.0968 672.184 31.0968 664.514 Z" fill="#000000" fill-rule="nonzero" fill-opacity="1" /><path clip-path="url(#clip760)" d="M46.0881 608.814 L67.6042 608.814 L67.6042 614.67 L46.279 614.67 Q41.2183 614.67 38.7038 616.644 Q36.1894 618.617 36.1894 622.564 Q36.1894 627.306 39.2131 630.043 Q42.2368 632.781 47.4567 632.781 L67.6042 632.781 L67.6042 638.669 L31.9562 638.669 L31.9562 632.781 L37.4944 632.781 Q34.2797 630.68 32.6883 627.847 Q31.0968 624.983 31.0968 621.259 Q31.0968 615.116 34.9163 611.965 Q38.7038 608.814 46.0881 608.814 Z" fill="#000000" fill-rule="nonzero" fill-opacity="1" /><path clip-path="url(#clip760)" d="M18.1426 562.344 Q25.4632 566.609 32.6246 568.678 Q39.786 570.747 47.1384 570.747 Q54.4908 570.747 61.7159 568.678 Q68.9091 566.577 76.1979 562.344 L76.1979 567.437 Q68.7182 572.211 61.4931 574.598 Q54.268 576.953 47.1384 576.953 Q40.0406 576.953 32.8474 574.598 Q25.6542 572.243 18.1426 567.437 L18.1426 562.344 Z" fill="#000000" fill-rule="nonzero" fill-opacity="1" /><path clip-path="url(#clip760)" d="M18.079 551.204 L18.079 545.316 L47.3294 545.316 L31.9562 527.842 L31.9562 520.362 L48.6344 539.268 L67.6042 519.567 L67.6042 527.205 L50.1939 545.316 L67.6042 545.316 L67.6042 551.204 L18.079 551.204 Z" fill="#000000" fill-rule="nonzero" fill-opacity="1" /><path clip-path="url(#clip760)" d="M49.3664 489.775 Q43.0007 489.775 39.4996 492.417 Q35.9984 495.027 35.9984 499.769 Q35.9984 504.48 39.4996 507.122 Q43.0007 509.732 49.3664 509.732 Q55.7003 509.732 59.2014 507.122 Q62.7026 504.48 62.7026 499.769 Q62.7026 495.027 59.2014 492.417 Q55.7003 489.775 49.3664 489.775 M63.18 483.919 Q72.283 483.919 76.7071 487.961 Q81.1631 492.003 81.1631 500.342 Q81.1631 503.429 80.6857 506.167 Q80.2401 508.904 79.2852 511.482 L73.5879 511.482 Q74.9884 508.904 75.6568 506.39 Q76.3252 503.875 76.3252 501.265 Q76.3252 495.504 73.3015 492.64 Q70.3096 489.775 64.2303 489.775 L61.3339 489.775 Q64.485 491.589 66.0446 494.422 Q67.6042 497.255 67.6042 501.201 Q67.6042 507.758 62.6071 511.769 Q57.61 515.779 49.3664 515.779 Q41.091 515.779 36.0939 511.769 Q31.0968 507.758 31.0968 501.201 Q31.0968 497.255 32.6564 494.422 Q34.216 491.589 37.3671 489.775 L31.9562 489.775 L31.9562 483.919 L63.18 483.919 Z" fill="#000000" fill-rule="nonzero" fill-opacity="1" /><path clip-path="url(#clip760)" d="M20.0842 461.448 L20.0842 456.037 L73.6516 472.588 L73.6516 477.998 L20.0842 461.448 Z" fill="#000000" fill-rule="nonzero" fill-opacity="1" /><path clip-path="url(#clip760)" d="M62.1933 447.952 L62.1933 437.449 L25.9406 437.449 L28.2323 448.875 L22.3758 448.875 L20.0842 437.513 L20.0842 431.083 L62.1933 431.083 L62.1933 420.58 L67.6042 420.58 L67.6042 447.952 L62.1933 447.952 Z" fill="#000000" fill-rule="nonzero" fill-opacity="1" /><path clip-path="url(#clip760)" d="M24.3174 393.844 Q24.3174 398.809 29.2189 401.324 Q34.0887 403.806 43.8919 403.806 Q53.6633 403.806 58.5649 401.324 Q63.4346 398.809 63.4346 393.844 Q63.4346 388.847 58.5649 386.364 Q53.6633 383.85 43.8919 383.85 Q34.0887 383.85 29.2189 386.364 Q24.3174 388.847 24.3174 393.844 M19.2248 393.844 Q19.2248 385.855 25.5587 381.653 Q31.8607 377.42 43.8919 377.42 Q55.8913 377.42 62.2251 381.653 Q68.5272 385.855 68.5272 393.844 Q68.5272 401.833 62.2251 406.066 Q55.8913 410.267 43.8919 410.267 Q31.8607 410.267 25.5587 406.066 Q19.2248 401.833 19.2248 393.844 Z" fill="#000000" fill-rule="nonzero" fill-opacity="1" /><path clip-path="url(#clip760)" d="M24.3174 352.371 Q24.3174 357.336 29.2189 359.851 Q34.0887 362.334 43.8919 362.334 Q53.6633 362.334 58.5649 359.851 Q63.4346 357.336 63.4346 352.371 Q63.4346 347.374 58.5649 344.892 Q53.6633 342.377 43.8919 342.377 Q34.0887 342.377 29.2189 344.892 Q24.3174 347.374 24.3174 352.371 M19.2248 352.371 Q19.2248 344.382 25.5587 340.181 Q31.8607 335.948 43.8919 335.948 Q55.8913 335.948 62.2251 340.181 Q68.5272 344.382 68.5272 352.371 Q68.5272 360.36 62.2251 364.593 Q55.8913 368.795 43.8919 368.795 Q31.8607 368.795 25.5587 364.593 Q19.2248 360.36 19.2248 352.371 Z" fill="#000000" fill-rule="nonzero" fill-opacity="1" /><path clip-path="url(#clip760)" d="M24.3174 310.899 Q24.3174 315.864 29.2189 318.378 Q34.0887 320.861 43.8919 320.861 Q53.6633 320.861 58.5649 318.378 Q63.4346 315.864 63.4346 310.899 Q63.4346 305.902 58.5649 303.419 Q53.6633 300.905 43.8919 300.905 Q34.0887 300.905 29.2189 303.419 Q24.3174 305.902 24.3174 310.899 M19.2248 310.899 Q19.2248 302.91 25.5587 298.708 Q31.8607 294.475 43.8919 294.475 Q55.8913 294.475 62.2251 298.708 Q68.5272 302.91 68.5272 310.899 Q68.5272 318.888 62.2251 323.121 Q55.8913 327.322 43.8919 327.322 Q31.8607 327.322 25.5587 323.121 Q19.2248 318.888 19.2248 310.899 Z" fill="#000000" fill-rule="nonzero" fill-opacity="1" /><path clip-path="url(#clip760)" d="M38.7993 235.529 Q34.8526 233.333 32.9747 230.277 Q31.0968 227.221 31.0968 223.084 Q31.0968 217.514 35.0117 214.49 Q38.8948 211.466 46.0881 211.466 L67.6042 211.466 L67.6042 217.355 L46.279 217.355 Q41.1546 217.355 38.672 219.169 Q36.1894 220.983 36.1894 224.707 Q36.1894 229.258 39.2131 231.9 Q42.2368 234.542 47.4567 234.542 L67.6042 234.542 L67.6042 240.43 L46.279 240.43 Q41.1228 240.43 38.672 242.245 Q36.1894 244.059 36.1894 247.846 Q36.1894 252.334 39.2449 254.976 Q42.2686 257.618 47.4567 257.618 L67.6042 257.618 L67.6042 263.506 L31.9562 263.506 L31.9562 257.618 L37.4944 257.618 Q34.216 255.613 32.6564 252.812 Q31.0968 250.011 31.0968 246.159 Q31.0968 242.276 33.0702 239.571 Q35.0436 236.834 38.7993 235.529 Z" fill="#000000" fill-rule="nonzero" fill-opacity="1" /><path clip-path="url(#clip760)" d="M31.9562 189.25 Q32.5291 186.322 34.2797 184.73 Q35.9984 183.107 38.6084 183.107 Q42.5551 183.107 44.6876 186.131 Q46.8201 189.155 46.8201 194.788 Q46.8201 196.602 46.5018 198.608 Q46.1517 200.581 45.5152 202.809 L41.6639 202.809 Q42.5233 201.154 42.937 199.276 Q43.3508 197.366 43.3508 195.234 Q43.3508 191.764 42.1095 189.855 Q40.8364 187.945 38.6084 187.945 Q36.2531 187.945 35.0436 189.727 Q33.8341 191.478 33.8341 194.915 L33.8341 197.653 L30.3966 197.653 L30.3966 194.661 Q30.3966 191.669 29.4099 190.141 Q28.3914 188.582 26.4817 188.582 Q24.6356 188.582 23.6808 190.173 Q22.6941 191.764 22.6941 194.788 Q22.6941 196.061 22.9806 197.685 Q23.267 199.308 23.9991 201.886 L20.3388 201.886 Q19.7977 199.562 19.5112 197.525 Q19.2248 195.488 19.2248 193.738 Q19.2248 189.155 21.1027 186.481 Q22.9806 183.776 26.1316 183.776 Q28.3277 183.776 29.8555 185.208 Q31.3833 186.64 31.9562 189.25 Z" fill="#000000" fill-rule="nonzero" fill-opacity="1" /><path clip-path="url(#clip760)" d="M18.1426 174.577 L18.1426 169.484 Q25.6542 164.71 32.8474 162.355 Q40.0406 159.968 47.1384 159.968 Q54.268 159.968 61.4931 162.355 Q68.7182 164.71 76.1979 169.484 L76.1979 174.577 Q68.9091 170.344 61.7159 168.275 Q54.4908 166.174 47.1384 166.174 Q39.786 166.174 32.6246 168.275 Q25.4632 170.344 18.1426 174.577 Z" fill="#000000" fill-rule="nonzero" fill-opacity="1" /><polyline clip-path="url(#clip762)" style="stroke:#000000; stroke-linecap:round; stroke-linejoin:round; stroke-width:8; stroke-opacity:1; fill:none" points="267.498,1141.6 337.294,1083.73 407.091,1027.92 476.887,974.072 546.683,922.132 616.48,872.028 686.276,823.697 756.073,777.074 825.869,732.1 895.666,688.716 965.462,646.866 1035.26,606.496 1105.05,567.554 1174.85,529.988 1244.65,493.751 1314.44,148.179 1384.24,140.101 1454.04,132.31 1523.83,124.794 1593.63,117.543 1663.43,110.549 1733.22,103.803 1803.02,97.2944 1872.82,91.0164 1942.61,84.9603 2012.41,79.1184 "/>
<polyline clip-path="url(#clip762)" style="stroke:#ff0000; stroke-linecap:round; stroke-linejoin:round; stroke-width:4; stroke-opacity:1; fill:none" stroke-dasharray="16, 10" points="-1634.46,848.168 3914.36,848.168 "/>
<path clip-path="url(#clip760)" d="M276.804 240.305 L670.004 240.305 L670.004 84.785 L276.804 84.785  Z" fill="#ffffff" fill-rule="evenodd" fill-opacity="1"/>
<polyline clip-path="url(#clip760)" style="stroke:#000000; stroke-linecap:round; stroke-linejoin:round; stroke-width:4; stroke-opacity:1; fill:none" points="276.804,240.305 670.004,240.305 670.004,84.785 276.804,84.785 276.804,240.305 "/>
<polyline clip-path="url(#clip760)" style="stroke:#000000; stroke-linecap:round; stroke-linejoin:round; stroke-width:8; stroke-opacity:1; fill:none" points="297.355,136.625 420.662,136.625 "/>
<path clip-path="url(#clip760)" d="M441.213 119.345 L446.236 119.345 L455.82 133.558 L465.333 119.345 L470.357 119.345 L458.134 137.447 L458.134 153.905 L453.435 153.905 L453.435 137.447 L441.213 119.345 Z" fill="#000000" fill-rule="nonzero" fill-opacity="1" /><path clip-path="url(#clip760)" d="M474.384 119.345 L479.083 119.345 L479.083 140.34 Q479.083 145.896 481.097 148.349 Q483.111 150.78 487.625 150.78 Q492.116 150.78 494.13 148.349 Q496.144 145.896 496.144 140.34 L496.144 119.345 L500.843 119.345 L500.843 140.919 Q500.843 147.678 497.486 151.127 Q494.153 154.576 487.625 154.576 Q481.074 154.576 477.718 151.127 Q474.384 147.678 474.384 140.919 L474.384 119.345 Z" fill="#000000" fill-rule="nonzero" fill-opacity="1" /><path clip-path="url(#clip760)" d="M509.616 119.345 L514.292 119.345 L514.292 133.951 L529.801 119.345 L535.819 119.345 L518.667 135.456 L537.046 153.905 L530.889 153.905 L514.292 137.262 L514.292 153.905 L509.616 153.905 L509.616 119.345 Z" fill="#000000" fill-rule="nonzero" fill-opacity="1" /><polyline clip-path="url(#clip760)" style="stroke:#ff0000; stroke-linecap:round; stroke-linejoin:round; stroke-width:4; stroke-opacity:1; fill:none" stroke-dasharray="16, 10" points="297.355,188.465 420.662,188.465 "/>
<path clip-path="url(#clip760)" d="M463.458 172.319 L463.458 176.879 Q460.796 175.606 458.435 174.981 Q456.074 174.356 453.875 174.356 Q450.056 174.356 447.972 175.838 Q445.912 177.319 445.912 180.051 Q445.912 182.342 447.278 183.523 Q448.667 184.68 452.509 185.398 L455.334 185.977 Q460.565 186.972 463.042 189.495 Q465.542 191.995 465.542 196.208 Q465.542 201.231 462.162 203.824 Q458.806 206.416 452.301 206.416 Q449.847 206.416 447.07 205.861 Q444.315 205.305 441.352 204.217 L441.352 199.402 Q444.199 201 446.931 201.81 Q449.662 202.62 452.301 202.62 Q456.306 202.62 458.482 201.046 Q460.658 199.472 460.658 196.555 Q460.658 194.009 459.084 192.574 Q457.533 191.139 453.968 190.421 L451.121 189.865 Q445.889 188.824 443.551 186.602 Q441.213 184.379 441.213 180.421 Q441.213 175.838 444.431 173.199 Q447.672 170.56 453.343 170.56 Q455.773 170.56 458.296 171 Q460.82 171.44 463.458 172.319 Z" fill="#000000" fill-rule="nonzero" fill-opacity="1" /><path clip-path="url(#clip760)" d="M476.861 172.458 L476.861 179.819 L485.634 179.819 L485.634 183.129 L476.861 183.129 L476.861 197.203 Q476.861 200.375 477.718 201.277 Q478.597 202.18 481.259 202.18 L485.634 202.18 L485.634 205.745 L481.259 205.745 Q476.329 205.745 474.454 203.916 Q472.579 202.064 472.579 197.203 L472.579 183.129 L469.454 183.129 L469.454 179.819 L472.579 179.819 L472.579 172.458 L476.861 172.458 Z" fill="#000000" fill-rule="nonzero" fill-opacity="1" /><path clip-path="url(#clip760)" d="M503.018 192.713 Q497.856 192.713 495.866 193.893 Q493.875 195.074 493.875 197.921 Q493.875 200.189 495.356 201.532 Q496.861 202.851 499.431 202.851 Q502.972 202.851 505.102 200.351 Q507.255 197.828 507.255 193.662 L507.255 192.713 L503.018 192.713 M511.514 190.953 L511.514 205.745 L507.255 205.745 L507.255 201.81 Q505.796 204.171 503.62 205.305 Q501.444 206.416 498.296 206.416 Q494.315 206.416 491.954 204.194 Q489.616 201.949 489.616 198.199 Q489.616 193.824 492.532 191.602 Q495.472 189.379 501.282 189.379 L507.255 189.379 L507.255 188.963 Q507.255 186.023 505.31 184.426 Q503.389 182.805 499.893 182.805 Q497.671 182.805 495.565 183.338 Q493.458 183.87 491.514 184.935 L491.514 181 Q493.852 180.097 496.051 179.657 Q498.25 179.194 500.333 179.194 Q505.958 179.194 508.736 182.111 Q511.514 185.028 511.514 190.953 Z" fill="#000000" fill-rule="nonzero" fill-opacity="1" /><path clip-path="url(#clip760)" d="M541.838 190.097 L541.838 205.745 L537.578 205.745 L537.578 190.236 Q537.578 186.555 536.143 184.727 Q534.708 182.898 531.838 182.898 Q528.389 182.898 526.398 185.097 Q524.407 187.296 524.407 191.092 L524.407 205.745 L520.125 205.745 L520.125 179.819 L524.407 179.819 L524.407 183.847 Q525.935 181.509 527.995 180.352 Q530.079 179.194 532.787 179.194 Q537.254 179.194 539.546 181.972 Q541.838 184.727 541.838 190.097 Z" fill="#000000" fill-rule="nonzero" fill-opacity="1" /><path clip-path="url(#clip760)" d="M567.393 183.754 L567.393 169.727 L571.652 169.727 L571.652 205.745 L567.393 205.745 L567.393 201.856 Q566.051 204.171 563.99 205.305 Q561.953 206.416 559.083 206.416 Q554.384 206.416 551.421 202.666 Q548.481 198.916 548.481 192.805 Q548.481 186.694 551.421 182.944 Q554.384 179.194 559.083 179.194 Q561.953 179.194 563.99 180.328 Q566.051 181.44 567.393 183.754 M552.879 192.805 Q552.879 197.504 554.801 200.189 Q556.745 202.851 560.125 202.851 Q563.504 202.851 565.449 200.189 Q567.393 197.504 567.393 192.805 Q567.393 188.106 565.449 185.444 Q563.504 182.759 560.125 182.759 Q556.745 182.759 554.801 185.444 Q552.879 188.106 552.879 192.805 Z" fill="#000000" fill-rule="nonzero" fill-opacity="1" /><path clip-path="url(#clip760)" d="M592.208 192.713 Q587.046 192.713 585.055 193.893 Q583.064 195.074 583.064 197.921 Q583.064 200.189 584.546 201.532 Q586.05 202.851 588.62 202.851 Q592.162 202.851 594.291 200.351 Q596.444 197.828 596.444 193.662 L596.444 192.713 L592.208 192.713 M600.703 190.953 L600.703 205.745 L596.444 205.745 L596.444 201.81 Q594.986 204.171 592.81 205.305 Q590.634 206.416 587.486 206.416 Q583.504 206.416 581.143 204.194 Q578.805 201.949 578.805 198.199 Q578.805 193.824 581.722 191.602 Q584.662 189.379 590.472 189.379 L596.444 189.379 L596.444 188.963 Q596.444 186.023 594.499 184.426 Q592.578 182.805 589.083 182.805 Q586.861 182.805 584.754 183.338 Q582.648 183.87 580.703 184.935 L580.703 181 Q583.041 180.097 585.24 179.657 Q587.439 179.194 589.523 179.194 Q595.148 179.194 597.925 182.111 Q600.703 185.028 600.703 190.953 Z" fill="#000000" fill-rule="nonzero" fill-opacity="1" /><path clip-path="url(#clip760)" d="M624.499 183.801 Q623.782 183.384 622.925 183.199 Q622.092 182.99 621.073 182.99 Q617.462 182.99 615.518 185.352 Q613.597 187.69 613.597 192.088 L613.597 205.745 L609.314 205.745 L609.314 179.819 L613.597 179.819 L613.597 183.847 Q614.939 181.486 617.092 180.352 Q619.245 179.194 622.323 179.194 Q622.763 179.194 623.296 179.264 Q623.828 179.31 624.476 179.426 L624.499 183.801 Z" fill="#000000" fill-rule="nonzero" fill-opacity="1" /><path clip-path="url(#clip760)" d="M645.194 183.754 L645.194 169.727 L649.453 169.727 L649.453 205.745 L645.194 205.745 L645.194 201.856 Q643.851 204.171 641.791 205.305 Q639.754 206.416 636.883 206.416 Q632.184 206.416 629.221 202.666 Q626.282 198.916 626.282 192.805 Q626.282 186.694 629.221 182.944 Q632.184 179.194 636.883 179.194 Q639.754 179.194 641.791 180.328 Q643.851 181.44 645.194 183.754 M630.68 192.805 Q630.68 197.504 632.601 200.189 Q634.546 202.851 637.925 202.851 Q641.305 202.851 643.249 200.189 Q645.194 197.504 645.194 192.805 Q645.194 188.106 643.249 185.444 Q641.305 182.759 637.925 182.759 Q634.546 182.759 632.601 185.444 Q630.68 188.106 630.68 192.805 Z" fill="#000000" fill-rule="nonzero" fill-opacity="1" /></svg>
