<?xml version="1.0" encoding="utf-8"?>
<svg xmlns="http://www.w3.org/2000/svg" xmlns:xlink="http://www.w3.org/1999/xlink" width="528" height="336" viewBox="0 0 2112 1344">
<defs>
  <clipPath id="clip850">
    <rect x="0" y="0" width="2112" height="1344"/>
  </clipPath>
</defs>
<path clip-path="url(#clip850)" d="M0 1344 L2112 1344 L2112 2.13163e-14 L0 2.13163e-14  Z" fill="#ffffff" fill-rule="evenodd" fill-opacity="1"/>
<defs>
  <clipPath id="clip851">
    <rect x="422" y="0" width="1479" height="1344"/>
  </clipPath>
</defs>
<path clip-path="url(#clip850)" d="M244.155 1173.47 L2064.76 1173.47 L2064.76 47.2441 L244.155 47.2441  Z" fill="#ffffff" fill-rule="evenodd" fill-opacity="1"/>
<defs>
  <clipPath id="clip852">
    <rect x="244" y="47" width="1822" height="1127"/>
  </clipPath>
</defs>
<polyline clip-path="url(#clip852)" style="stroke:#000000; stroke-linecap:round; stroke-linejoin:round; stroke-width:2; stroke-opacity:0.1; fill:none" points="295.681,1173.47 295.681,47.2441 "/>
<polyline clip-path="url(#clip852)" style="stroke:#000000; stroke-linecap:round; stroke-linejoin:round; stroke-width:2; stroke-opacity:0.1; fill:none" points="639.191,1173.47 639.191,47.2441 "/>
<polyline clip-path="url(#clip852)" style="stroke:#000000; stroke-linecap:round; stroke-linejoin:round; stroke-width:2; stroke-opacity:0.1; fill:none" points="982.701,1173.47 982.701,47.2441 "/>
<polyline clip-path="url(#clip852)" style="stroke:#000000; stroke-linecap:round; stroke-linejoin:round; stroke-width:2; stroke-opacity:0.1; fill:none" points="1326.21,1173.47 1326.21,47.2441 "/>
<polyline clip-path="url(#clip852)" style="stroke:#000000; stroke-linecap:round; stroke-linejoin:round; stroke-width:2; stroke-opacity:0.1; fill:none" points="1669.72,1173.47 1669.72,47.2441 "/>
<polyline clip-path="url(#clip852)" style="stroke:#000000; stroke-linecap:round; stroke-linejoin:round; stroke-width:2; stroke-opacity:0.1; fill:none" points="2013.23,1173.47 2013.23,47.2441 "/>
<polyline clip-path="url(#clip852)" style="stroke:#000000; stroke-linecap:round; stroke-linejoin:round; stroke-width:2; stroke-opacity:0.1; fill:none" points="244.155,1107.41 2064.76,1107.41 "/>
<polyline clip-path="url(#clip852)" style="stroke:#000000; stroke-linecap:round; stroke-linejoin:round; stroke-width:2; stroke-opacity:0.1; fill:none" points="244.155,862.579 2064.76,862.579 "/>
<polyline clip-path="url(#clip852)" style="stroke:#000000; stroke-linecap:round; stroke-linejoin:round; stroke-width:2; stroke-opacity:0.1; fill:none" points="244.155,617.747 2064.76,617.747 "/>
<polyline clip-path="url(#clip852)" style="stroke:#000000; stroke-linecap:round; stroke-linejoin:round; stroke-width:2; stroke-opacity:0.1; fill:none" points="244.155,372.916 2064.76,372.916 "/>
<polyline clip-path="url(#clip852)" style="stroke:#000000; stroke-linecap:round; stroke-linejoin:round; stroke-width:2; stroke-opacity:0.1; fill:none" points="244.155,128.085 2064.76,128.085 "/>
<polyline clip-path="url(#clip850)" style="stroke:#000000; stroke-linecap:round; stroke-linejoin:round; stroke-width:4; stroke-opacity:1; fill:none" points="244.155,1173.47 2064.76,1173.47 "/>
<polyline clip-path="url(#clip850)" style="stroke:#000000; stroke-linecap:round; stroke-linejoin:round; stroke-width:4; stroke-opacity:1; fill:none" points="295.681,1173.47 295.681,1154.57 "/>
<polyline clip-path="url(#clip850)" style="stroke:#000000; stroke-linecap:round; stroke-linejoin:round; stroke-width:4; stroke-opacity:1; fill:none" points="639.191,1173.47 639.191,1154.57 "/>
<polyline clip-path="url(#clip850)" style="stroke:#000000; stroke-linecap:round; stroke-linejoin:round; stroke-width:4; stroke-opacity:1; fill:none" points="982.701,1173.47 982.701,1154.57 "/>
<polyline clip-path="url(#clip850)" style="stroke:#000000; stroke-linecap:round; stroke-linejoin:round; stroke-width:4; stroke-opacity:1; fill:none" points="1326.21,1173.47 1326.21,1154.57 "/>
<polyline clip-path="url(#clip850)" style="stroke:#000000; stroke-linecap:round; stroke-linejoin:round; stroke-width:4; stroke-opacity:1; fill:none" points="1669.72,1173.47 1669.72,1154.57 "/>
<polyline clip-path="url(#clip850)" style="stroke:#000000; stroke-linecap:round; stroke-linejoin:round; stroke-width:4; stroke-opacity:1; fill:none" points="2013.23,1173.47 2013.23,1154.57 "/>
<path clip-path="url(#clip850)" d="M295.681 1202.09 Q292.07 1202.09 290.241 1205.65 Q288.436 1209.19 288.436 1216.32 Q288.436 1223.43 290.241 1226.99 Q292.07 1230.53 295.681 1230.53 Q299.315 1230.53 301.121 1226.99 Q302.95 1223.43 302.95 1216.32 Q302.95 1209.19 301.121 1205.65 Q299.315 1202.09 295.681 1202.09 M295.681 1198.38 Q301.491 1198.38 304.547 1202.99 Q307.626 1207.57 307.626 1216.32 Q307.626 1225.05 304.547 1229.65 Q301.491 1234.24 295.681 1234.24 Q289.871 1234.24 286.792 1229.65 Q283.737 1225.05 283.737 1216.32 Q283.737 1207.57 286.792 1202.99 Q289.871 1198.38 295.681 1198.38 Z" fill="#000000" fill-rule="nonzero" fill-opacity="1" /><path clip-path="url(#clip850)" d="M629.469 1199.01 L647.825 1199.01 L647.825 1202.94 L633.751 1202.94 L633.751 1211.41 Q634.77 1211.07 635.788 1210.9 Q636.807 1210.72 637.825 1210.72 Q643.612 1210.72 646.992 1213.89 Q650.371 1217.06 650.371 1222.48 Q650.371 1228.06 646.899 1231.16 Q643.427 1234.24 637.108 1234.24 Q634.932 1234.24 632.663 1233.87 Q630.418 1233.5 628.01 1232.76 L628.01 1228.06 Q630.094 1229.19 632.316 1229.75 Q634.538 1230.3 637.015 1230.3 Q641.02 1230.3 643.358 1228.2 Q645.695 1226.09 645.695 1222.48 Q645.695 1218.87 643.358 1216.76 Q641.02 1214.65 637.015 1214.65 Q635.14 1214.65 633.265 1215.07 Q631.413 1215.49 629.469 1216.37 L629.469 1199.01 Z" fill="#000000" fill-rule="nonzero" fill-opacity="1" /><path clip-path="url(#clip850)" d="M957.388 1229.63 L965.027 1229.63 L965.027 1203.27 L956.717 1204.93 L956.717 1200.67 L964.981 1199.01 L969.657 1199.01 L969.657 1229.63 L977.295 1229.63 L977.295 1233.57 L957.388 1233.57 L957.388 1229.63 Z" fill="#000000" fill-rule="nonzero" fill-opacity="1" /><path clip-path="url(#clip850)" d="M996.74 1202.09 Q993.129 1202.09 991.3 1205.65 Q989.494 1209.19 989.494 1216.32 Q989.494 1223.43 991.3 1226.99 Q993.129 1230.53 996.74 1230.53 Q1000.37 1230.53 1002.18 1226.99 Q1004.01 1223.43 1004.01 1216.32 Q1004.01 1209.19 1002.18 1205.65 Q1000.37 1202.09 996.74 1202.09 M996.74 1198.38 Q1002.55 1198.38 1005.61 1202.99 Q1008.68 1207.57 1008.68 1216.32 Q1008.68 1225.05 1005.61 1229.65 Q1002.55 1234.24 996.74 1234.24 Q990.93 1234.24 987.851 1229.65 Q984.795 1225.05 984.795 1216.32 Q984.795 1207.57 987.851 1202.99 Q990.93 1198.38 996.74 1198.38 Z" fill="#000000" fill-rule="nonzero" fill-opacity="1" /><path clip-path="url(#clip850)" d="M1301.4 1229.63 L1309.03 1229.63 L1309.03 1203.27 L1300.72 1204.93 L1300.72 1200.67 L1308.99 1199.01 L1313.66 1199.01 L1313.66 1229.63 L1321.3 1229.63 L1321.3 1233.57 L1301.4 1233.57 L1301.4 1229.63 Z" fill="#000000" fill-rule="nonzero" fill-opacity="1" /><path clip-path="url(#clip850)" d="M1330.79 1199.01 L1349.15 1199.01 L1349.15 1202.94 L1335.08 1202.94 L1335.08 1211.41 Q1336.09 1211.07 1337.11 1210.9 Q1338.13 1210.72 1339.15 1210.72 Q1344.94 1210.72 1348.32 1213.89 Q1351.7 1217.06 1351.7 1222.48 Q1351.7 1228.06 1348.22 1231.16 Q1344.75 1234.24 1338.43 1234.24 Q1336.26 1234.24 1333.99 1233.87 Q1331.74 1233.5 1329.34 1232.76 L1329.34 1228.06 Q1331.42 1229.19 1333.64 1229.75 Q1335.86 1230.3 1338.34 1230.3 Q1342.34 1230.3 1344.68 1228.2 Q1347.02 1226.09 1347.02 1222.48 Q1347.02 1218.87 1344.68 1216.76 Q1342.34 1214.65 1338.34 1214.65 Q1336.46 1214.65 1334.59 1215.07 Q1332.74 1215.49 1330.79 1216.37 L1330.79 1199.01 Z" fill="#000000" fill-rule="nonzero" fill-opacity="1" /><path clip-path="url(#clip850)" d="M1648.49 1229.63 L1664.81 1229.63 L1664.81 1233.57 L1642.87 1233.57 L1642.87 1229.63 Q1645.53 1226.88 1650.11 1222.25 Q1654.72 1217.59 1655.9 1216.25 Q1658.15 1213.73 1659.03 1211.99 Q1659.93 1210.23 1659.93 1208.54 Q1659.93 1205.79 1657.98 1204.05 Q1656.06 1202.32 1652.96 1202.32 Q1650.76 1202.32 1648.31 1203.08 Q1645.88 1203.84 1643.1 1205.4 L1643.1 1200.67 Q1645.92 1199.54 1648.38 1198.96 Q1650.83 1198.38 1652.87 1198.38 Q1658.24 1198.38 1661.43 1201.07 Q1664.63 1203.75 1664.63 1208.24 Q1664.63 1210.37 1663.82 1212.29 Q1663.03 1214.19 1660.92 1216.78 Q1660.34 1217.46 1657.24 1220.67 Q1654.14 1223.87 1648.49 1229.63 Z" fill="#000000" fill-rule="nonzero" fill-opacity="1" /><path clip-path="url(#clip850)" d="M1684.63 1202.09 Q1681.02 1202.09 1679.19 1205.65 Q1677.38 1209.19 1677.38 1216.32 Q1677.38 1223.43 1679.19 1226.99 Q1681.02 1230.53 1684.63 1230.53 Q1688.26 1230.53 1690.07 1226.99 Q1691.9 1223.43 1691.9 1216.32 Q1691.9 1209.19 1690.07 1205.65 Q1688.26 1202.09 1684.63 1202.09 M1684.63 1198.38 Q1690.44 1198.38 1693.49 1202.99 Q1696.57 1207.57 1696.57 1216.32 Q1696.57 1225.05 1693.49 1229.65 Q1690.44 1234.24 1684.63 1234.24 Q1678.82 1234.24 1675.74 1229.65 Q1672.68 1225.05 1672.68 1216.32 Q1672.68 1207.57 1675.74 1202.99 Q1678.82 1198.38 1684.63 1198.38 Z" fill="#000000" fill-rule="nonzero" fill-opacity="1" /><path clip-path="url(#clip850)" d="M1992.5 1229.63 L2008.82 1229.63 L2008.82 1233.57 L1986.88 1233.57 L1986.88 1229.63 Q1989.54 1226.88 1994.12 1222.25 Q1998.73 1217.59 1999.91 1216.25 Q2002.15 1213.73 2003.03 1211.99 Q2003.94 1210.23 2003.94 1208.54 Q2003.94 1205.79 2001.99 1204.05 Q2000.07 1202.32 1996.97 1202.32 Q1994.77 1202.32 1992.32 1203.08 Q1989.88 1203.84 1987.11 1205.4 L1987.11 1200.67 Q1989.93 1199.54 1992.38 1198.96 Q1994.84 1198.38 1996.88 1198.38 Q2002.25 1198.38 2005.44 1201.07 Q2008.63 1203.75 2008.63 1208.24 Q2008.63 1210.37 2007.82 1212.29 Q2007.04 1214.19 2004.93 1216.78 Q2004.35 1217.46 2001.25 1220.67 Q1998.15 1223.87 1992.5 1229.63 Z" fill="#000000" fill-rule="nonzero" fill-opacity="1" /><path clip-path="url(#clip850)" d="M2018.68 1199.01 L2037.04 1199.01 L2037.04 1202.94 L2022.96 1202.94 L2022.96 1211.41 Q2023.98 1211.07 2025 1210.9 Q2026.02 1210.72 2027.04 1210.72 Q2032.82 1210.72 2036.2 1213.89 Q2039.58 1217.06 2039.58 1222.48 Q2039.58 1228.06 2036.11 1231.16 Q2032.64 1234.24 2026.32 1234.24 Q2024.14 1234.24 2021.88 1233.87 Q2019.63 1233.5 2017.22 1232.76 L2017.22 1228.06 Q2019.31 1229.19 2021.53 1229.75 Q2023.75 1230.3 2026.23 1230.3 Q2030.23 1230.3 2032.57 1228.2 Q2034.91 1226.09 2034.91 1222.48 Q2034.91 1218.87 2032.57 1216.76 Q2030.23 1214.65 2026.23 1214.65 Q2024.35 1214.65 2022.48 1215.07 Q2020.63 1215.49 2018.68 1216.37 L2018.68 1199.01 Z" fill="#000000" fill-rule="nonzero" fill-opacity="1" /><path clip-path="url(#clip850)" d="M937.958 1271.78 L937.958 1308.73 L945.724 1308.73 Q955.559 1308.73 960.11 1304.28 Q964.694 1299.82 964.694 1290.21 Q964.694 1280.66 960.11 1276.23 Q955.559 1271.78 945.724 1271.78 L937.958 1271.78 M931.528 1266.49 L944.737 1266.49 Q958.551 1266.49 965.012 1272.26 Q971.473 1277.98 971.473 1290.21 Q971.473 1302.49 964.98 1308.25 Q958.487 1314.01 944.737 1314.01 L931.528 1314.01 L931.528 1266.49 Z" fill="#000000" fill-rule="nonzero" fill-opacity="1" /><path clip-path="url(#clip850)" d="M981.467 1278.37 L987.324 1278.37 L987.324 1314.01 L981.467 1314.01 L981.467 1278.37 M981.467 1264.49 L987.324 1264.49 L987.324 1271.91 L981.467 1271.91 L981.467 1264.49 Z" fill="#000000" fill-rule="nonzero" fill-opacity="1" /><path clip-path="url(#clip850)" d="M1022.3 1279.42 L1022.3 1284.96 Q1019.82 1283.68 1017.15 1283.05 Q1014.47 1282.41 1011.61 1282.41 Q1007.25 1282.41 1005.05 1283.75 Q1002.89 1285.08 1002.89 1287.76 Q1002.89 1289.79 1004.45 1290.97 Q1006.01 1292.12 1010.72 1293.17 L1012.72 1293.61 Q1018.96 1294.95 1021.57 1297.4 Q1024.21 1299.82 1024.21 1304.18 Q1024.21 1309.14 1020.27 1312.04 Q1016.35 1314.94 1009.48 1314.94 Q1006.61 1314.94 1003.49 1314.36 Q1000.41 1313.82 996.968 1312.71 L996.968 1306.66 Q1000.21 1308.35 1003.37 1309.21 Q1006.52 1310.04 1009.6 1310.04 Q1013.74 1310.04 1015.97 1308.64 Q1018.2 1307.2 1018.2 1304.63 Q1018.2 1302.24 1016.57 1300.97 Q1014.98 1299.69 1009.54 1298.51 L1007.5 1298.04 Q1002.06 1296.89 999.641 1294.54 Q997.222 1292.15 997.222 1288.01 Q997.222 1282.98 1000.79 1280.24 Q1004.35 1277.51 1010.91 1277.51 Q1014.16 1277.51 1017.02 1277.98 Q1019.88 1278.46 1022.3 1279.42 Z" fill="#000000" fill-rule="nonzero" fill-opacity="1" /><path clip-path="url(#clip850)" d="M1039.33 1268.25 L1039.33 1278.37 L1051.39 1278.37 L1051.39 1282.92 L1039.33 1282.92 L1039.33 1302.27 Q1039.33 1306.63 1040.51 1307.87 Q1041.72 1309.11 1045.38 1309.11 L1051.39 1309.11 L1051.39 1314.01 L1045.38 1314.01 Q1038.6 1314.01 1036.02 1311.5 Q1033.44 1308.95 1033.44 1302.27 L1033.44 1282.92 L1029.15 1282.92 L1029.15 1278.37 L1033.44 1278.37 L1033.44 1268.25 L1039.33 1268.25 Z" fill="#000000" fill-rule="nonzero" fill-opacity="1" /><path clip-path="url(#clip850)" d="M1075.3 1296.1 Q1068.2 1296.1 1065.46 1297.72 Q1062.73 1299.34 1062.73 1303.26 Q1062.73 1306.38 1064.76 1308.22 Q1066.83 1310.04 1070.36 1310.04 Q1075.23 1310.04 1078.16 1306.6 Q1081.12 1303.13 1081.12 1297.4 L1081.12 1296.1 L1075.3 1296.1 M1086.98 1293.68 L1086.98 1314.01 L1081.12 1314.01 L1081.12 1308.6 Q1079.12 1311.85 1076.13 1313.41 Q1073.13 1314.94 1068.8 1314.94 Q1063.33 1314.94 1060.08 1311.88 Q1056.87 1308.79 1056.87 1303.64 Q1056.87 1297.62 1060.88 1294.57 Q1064.92 1291.51 1072.91 1291.51 L1081.12 1291.51 L1081.12 1290.94 Q1081.12 1286.9 1078.45 1284.7 Q1075.81 1282.47 1071 1282.47 Q1067.95 1282.47 1065.05 1283.2 Q1062.15 1283.94 1059.48 1285.4 L1059.48 1279.99 Q1062.69 1278.75 1065.72 1278.14 Q1068.74 1277.51 1071.61 1277.51 Q1079.34 1277.51 1083.16 1281.52 Q1086.98 1285.53 1086.98 1293.68 Z" fill="#000000" fill-rule="nonzero" fill-opacity="1" /><path clip-path="url(#clip850)" d="M1128.67 1292.5 L1128.67 1314.01 L1122.82 1314.01 L1122.82 1292.69 Q1122.82 1287.63 1120.84 1285.11 Q1118.87 1282.6 1114.92 1282.6 Q1110.18 1282.6 1107.44 1285.62 Q1104.71 1288.65 1104.71 1293.87 L1104.71 1314.01 L1098.82 1314.01 L1098.82 1278.37 L1104.71 1278.37 L1104.71 1283.9 Q1106.81 1280.69 1109.64 1279.1 Q1112.51 1277.51 1116.23 1277.51 Q1122.37 1277.51 1125.52 1281.33 Q1128.67 1285.11 1128.67 1292.5 Z" fill="#000000" fill-rule="nonzero" fill-opacity="1" /><path clip-path="url(#clip850)" d="M1166.01 1279.74 L1166.01 1285.21 Q1163.53 1283.84 1161.01 1283.17 Q1158.53 1282.47 1155.98 1282.47 Q1150.29 1282.47 1147.13 1286.1 Q1143.98 1289.7 1143.98 1296.22 Q1143.98 1302.75 1147.13 1306.38 Q1150.29 1309.97 1155.98 1309.97 Q1158.53 1309.97 1161.01 1309.3 Q1163.53 1308.6 1166.01 1307.24 L1166.01 1312.65 Q1163.56 1313.79 1160.92 1314.36 Q1158.31 1314.94 1155.35 1314.94 Q1147.29 1314.94 1142.55 1309.88 Q1137.81 1304.82 1137.81 1296.22 Q1137.81 1287.5 1142.58 1282.5 Q1147.39 1277.51 1155.73 1277.51 Q1158.43 1277.51 1161.01 1278.08 Q1163.59 1278.62 1166.01 1279.74 Z" fill="#000000" fill-rule="nonzero" fill-opacity="1" /><path clip-path="url(#clip850)" d="M1206.69 1294.73 L1206.69 1297.59 L1179.76 1297.59 Q1180.14 1303.64 1183.39 1306.82 Q1186.67 1309.97 1192.49 1309.97 Q1195.86 1309.97 1199.02 1309.14 Q1202.2 1308.32 1205.32 1306.66 L1205.32 1312.2 Q1202.17 1313.54 1198.86 1314.24 Q1195.55 1314.94 1192.14 1314.94 Q1183.61 1314.94 1178.61 1309.97 Q1173.65 1305.01 1173.65 1296.54 Q1173.65 1287.79 1178.36 1282.66 Q1183.1 1277.51 1191.12 1277.51 Q1198.32 1277.51 1202.48 1282.15 Q1206.69 1286.77 1206.69 1294.73 M1200.83 1293.01 Q1200.77 1288.2 1198.12 1285.34 Q1195.51 1282.47 1191.19 1282.47 Q1186.28 1282.47 1183.32 1285.24 Q1180.4 1288.01 1179.95 1293.04 L1200.83 1293.01 Z" fill="#000000" fill-rule="nonzero" fill-opacity="1" /><path clip-path="url(#clip850)" d="M1251.09 1264.55 Q1246.82 1271.87 1244.75 1279.04 Q1242.68 1286.2 1242.68 1293.55 Q1242.68 1300.9 1244.75 1308.13 Q1246.85 1315.32 1251.09 1322.61 L1245.99 1322.61 Q1241.22 1315.13 1238.83 1307.9 Q1236.48 1300.68 1236.48 1293.55 Q1236.48 1286.45 1238.83 1279.26 Q1241.19 1272.06 1245.99 1264.55 L1251.09 1264.55 Z" fill="#000000" fill-rule="nonzero" fill-opacity="1" /><path clip-path="url(#clip850)" d="M1262.23 1264.49 L1268.12 1264.49 L1268.12 1293.74 L1285.59 1278.37 L1293.07 1278.37 L1274.16 1295.04 L1293.86 1314.01 L1286.23 1314.01 L1268.12 1296.6 L1268.12 1314.01 L1262.23 1314.01 L1262.23 1264.49 Z" fill="#000000" fill-rule="nonzero" fill-opacity="1" /><path clip-path="url(#clip850)" d="M1327.95 1285.21 Q1330.15 1281.26 1333.2 1279.39 Q1336.26 1277.51 1340.4 1277.51 Q1345.97 1277.51 1348.99 1281.42 Q1352.02 1285.31 1352.02 1292.5 L1352.02 1314.01 L1346.13 1314.01 L1346.13 1292.69 Q1346.13 1287.57 1344.31 1285.08 Q1342.5 1282.6 1338.77 1282.6 Q1334.22 1282.6 1331.58 1285.62 Q1328.94 1288.65 1328.94 1293.87 L1328.94 1314.01 L1323.05 1314.01 L1323.05 1292.69 Q1323.05 1287.53 1321.24 1285.08 Q1319.42 1282.6 1315.64 1282.6 Q1311.15 1282.6 1308.51 1285.66 Q1305.86 1288.68 1305.86 1293.87 L1305.86 1314.01 L1299.98 1314.01 L1299.98 1278.37 L1305.86 1278.37 L1305.86 1283.9 Q1307.87 1280.63 1310.67 1279.07 Q1313.47 1277.51 1317.32 1277.51 Q1321.21 1277.51 1323.91 1279.48 Q1326.65 1281.45 1327.95 1285.21 Z" fill="#000000" fill-rule="nonzero" fill-opacity="1" /><path clip-path="url(#clip850)" d="M1362.77 1264.55 L1367.87 1264.55 Q1372.64 1272.06 1375 1279.26 Q1377.38 1286.45 1377.38 1293.55 Q1377.38 1300.68 1375 1307.9 Q1372.64 1315.13 1367.87 1322.61 L1362.77 1322.61 Q1367.01 1315.32 1369.08 1308.13 Q1371.18 1300.9 1371.18 1293.55 Q1371.18 1286.2 1369.08 1279.04 Q1367.01 1271.87 1362.77 1264.55 Z" fill="#000000" fill-rule="nonzero" fill-opacity="1" /><polyline clip-path="url(#clip850)" style="stroke:#000000; stroke-linecap:round; stroke-linejoin:round; stroke-width:4; stroke-opacity:1; fill:none" points="244.155,1173.47 244.155,47.2441 "/>
<polyline clip-path="url(#clip850)" style="stroke:#000000; stroke-linecap:round; stroke-linejoin:round; stroke-width:4; stroke-opacity:1; fill:none" points="244.155,1107.41 263.052,1107.41 "/>
<polyline clip-path="url(#clip850)" style="stroke:#000000; stroke-linecap:round; stroke-linejoin:round; stroke-width:4; stroke-opacity:1; fill:none" points="244.155,862.579 263.052,862.579 "/>
<polyline clip-path="url(#clip850)" style="stroke:#000000; stroke-linecap:round; stroke-linejoin:round; stroke-width:4; stroke-opacity:1; fill:none" points="244.155,617.747 263.052,617.747 "/>
<polyline clip-path="url(#clip850)" style="stroke:#000000; stroke-linecap:round; stroke-linejoin:round; stroke-width:4; stroke-opacity:1; fill:none" points="244.155,372.916 263.052,372.916 "/>
<polyline clip-path="url(#clip850)" style="stroke:#000000; stroke-linecap:round; stroke-linejoin:round; stroke-width:4; stroke-opacity:1; fill:none" points="244.155,128.085 263.052,128.085 "/>
<path clip-path="url(#clip850)" d="M116.943 1120.75 L124.582 1120.75 L124.582 1094.39 L116.272 1096.06 L116.272 1091.8 L124.535 1090.13 L129.211 1090.13 L129.211 1120.75 L136.85 1120.75 L136.85 1124.69 L116.943 1124.69 L116.943 1120.75 Z" fill="#000000" fill-rule="nonzero" fill-opacity="1" /><path clip-path="url(#clip850)" d="M146.295 1118.81 L151.179 1118.81 L151.179 1124.69 L146.295 1124.69 L146.295 1118.81 Z" fill="#000000" fill-rule="nonzero" fill-opacity="1" /><path clip-path="url(#clip850)" d="M165.392 1120.75 L181.711 1120.75 L181.711 1124.69 L159.767 1124.69 L159.767 1120.75 Q162.429 1118 167.012 1113.37 Q171.619 1108.72 172.799 1107.38 Q175.044 1104.85 175.924 1103.12 Q176.827 1101.36 176.827 1099.67 Q176.827 1096.91 174.882 1095.18 Q172.961 1093.44 169.859 1093.44 Q167.66 1093.44 165.207 1094.2 Q162.776 1094.97 159.998 1096.52 L159.998 1091.8 Q162.822 1090.66 165.276 1090.08 Q167.73 1089.51 169.767 1089.51 Q175.137 1089.51 178.331 1092.19 Q181.526 1094.88 181.526 1099.37 Q181.526 1101.5 180.716 1103.42 Q179.929 1105.32 177.822 1107.91 Q177.244 1108.58 174.142 1111.8 Q171.04 1114.99 165.392 1120.75 Z" fill="#000000" fill-rule="nonzero" fill-opacity="1" /><path clip-path="url(#clip850)" d="M191.572 1090.13 L209.929 1090.13 L209.929 1094.07 L195.855 1094.07 L195.855 1102.54 Q196.873 1102.19 197.892 1102.03 Q198.91 1101.84 199.929 1101.84 Q205.716 1101.84 209.095 1105.01 Q212.475 1108.19 212.475 1113.6 Q212.475 1119.18 209.003 1122.28 Q205.53 1125.36 199.211 1125.36 Q197.035 1125.36 194.767 1124.99 Q192.521 1124.62 190.114 1123.88 L190.114 1119.18 Q192.197 1120.32 194.419 1120.87 Q196.642 1121.43 199.118 1121.43 Q203.123 1121.43 205.461 1119.32 Q207.799 1117.21 207.799 1113.6 Q207.799 1109.99 205.461 1107.88 Q203.123 1105.78 199.118 1105.78 Q197.243 1105.78 195.368 1106.19 Q193.517 1106.61 191.572 1107.49 L191.572 1090.13 Z" fill="#000000" fill-rule="nonzero" fill-opacity="1" /><path clip-path="url(#clip850)" d="M115.948 875.924 L123.586 875.924 L123.586 849.558 L115.276 851.225 L115.276 846.965 L123.54 845.299 L128.216 845.299 L128.216 875.924 L135.855 875.924 L135.855 879.859 L115.948 879.859 L115.948 875.924 Z" fill="#000000" fill-rule="nonzero" fill-opacity="1" /><path clip-path="url(#clip850)" d="M145.299 873.979 L150.183 873.979 L150.183 879.859 L145.299 879.859 L145.299 873.979 Z" fill="#000000" fill-rule="nonzero" fill-opacity="1" /><path clip-path="url(#clip850)" d="M160.415 845.299 L178.771 845.299 L178.771 849.234 L164.697 849.234 L164.697 857.706 Q165.716 857.359 166.734 857.197 Q167.753 857.012 168.771 857.012 Q174.558 857.012 177.938 860.183 Q181.318 863.354 181.318 868.771 Q181.318 874.349 177.845 877.451 Q174.373 880.53 168.054 880.53 Q165.878 880.53 163.609 880.16 Q161.364 879.789 158.957 879.048 L158.957 874.349 Q161.04 875.484 163.262 876.039 Q165.484 876.595 167.961 876.595 Q171.966 876.595 174.304 874.488 Q176.642 872.382 176.642 868.771 Q176.642 865.16 174.304 863.053 Q171.966 860.947 167.961 860.947 Q166.086 860.947 164.211 861.363 Q162.359 861.78 160.415 862.66 L160.415 845.299 Z" fill="#000000" fill-rule="nonzero" fill-opacity="1" /><path clip-path="url(#clip850)" d="M200.53 848.377 Q196.919 848.377 195.091 851.942 Q193.285 855.484 193.285 862.613 Q193.285 869.72 195.091 873.285 Q196.919 876.826 200.53 876.826 Q204.165 876.826 205.97 873.285 Q207.799 869.72 207.799 862.613 Q207.799 855.484 205.97 851.942 Q204.165 848.377 200.53 848.377 M200.53 844.674 Q206.341 844.674 209.396 849.28 Q212.475 853.863 212.475 862.613 Q212.475 871.34 209.396 875.947 Q206.341 880.53 200.53 880.53 Q194.72 880.53 191.642 875.947 Q188.586 871.34 188.586 862.613 Q188.586 853.863 191.642 849.28 Q194.72 844.674 200.53 844.674 Z" fill="#000000" fill-rule="nonzero" fill-opacity="1" /><path clip-path="url(#clip850)" d="M116.943 631.092 L124.582 631.092 L124.582 604.727 L116.272 606.393 L116.272 602.134 L124.535 600.467 L129.211 600.467 L129.211 631.092 L136.85 631.092 L136.85 635.027 L116.943 635.027 L116.943 631.092 Z" fill="#000000" fill-rule="nonzero" fill-opacity="1" /><path clip-path="url(#clip850)" d="M146.295 629.148 L151.179 629.148 L151.179 635.027 L146.295 635.027 L146.295 629.148 Z" fill="#000000" fill-rule="nonzero" fill-opacity="1" /><path clip-path="url(#clip850)" d="M160.183 600.467 L182.406 600.467 L182.406 602.458 L169.859 635.027 L164.975 635.027 L176.781 604.403 L160.183 604.403 L160.183 600.467 Z" fill="#000000" fill-rule="nonzero" fill-opacity="1" /><path clip-path="url(#clip850)" d="M191.572 600.467 L209.929 600.467 L209.929 604.403 L195.855 604.403 L195.855 612.875 Q196.873 612.527 197.892 612.365 Q198.91 612.18 199.929 612.18 Q205.716 612.18 209.095 615.352 Q212.475 618.523 212.475 623.939 Q212.475 629.518 209.003 632.62 Q205.53 635.699 199.211 635.699 Q197.035 635.699 194.767 635.328 Q192.521 634.958 190.114 634.217 L190.114 629.518 Q192.197 630.652 194.419 631.208 Q196.642 631.763 199.118 631.763 Q203.123 631.763 205.461 629.657 Q207.799 627.551 207.799 623.939 Q207.799 620.328 205.461 618.222 Q203.123 616.115 199.118 616.115 Q197.243 616.115 195.368 616.532 Q193.517 616.949 191.572 617.828 L191.572 600.467 Z" fill="#000000" fill-rule="nonzero" fill-opacity="1" /><path clip-path="url(#clip850)" d="M119.165 386.261 L135.484 386.261 L135.484 390.196 L113.54 390.196 L113.54 386.261 Q116.202 383.506 120.785 378.877 Q125.392 374.224 126.572 372.881 Q128.818 370.358 129.697 368.622 Q130.6 366.863 130.6 365.173 Q130.6 362.418 128.656 360.682 Q126.735 358.946 123.633 358.946 Q121.434 358.946 118.98 359.71 Q116.549 360.474 113.772 362.025 L113.772 357.303 Q116.596 356.168 119.049 355.59 Q121.503 355.011 123.54 355.011 Q128.91 355.011 132.105 357.696 Q135.299 360.381 135.299 364.872 Q135.299 367.002 134.489 368.923 Q133.702 370.821 131.596 373.414 Q131.017 374.085 127.915 377.303 Q124.813 380.497 119.165 386.261 Z" fill="#000000" fill-rule="nonzero" fill-opacity="1" /><path clip-path="url(#clip850)" d="M145.299 384.316 L150.183 384.316 L150.183 390.196 L145.299 390.196 L145.299 384.316 Z" fill="#000000" fill-rule="nonzero" fill-opacity="1" /><path clip-path="url(#clip850)" d="M170.369 358.715 Q166.757 358.715 164.929 362.28 Q163.123 365.821 163.123 372.951 Q163.123 380.057 164.929 383.622 Q166.757 387.164 170.369 387.164 Q174.003 387.164 175.808 383.622 Q177.637 380.057 177.637 372.951 Q177.637 365.821 175.808 362.28 Q174.003 358.715 170.369 358.715 M170.369 355.011 Q176.179 355.011 179.234 359.617 Q182.313 364.201 182.313 372.951 Q182.313 381.678 179.234 386.284 Q176.179 390.867 170.369 390.867 Q164.558 390.867 161.48 386.284 Q158.424 381.678 158.424 372.951 Q158.424 364.201 161.48 359.617 Q164.558 355.011 170.369 355.011 Z" fill="#000000" fill-rule="nonzero" fill-opacity="1" /><path clip-path="url(#clip850)" d="M200.53 358.715 Q196.919 358.715 195.091 362.28 Q193.285 365.821 193.285 372.951 Q193.285 380.057 195.091 383.622 Q196.919 387.164 200.53 387.164 Q204.165 387.164 205.97 383.622 Q207.799 380.057 207.799 372.951 Q207.799 365.821 205.97 362.28 Q204.165 358.715 200.53 358.715 M200.53 355.011 Q206.341 355.011 209.396 359.617 Q212.475 364.201 212.475 372.951 Q212.475 381.678 209.396 386.284 Q206.341 390.867 200.53 390.867 Q194.72 390.867 191.642 386.284 Q188.586 381.678 188.586 372.951 Q188.586 364.201 191.642 359.617 Q194.72 355.011 200.53 355.011 Z" fill="#000000" fill-rule="nonzero" fill-opacity="1" /><path clip-path="url(#clip850)" d="M120.16 141.43 L136.48 141.43 L136.48 145.365 L114.536 145.365 L114.536 141.43 Q117.198 138.675 121.781 134.045 Q126.387 129.393 127.568 128.05 Q129.813 125.527 130.693 123.791 Q131.596 122.031 131.596 120.342 Q131.596 117.587 129.651 115.851 Q127.73 114.115 124.628 114.115 Q122.429 114.115 119.975 114.879 Q117.545 115.643 114.767 117.194 L114.767 112.471 Q117.591 111.337 120.045 110.758 Q122.498 110.18 124.535 110.18 Q129.906 110.18 133.1 112.865 Q136.295 115.55 136.295 120.041 Q136.295 122.17 135.484 124.092 Q134.697 125.99 132.591 128.582 Q132.012 129.254 128.91 132.471 Q125.809 135.666 120.16 141.43 Z" fill="#000000" fill-rule="nonzero" fill-opacity="1" /><path clip-path="url(#clip850)" d="M146.295 139.485 L151.179 139.485 L151.179 145.365 L146.295 145.365 L146.295 139.485 Z" fill="#000000" fill-rule="nonzero" fill-opacity="1" /><path clip-path="url(#clip850)" d="M165.392 141.43 L181.711 141.43 L181.711 145.365 L159.767 145.365 L159.767 141.43 Q162.429 138.675 167.012 134.045 Q171.619 129.393 172.799 128.05 Q175.044 125.527 175.924 123.791 Q176.827 122.031 176.827 120.342 Q176.827 117.587 174.882 115.851 Q172.961 114.115 169.859 114.115 Q167.66 114.115 165.207 114.879 Q162.776 115.643 159.998 117.194 L159.998 112.471 Q162.822 111.337 165.276 110.758 Q167.73 110.18 169.767 110.18 Q175.137 110.18 178.331 112.865 Q181.526 115.55 181.526 120.041 Q181.526 122.17 180.716 124.092 Q179.929 125.99 177.822 128.582 Q177.244 129.254 174.142 132.471 Q171.04 135.666 165.392 141.43 Z" fill="#000000" fill-rule="nonzero" fill-opacity="1" /><path clip-path="url(#clip850)" d="M191.572 110.805 L209.929 110.805 L209.929 114.74 L195.855 114.74 L195.855 123.212 Q196.873 122.865 197.892 122.703 Q198.91 122.518 199.929 122.518 Q205.716 122.518 209.095 125.689 Q212.475 128.86 212.475 134.277 Q212.475 139.855 209.003 142.957 Q205.53 146.036 199.211 146.036 Q197.035 146.036 194.767 145.666 Q192.521 145.295 190.114 144.555 L190.114 139.855 Q192.197 140.99 194.419 141.545 Q196.642 142.101 199.118 142.101 Q203.123 142.101 205.461 139.994 Q207.799 137.888 207.799 134.277 Q207.799 130.666 205.461 128.559 Q203.123 126.453 199.118 126.453 Q197.243 126.453 195.368 126.869 Q193.517 127.286 191.572 128.166 L191.572 110.805 Z" fill="#000000" fill-rule="nonzero" fill-opacity="1" /><path clip-path="url(#clip850)" d="M23.7444 1022.43 L30.5239 1022.43 Q27.5002 1025.67 26.0043 1029.36 Q24.5083 1033.02 24.5083 1037.16 Q24.5083 1045.31 29.5054 1049.64 Q34.4707 1053.97 43.8919 1053.97 Q53.2813 1053.97 58.2784 1049.64 Q63.2436 1045.31 63.2436 1037.16 Q63.2436 1033.02 61.7477 1029.36 Q60.2518 1025.67 57.2281 1022.43 L63.9439 1022.43 Q66.2355 1025.8 67.3814 1029.59 Q68.5272 1033.34 68.5272 1037.54 Q68.5272 1048.33 61.9387 1054.54 Q55.3183 1060.75 43.8919 1060.75 Q32.4336 1060.75 25.8451 1054.54 Q19.2248 1048.33 19.2248 1037.54 Q19.2248 1033.28 20.3706 1029.52 Q21.4846 1025.74 23.7444 1022.43 Z" fill="#000000" fill-rule="nonzero" fill-opacity="1" /><path clip-path="url(#clip850)" d="M36.0621 998.936 Q36.0621 1003.65 39.7542 1006.38 Q43.4145 1009.12 49.812 1009.12 Q56.2095 1009.12 59.9017 1006.42 Q63.5619 1003.68 63.5619 998.936 Q63.5619 994.257 59.8698 991.52 Q56.1777 988.783 49.812 988.783 Q43.4781 988.783 39.786 991.52 Q36.0621 994.257 36.0621 998.936 M31.0968 998.936 Q31.0968 991.297 36.0621 986.937 Q41.0273 982.576 49.812 982.576 Q58.5649 982.576 63.5619 986.937 Q68.5272 991.297 68.5272 998.936 Q68.5272 1006.61 63.5619 1010.97 Q58.5649 1015.3 49.812 1015.3 Q41.0273 1015.3 36.0621 1010.97 Q31.0968 1006.61 31.0968 998.936 Z" fill="#000000" fill-rule="nonzero" fill-opacity="1" /><path clip-path="url(#clip850)" d="M46.0881 943.236 L67.6042 943.236 L67.6042 949.093 L46.279 949.093 Q41.2183 949.093 38.7038 951.066 Q36.1894 953.039 36.1894 956.986 Q36.1894 961.729 39.2131 964.466 Q42.2368 967.203 47.4567 967.203 L67.6042 967.203 L67.6042 973.091 L31.9562 973.091 L31.9562 967.203 L37.4944 967.203 Q34.2797 965.102 32.6883 962.27 Q31.0968 959.405 31.0968 955.681 Q31.0968 949.538 34.9163 946.387 Q38.7038 943.236 46.0881 943.236 Z" fill="#000000" fill-rule="nonzero" fill-opacity="1" /><path clip-path="url(#clip850)" d="M33.3248 905.901 L38.7993 905.901 Q37.4307 908.384 36.7623 910.898 Q36.0621 913.381 36.0621 915.927 Q36.0621 921.625 39.6905 924.776 Q43.2872 927.927 49.812 927.927 Q56.3369 927.927 59.9653 924.776 Q63.5619 921.625 63.5619 915.927 Q63.5619 913.381 62.8935 910.898 Q62.1933 908.384 60.8247 905.901 L66.2355 905.901 Q67.3814 908.352 67.9543 910.994 Q68.5272 913.604 68.5272 916.564 Q68.5272 924.616 63.4664 929.359 Q58.4057 934.101 49.812 934.101 Q41.091 934.101 36.0939 929.327 Q31.0968 924.521 31.0968 916.182 Q31.0968 913.476 31.6697 910.898 Q32.2108 908.32 33.3248 905.901 Z" fill="#000000" fill-rule="nonzero" fill-opacity="1" /><path clip-path="url(#clip850)" d="M48.3161 865.224 L51.1806 865.224 L51.1806 892.151 Q57.2281 891.769 60.4109 888.523 Q63.5619 885.245 63.5619 879.42 Q63.5619 876.046 62.7344 872.895 Q61.9069 869.712 60.2518 866.593 L65.7899 866.593 Q67.1267 869.744 67.827 873.054 Q68.5272 876.364 68.5272 879.77 Q68.5272 888.3 63.5619 893.297 Q58.5967 898.262 50.1303 898.262 Q41.3774 898.262 36.2531 893.552 Q31.0968 888.809 31.0968 880.789 Q31.0968 873.595 35.7438 869.426 Q40.3589 865.224 48.3161 865.224 M46.5973 871.081 Q41.7912 871.145 38.9266 873.786 Q36.0621 876.396 36.0621 880.725 Q36.0621 885.626 38.8312 888.587 Q41.6002 891.515 46.6292 891.96 L46.5973 871.081 Z" fill="#000000" fill-rule="nonzero" fill-opacity="1" /><path clip-path="url(#clip850)" d="M46.0881 825.98 L67.6042 825.98 L67.6042 831.836 L46.279 831.836 Q41.2183 831.836 38.7038 833.81 Q36.1894 835.783 36.1894 839.73 Q36.1894 844.472 39.2131 847.209 Q42.2368 849.947 47.4567 849.947 L67.6042 849.947 L67.6042 855.835 L31.9562 855.835 L31.9562 849.947 L37.4944 849.947 Q34.2797 847.846 32.6883 845.013 Q31.0968 842.149 31.0968 838.425 Q31.0968 832.282 34.9163 829.131 Q38.7038 825.98 46.0881 825.98 Z" fill="#000000" fill-rule="nonzero" fill-opacity="1" /><path clip-path="url(#clip850)" d="M21.8347 808.506 L31.9562 808.506 L31.9562 796.443 L36.5077 796.443 L36.5077 808.506 L55.8594 808.506 Q60.2199 808.506 61.4613 807.328 Q62.7026 806.119 62.7026 802.459 L62.7026 796.443 L67.6042 796.443 L67.6042 802.459 Q67.6042 809.238 65.0897 811.816 Q62.5434 814.394 55.8594 814.394 L36.5077 814.394 L36.5077 818.691 L31.9562 818.691 L31.9562 814.394 L21.8347 814.394 L21.8347 808.506 Z" fill="#000000" fill-rule="nonzero" fill-opacity="1" /><path clip-path="url(#clip850)" d="M37.4307 768.084 Q36.8578 769.07 36.6032 770.248 Q36.3167 771.394 36.3167 772.794 Q36.3167 777.76 39.5632 780.433 Q42.7779 783.075 48.8253 783.075 L67.6042 783.075 L67.6042 788.963 L31.9562 788.963 L31.9562 783.075 L37.4944 783.075 Q34.2479 781.229 32.6883 778.269 Q31.0968 775.309 31.0968 771.076 Q31.0968 770.471 31.1923 769.739 Q31.256 769.007 31.4151 768.116 L37.4307 768.084 Z" fill="#000000" fill-rule="nonzero" fill-opacity="1" /><path clip-path="url(#clip850)" d="M49.6847 745.74 Q49.6847 752.838 51.3079 755.575 Q52.9312 758.312 56.8461 758.312 Q59.9653 758.312 61.8114 756.275 Q63.6256 754.206 63.6256 750.674 Q63.6256 745.804 60.1881 742.876 Q56.7188 739.915 50.9897 739.915 L49.6847 739.915 L49.6847 745.74 M47.2657 734.059 L67.6042 734.059 L67.6042 739.915 L62.1933 739.915 Q65.4398 741.921 66.9994 744.913 Q68.5272 747.904 68.5272 752.233 Q68.5272 757.708 65.4716 760.954 Q62.3843 764.169 57.2281 764.169 Q51.2125 764.169 48.1569 760.158 Q45.1014 756.116 45.1014 748.127 L45.1014 739.915 L44.5285 739.915 Q40.4862 739.915 38.2901 742.589 Q36.0621 745.231 36.0621 750.037 Q36.0621 753.092 36.7941 755.989 Q37.5262 758.885 38.9903 761.559 L33.5795 761.559 Q32.3381 758.344 31.7334 755.32 Q31.0968 752.297 31.0968 749.432 Q31.0968 741.698 35.1072 737.878 Q39.1176 734.059 47.2657 734.059 Z" fill="#000000" fill-rule="nonzero" fill-opacity="1" /><path clip-path="url(#clip850)" d="M21.8347 716.203 L31.9562 716.203 L31.9562 704.14 L36.5077 704.14 L36.5077 716.203 L55.8594 716.203 Q60.2199 716.203 61.4613 715.026 Q62.7026 713.816 62.7026 710.156 L62.7026 704.14 L67.6042 704.14 L67.6042 710.156 Q67.6042 716.935 65.0897 719.513 Q62.5434 722.091 55.8594 722.091 L36.5077 722.091 L36.5077 726.388 L31.9562 726.388 L31.9562 722.091 L21.8347 722.091 L21.8347 716.203 Z" fill="#000000" fill-rule="nonzero" fill-opacity="1" /><path clip-path="url(#clip850)" d="M31.9562 696.438 L31.9562 690.581 L67.6042 690.581 L67.6042 696.438 L31.9562 696.438 M18.079 696.438 L18.079 690.581 L25.495 690.581 L25.495 696.438 L18.079 696.438 Z" fill="#000000" fill-rule="nonzero" fill-opacity="1" /><path clip-path="url(#clip850)" d="M36.0621 664.514 Q36.0621 669.224 39.7542 671.962 Q43.4145 674.699 49.812 674.699 Q56.2095 674.699 59.9017 671.993 Q63.5619 669.256 63.5619 664.514 Q63.5619 659.835 59.8698 657.098 Q56.1777 654.36 49.812 654.36 Q43.4781 654.36 39.786 657.098 Q36.0621 659.835 36.0621 664.514 M31.0968 664.514 Q31.0968 656.875 36.0621 652.514 Q41.0273 648.154 49.812 648.154 Q58.5649 648.154 63.5619 652.514 Q68.5272 656.875 68.5272 664.514 Q68.5272 672.184 63.5619 676.545 Q58.5649 680.874 49.812 680.874 Q41.0273 680.874 36.0621 676.545 Q31.0968 672.184 31.0968 664.514 Z" fill="#000000" fill-rule="nonzero" fill-opacity="1" /><path clip-path="url(#clip850)" d="M46.0881 608.814 L67.6042 608.814 L67.6042 614.67 L46.279 614.67 Q41.2183 614.67 38.7038 616.644 Q36.1894 618.617 36.1894 622.564 Q36.1894 627.306 39.2131 630.043 Q42.2368 632.781 47.4567 632.781 L67.6042 632.781 L67.6042 638.669 L31.9562 638.669 L31.9562 632.781 L37.4944 632.781 Q34.2797 630.68 32.6883 627.847 Q31.0968 624.983 31.0968 621.259 Q31.0968 615.116 34.9163 611.965 Q38.7038 608.814 46.0881 608.814 Z" fill="#000000" fill-rule="nonzero" fill-opacity="1" /><path clip-path="url(#clip850)" d="M18.1426 562.344 Q25.4632 566.609 32.6246 568.678 Q39.786 570.747 47.1384 570.747 Q54.4908 570.747 61.7159 568.678 Q68.9091 566.577 76.1979 562.344 L76.1979 567.437 Q68.7182 572.211 61.4931 574.598 Q54.268 576.953 47.1384 576.953 Q40.0406 576.953 32.8474 574.598 Q25.6542 572.243 18.1426 567.437 L18.1426 562.344 Z" fill="#000000" fill-rule="nonzero" fill-opacity="1" /><path clip-path="url(#clip850)" d="M18.079 551.204 L18.079 545.316 L47.3294 545.316 L31.9562 527.842 L31.9562 520.362 L48.6344 539.268 L67.6042 519.567 L67.6042 527.205 L50.1939 545.316 L67.6042 545.316 L67.6042 551.204 L18.079 551.204 Z" fill="#000000" fill-rule="nonzero" fill-opacity="1" /><path clip-path="url(#clip850)" d="M49.3664 489.775 Q43.0007 489.775 39.4996 492.417 Q35.9984 495.027 35.9984 499.769 Q35.9984 504.48 39.4996 507.122 Q43.0007 509.732 49.3664 509.732 Q55.7003 509.732 59.2014 507.122 Q62.7026 504.48 62.7026 499.769 Q62.7026 495.027 59.2014 492.417 Q55.7003 489.775 49.3664 489.775 M63.18 483.919 Q72.283 483.919 76.7071 487.961 Q81.1631 492.003 81.1631 500.342 Q81.1631 503.429 80.6857 506.167 Q80.2401 508.904 79.2852 511.482 L73.5879 511.482 Q74.9884 508.904 75.6568 506.39 Q76.3252 503.875 76.3252 501.265 Q76.3252 495.504 73.3015 492.64 Q70.3096 489.775 64.2303 489.775 L61.3339 489.775 Q64.485 491.589 66.0446 494.422 Q67.6042 497.255 67.6042 501.201 Q67.6042 507.758 62.6071 511.769 Q57.61 515.779 49.3664 515.779 Q41.091 515.779 36.0939 511.769 Q31.0968 507.758 31.0968 501.201 Q31.0968 497.255 32.6564 494.422 Q34.216 491.589 37.3671 489.775 L31.9562 489.775 L31.9562 483.919 L63.18 483.919 Z" fill="#000000" fill-rule="nonzero" fill-opacity="1" /><path clip-path="url(#clip850)" d="M20.0842 461.448 L20.0842 456.037 L73.6516 472.588 L73.6516 477.998 L20.0842 461.448 Z" fill="#000000" fill-rule="nonzero" fill-opacity="1" /><path clip-path="url(#clip850)" d="M62.1933 447.952 L62.1933 437.449 L25.9406 437.449 L28.2323 448.875 L22.3758 448.875 L20.0842 437.513 L20.0842 431.083 L62.1933 431.083 L62.1933 420.58 L67.6042 420.58 L67.6042 447.952 L62.1933 447.952 Z" fill="#000000" fill-rule="nonzero" fill-opacity="1" /><path clip-path="url(#clip850)" d="M24.3174 393.844 Q24.3174 398.809 29.2189 401.324 Q34.0887 403.806 43.8919 403.806 Q53.6633 403.806 58.5649 401.324 Q63.4346 398.809 63.4346 393.844 Q63.4346 388.847 58.5649 386.364 Q53.6633 383.85 43.8919 383.85 Q34.0887 383.85 29.2189 386.364 Q24.3174 388.847 24.3174 393.844 M19.2248 393.844 Q19.2248 385.855 25.5587 381.653 Q31.8607 377.42 43.8919 377.42 Q55.8913 377.42 62.2251 381.653 Q68.5272 385.855 68.5272 393.844 Q68.5272 401.833 62.2251 406.066 Q55.8913 410.267 43.8919 410.267 Q31.8607 410.267 25.5587 406.066 Q19.2248 401.833 19.2248 393.844 Z" fill="#000000" fill-rule="nonzero" fill-opacity="1" /><path clip-path="url(#clip850)" d="M24.3174 352.371 Q24.3174 357.336 29.2189 359.851 Q34.0887 362.334 43.8919 362.334 Q53.6633 362.334 58.5649 359.851 Q63.4346 357.336 63.4346 352.371 Q63.4346 347.374 58.5649 344.892 Q53.6633 342.377 43.8919 342.377 Q34.0887 342.377 29.2189 344.892 Q24.3174 347.374 24.3174 352.371 M19.2248 352.371 Q19.2248 344.382 25.5587 340.181 Q31.8607 335.948 43.8919 335.948 Q55.8913 335.948 62.2251 340.181 Q68.5272 344.382 68.5272 352.371 Q68.5272 360.36 62.2251 364.593 Q55.8913 368.795 43.8919 368.795 Q31.8607 368.795 25.5587 364.593 Q19.2248 360.36 19.2248 352.371 Z" fill="#000000" fill-rule="nonzero" fill-opacity="1" /><path clip-path="url(#clip850)" d="M24.3174 310.899 Q24.3174 315.864 29.2189 318.378 Q34.0887 320.861 43.8919 320.861 Q53.6633 320.861 58.5649 318.378 Q63.4346 315.864 63.4346 310.899 Q63.4346 305.902 58.5649 303.419 Q53.6633 300.905 43.8919 300.905 Q34.0887 300.905 29.2189 303.419 Q24.3174 305.902 24.3174 310.899 M19.2248 310.899 Q19.2248 302.91 25.5587 298.708 Q31.8607 294.475 43.8919 294.475 Q55.8913 294.475 62.2251 298.708 Q68.5272 302.91 68.5272 310.899 Q68.5272 318.888 62.2251 323.121 Q55.8913 327.322 43.8919 327.322 Q31.8607 327.322 25.5587 323.121 Q19.2248 318.888 19.2248 310.899 Z" fill="#000000" fill-rule="nonzero" fill-opacity="1" /><path clip-path="url(#clip850)" d="M38.7993 235.529 Q34.8526 233.333 32.9747 230.277 Q31.0968 227.221 31.0968 223.084 Q31.0968 217.514 35.0117 214.49 Q38.8948 211.466 46.0881 211.466 L67.6042 211.466 L67.6042 217.355 L46.279 217.355 Q41.1546 217.355 38.672 219.169 Q36.1894 220.983 36.1894 224.707 Q36.1894 229.258 39.2131 231.9 Q42.2368 234.542 47.4567 234.542 L67.6042 234.542 L67.6042 240.43 L46.279 240.43 Q41.1228 240.43 38.672 242.245 Q36.1894 244.059 36.1894 247.846 Q36.1894 252.334 39.2449 254.976 Q42.2686 257.618 47.4567 257.618 L67.6042 257.618 L67.6042 263.506 L31.9562 263.506 L31.9562 257.618 L37.4944 257.618 Q34.216 255.613 32.6564 252.812 Q31.0968 250.011 31.0968 246.159 Q31.0968 242.276 33.0702 239.571 Q35.0436 236.834 38.7993 235.529 Z" fill="#000000" fill-rule="nonzero" fill-opacity="1" /><path clip-path="url(#clip850)" d="M31.9562 189.25 Q32.5291 186.322 34.2797 184.73 Q35.9984 183.107 38.6084 183.107 Q42.5551 183.107 44.6876 186.131 Q46.8201 189.155 46.8201 194.788 Q46.8201 196.602 46.5018 198.608 Q46.1517 200.581 45.5152 202.809 L41.6639 202.809 Q42.5233 201.154 42.937 199.276 Q43.3508 197.366 43.3508 195.234 Q43.3508 191.764 42.1095 189.855 Q40.8364 187.945 38.6084 187.945 Q36.2531 187.945 35.0436 189.727 Q33.8341 191.478 33.8341 194.915 L33.8341 197.653 L30.3966 197.653 L30.3966 194.661 Q30.3966 191.669 29.4099 190.141 Q28.3914 188.582 26.4817 188.582 Q24.6356 188.582 23.6808 190.173 Q22.6941 191.764 22.6941 194.788 Q22.6941 196.061 22.9806 197.685 Q23.267 199.308 23.9991 201.886 L20.3388 201.886 Q19.7977 199.562 19.5112 197.525 Q19.2248 195.488 19.2248 193.738 Q19.2248 189.155 21.1027 186.481 Q22.9806 183.776 26.1316 183.776 Q28.3277 183.776 29.8555 185.208 Q31.3833 186.64 31.9562 189.25 Z" fill="#000000" fill-rule="nonzero" fill-opacity="1" /><path clip-path="url(#clip850)" d="M18.1426 174.577 L18.1426 169.484 Q25.6542 164.71 32.8474 162.355 Q40.0406 159.968 47.1384 159.968 Q54.268 159.968 61.4931 162.355 Q68.7182 164.71 76.1979 169.484 L76.1979 174.577 Q68.9091 170.344 61.7159 168.275 Q54.4908 166.174 47.1384 166.174 Q39.786 166.174 32.6246 168.275 Q25.4632 170.344 18.1426 174.577 Z" fill="#000000" fill-rule="nonzero" fill-opacity="1" /><polyline clip-path="url(#clip852)" style="stroke:#000000; stroke-linecap:round; stroke-linejoin:round; stroke-width:8; stroke-opacity:1; fill:none" points="295.681,693.729 364.383,733.732 433.085,772.319 501.787,809.542 570.489,845.449 639.191,880.087 707.893,913.499 776.595,945.73 845.297,976.822 913.999,1006.81 982.701,1035.75 1051.4,1063.65 1120.1,1090.58 1188.81,1116.54 1257.51,1141.6 1326.21,191.041 1394.91,251.889 1463.61,310.585 1532.32,367.205 1601.02,421.824 1669.72,474.511 1738.42,525.335 1807.12,574.362 1875.83,621.655 1944.53,667.276 2013.23,711.284 "/>
<polyline clip-path="url(#clip852)" style="stroke:#ff0000; stroke-linecap:round; stroke-linejoin:round; stroke-width:4; stroke-opacity:1; fill:none" stroke-dasharray="16, 10" points="-1576.45,79.1184 3885.36,79.1184 "/>
<path clip-path="url(#clip850)" d="M1613.77 1135.93 L2004.07 1135.93 L2004.07 980.41 L1613.77 980.41  Z" fill="#ffffff" fill-rule="evenodd" fill-opacity="1"/>
<polyline clip-path="url(#clip850)" style="stroke:#000000; stroke-linecap:round; stroke-linejoin:round; stroke-width:4; stroke-opacity:1; fill:none" points="1613.77,1135.93 2004.07,1135.93 2004.07,980.41 1613.77,980.41 1613.77,1135.93 "/>
<polyline clip-path="url(#clip850)" style="stroke:#000000; stroke-linecap:round; stroke-linejoin:round; stroke-width:8; stroke-opacity:1; fill:none" points="1634,1032.25 1755.37,1032.25 "/>
<path clip-path="url(#clip850)" d="M1775.6 1014.97 L1780.62 1014.97 L1790.21 1029.18 L1799.72 1014.97 L1804.74 1014.97 L1792.52 1033.07 L1792.52 1049.53 L1787.82 1049.53 L1787.82 1033.07 L1775.6 1014.97 Z" fill="#000000" fill-rule="nonzero" fill-opacity="1" /><path clip-path="url(#clip850)" d="M1808.77 1014.97 L1813.47 1014.97 L1813.47 1035.97 Q1813.47 1041.52 1815.48 1043.97 Q1817.5 1046.4 1822.01 1046.4 Q1826.5 1046.4 1828.52 1043.97 Q1830.53 1041.52 1830.53 1035.97 L1830.53 1014.97 L1835.23 1014.97 L1835.23 1036.54 Q1835.23 1043.3 1831.87 1046.75 Q1828.54 1050.2 1822.01 1050.2 Q1815.46 1050.2 1812.11 1046.75 Q1808.77 1043.3 1808.77 1036.54 L1808.77 1014.97 Z" fill="#000000" fill-rule="nonzero" fill-opacity="1" /><path clip-path="url(#clip850)" d="M1844 1014.97 L1848.68 1014.97 L1848.68 1029.58 L1864.19 1014.97 L1870.21 1014.97 L1853.05 1031.08 L1871.43 1049.53 L1865.28 1049.53 L1848.68 1032.89 L1848.68 1049.53 L1844 1049.53 L1844 1014.97 Z" fill="#000000" fill-rule="nonzero" fill-opacity="1" /><polyline clip-path="url(#clip850)" style="stroke:#ff0000; stroke-linecap:round; stroke-linejoin:round; stroke-width:4; stroke-opacity:1; fill:none" stroke-dasharray="16, 10" points="1634,1084.09 1755.37,1084.09 "/>
<path clip-path="url(#clip850)" d="M1797.85 1067.94 L1797.85 1072.5 Q1795.18 1071.23 1792.82 1070.61 Q1790.46 1069.98 1788.26 1069.98 Q1784.44 1069.98 1782.36 1071.46 Q1780.3 1072.94 1780.3 1075.68 Q1780.3 1077.97 1781.67 1079.15 Q1783.05 1080.31 1786.9 1081.02 L1789.72 1081.6 Q1794.95 1082.6 1797.43 1085.12 Q1799.93 1087.62 1799.93 1091.83 Q1799.93 1096.86 1796.55 1099.45 Q1793.19 1102.04 1786.69 1102.04 Q1784.23 1102.04 1781.46 1101.49 Q1778.7 1100.93 1775.74 1099.84 L1775.74 1095.03 Q1778.59 1096.62 1781.32 1097.43 Q1784.05 1098.24 1786.69 1098.24 Q1790.69 1098.24 1792.87 1096.67 Q1795.05 1095.1 1795.05 1092.18 Q1795.05 1089.63 1793.47 1088.2 Q1791.92 1086.76 1788.36 1086.05 L1785.51 1085.49 Q1780.28 1084.45 1777.94 1082.23 Q1775.6 1080 1775.6 1076.05 Q1775.6 1071.46 1778.82 1068.82 Q1782.06 1066.18 1787.73 1066.18 Q1790.16 1066.18 1792.68 1066.62 Q1795.21 1067.06 1797.85 1067.94 Z" fill="#000000" fill-rule="nonzero" fill-opacity="1" /><path clip-path="url(#clip850)" d="M1811.25 1068.08 L1811.25 1075.44 L1820.02 1075.44 L1820.02 1078.75 L1811.25 1078.75 L1811.25 1092.83 Q1811.25 1096 1812.11 1096.9 Q1812.98 1097.81 1815.65 1097.81 L1820.02 1097.81 L1820.02 1101.37 L1815.65 1101.37 Q1810.72 1101.37 1808.84 1099.54 Q1806.97 1097.69 1806.97 1092.83 L1806.97 1078.75 L1803.84 1078.75 L1803.84 1075.44 L1806.97 1075.44 L1806.97 1068.08 L1811.25 1068.08 Z" fill="#000000" fill-rule="nonzero" fill-opacity="1" /><path clip-path="url(#clip850)" d="M1837.41 1088.34 Q1832.24 1088.34 1830.25 1089.52 Q1828.26 1090.7 1828.26 1093.55 Q1828.26 1095.81 1829.74 1097.16 Q1831.25 1098.48 1833.82 1098.48 Q1837.36 1098.48 1839.49 1095.98 Q1841.64 1093.45 1841.64 1089.29 L1841.64 1088.34 L1837.41 1088.34 M1845.9 1086.58 L1845.9 1101.37 L1841.64 1101.37 L1841.64 1097.43 Q1840.18 1099.8 1838.01 1100.93 Q1835.83 1102.04 1832.68 1102.04 Q1828.7 1102.04 1826.34 1099.82 Q1824 1097.57 1824 1093.82 Q1824 1089.45 1826.92 1087.23 Q1829.86 1085 1835.67 1085 L1841.64 1085 L1841.64 1084.59 Q1841.64 1081.65 1839.7 1080.05 Q1837.78 1078.43 1834.28 1078.43 Q1832.06 1078.43 1829.95 1078.96 Q1827.85 1079.49 1825.9 1080.56 L1825.9 1076.62 Q1828.24 1075.72 1830.44 1075.28 Q1832.64 1074.82 1834.72 1074.82 Q1840.35 1074.82 1843.12 1077.74 Q1845.9 1080.65 1845.9 1086.58 Z" fill="#000000" fill-rule="nonzero" fill-opacity="1" /><path clip-path="url(#clip850)" d="M1876.23 1085.72 L1876.23 1101.37 L1871.97 1101.37 L1871.97 1085.86 Q1871.97 1082.18 1870.53 1080.35 Q1869.1 1078.52 1866.23 1078.52 Q1862.78 1078.52 1860.79 1080.72 Q1858.79 1082.92 1858.79 1086.72 L1858.79 1101.37 L1854.51 1101.37 L1854.51 1075.44 L1858.79 1075.44 L1858.79 1079.47 Q1860.32 1077.13 1862.38 1075.98 Q1864.47 1074.82 1867.17 1074.82 Q1871.64 1074.82 1873.93 1077.6 Q1876.23 1080.35 1876.23 1085.72 Z" fill="#000000" fill-rule="nonzero" fill-opacity="1" /><path clip-path="url(#clip850)" d="M1901.78 1079.38 L1901.78 1065.35 L1906.04 1065.35 L1906.04 1101.37 L1901.78 1101.37 L1901.78 1097.48 Q1900.44 1099.8 1898.38 1100.93 Q1896.34 1102.04 1893.47 1102.04 Q1888.77 1102.04 1885.81 1098.29 Q1882.87 1094.54 1882.87 1088.43 Q1882.87 1082.32 1885.81 1078.57 Q1888.77 1074.82 1893.47 1074.82 Q1896.34 1074.82 1898.38 1075.95 Q1900.44 1077.06 1901.78 1079.38 M1887.27 1088.43 Q1887.27 1093.13 1889.19 1095.81 Q1891.13 1098.48 1894.51 1098.48 Q1897.89 1098.48 1899.84 1095.81 Q1901.78 1093.13 1901.78 1088.43 Q1901.78 1083.73 1899.84 1081.07 Q1897.89 1078.38 1894.51 1078.38 Q1891.13 1078.38 1889.19 1081.07 Q1887.27 1083.73 1887.27 1088.43 Z" fill="#000000" fill-rule="nonzero" fill-opacity="1" /><path clip-path="url(#clip850)" d="M1926.6 1088.34 Q1921.43 1088.34 1919.44 1089.52 Q1917.45 1090.7 1917.45 1093.55 Q1917.45 1095.81 1918.93 1097.16 Q1920.44 1098.48 1923.01 1098.48 Q1926.55 1098.48 1928.68 1095.98 Q1930.83 1093.45 1930.83 1089.29 L1930.83 1088.34 L1926.6 1088.34 M1935.09 1086.58 L1935.09 1101.37 L1930.83 1101.37 L1930.83 1097.43 Q1929.37 1099.8 1927.2 1100.93 Q1925.02 1102.04 1921.87 1102.04 Q1917.89 1102.04 1915.53 1099.82 Q1913.19 1097.57 1913.19 1093.82 Q1913.19 1089.45 1916.11 1087.23 Q1919.05 1085 1924.86 1085 L1930.83 1085 L1930.83 1084.59 Q1930.83 1081.65 1928.89 1080.05 Q1926.97 1078.43 1923.47 1078.43 Q1921.25 1078.43 1919.14 1078.96 Q1917.04 1079.49 1915.09 1080.56 L1915.09 1076.62 Q1917.43 1075.72 1919.63 1075.28 Q1921.83 1074.82 1923.91 1074.82 Q1929.54 1074.82 1932.31 1077.74 Q1935.09 1080.65 1935.09 1086.58 Z" fill="#000000" fill-rule="nonzero" fill-opacity="1" /><path clip-path="url(#clip850)" d="M1958.89 1079.43 Q1958.17 1079.01 1957.31 1078.82 Q1956.48 1078.62 1955.46 1078.62 Q1951.85 1078.62 1949.91 1080.98 Q1947.98 1083.31 1947.98 1087.71 L1947.98 1101.37 L1943.7 1101.37 L1943.7 1075.44 L1947.98 1075.44 L1947.98 1079.47 Q1949.33 1077.11 1951.48 1075.98 Q1953.63 1074.82 1956.71 1074.82 Q1957.15 1074.82 1957.68 1074.89 Q1958.22 1074.93 1958.86 1075.05 L1958.89 1079.43 Z" fill="#000000" fill-rule="nonzero" fill-opacity="1" /><path clip-path="url(#clip850)" d="M1979.58 1079.38 L1979.58 1065.35 L1983.84 1065.35 L1983.84 1101.37 L1979.58 1101.37 L1979.58 1097.48 Q1978.24 1099.8 1976.18 1100.93 Q1974.14 1102.04 1971.27 1102.04 Q1966.57 1102.04 1963.61 1098.29 Q1960.67 1094.54 1960.67 1088.43 Q1960.67 1082.32 1963.61 1078.57 Q1966.57 1074.82 1971.27 1074.82 Q1974.14 1074.82 1976.18 1075.95 Q1978.24 1077.06 1979.58 1079.38 M1965.07 1088.43 Q1965.07 1093.13 1966.99 1095.81 Q1968.93 1098.48 1972.31 1098.48 Q1975.69 1098.48 1977.64 1095.81 Q1979.58 1093.13 1979.58 1088.43 Q1979.58 1083.73 1977.64 1081.07 Q1975.69 1078.38 1972.31 1078.38 Q1968.93 1078.38 1966.99 1081.07 Q1965.07 1083.73 1965.07 1088.43 Z" fill="#000000" fill-rule="nonzero" fill-opacity="1" /></svg>
