<?xml version="1.0" encoding="utf-8"?>
<svg xmlns="http://www.w3.org/2000/svg" xmlns:xlink="http://www.w3.org/1999/xlink" width="528" height="336" viewBox="0 0 2112 1344">
<defs>
  <clipPath id="clip350">
    <rect x="0" y="0" width="2112" height="1344"/>
  </clipPath>
</defs>
<path clip-path="url(#clip350)" d="M0 1344 L2112 1344 L2112 2.13163e-14 L0 2.13163e-14  Z" fill="#ffffff" fill-rule="evenodd" fill-opacity="1"/>
<defs>
  <clipPath id="clip351">
    <rect x="422" y="0" width="1479" height="1344"/>
  </clipPath>
</defs>
<path clip-path="url(#clip350)" d="M229.085 1173.47 L2064.76 1173.47 L2064.76 47.2441 L229.085 47.2441  Z" fill="#ffffff" fill-rule="evenodd" fill-opacity="1"/>
<defs>
  <clipPath id="clip352">
    <rect x="229" y="47" width="1837" height="1127"/>
  </clipPath>
</defs>
<polyline clip-path="url(#clip352)" style="stroke:#000000; stroke-linecap:round; stroke-linejoin:round; stroke-width:2; stroke-opacity:0.1; fill:none" points="500.232,1173.47 500.232,47.2441 "/>
<polyline clip-path="url(#clip352)" style="stroke:#000000; stroke-linecap:round; stroke-linejoin:round; stroke-width:2; stroke-opacity:0.1; fill:none" points="925.685,1173.47 925.685,47.2441 "/>
<polyline clip-path="url(#clip352)" style="stroke:#000000; stroke-linecap:round; stroke-linejoin:round; stroke-width:2; stroke-opacity:0.1; fill:none" points="1351.14,1173.47 1351.14,47.2441 "/>
<polyline clip-path="url(#clip352)" style="stroke:#000000; stroke-linecap:round; stroke-linejoin:round; stroke-width:2; stroke-opacity:0.1; fill:none" points="1776.59,1173.47 1776.59,47.2441 "/>
<polyline clip-path="url(#clip352)" style="stroke:#000000; stroke-linecap:round; stroke-linejoin:round; stroke-width:2; stroke-opacity:0.1; fill:none" points="229.085,1173.47 2064.76,1173.47 "/>
<polyline clip-path="url(#clip352)" style="stroke:#000000; stroke-linecap:round; stroke-linejoin:round; stroke-width:2; stroke-opacity:0.1; fill:none" points="229.085,884.695 2064.76,884.695 "/>
<polyline clip-path="url(#clip352)" style="stroke:#000000; stroke-linecap:round; stroke-linejoin:round; stroke-width:2; stroke-opacity:0.1; fill:none" points="229.085,595.919 2064.76,595.919 "/>
<polyline clip-path="url(#clip352)" style="stroke:#000000; stroke-linecap:round; stroke-linejoin:round; stroke-width:2; stroke-opacity:0.1; fill:none" points="229.085,307.143 2064.76,307.143 "/>
<polyline clip-path="url(#clip350)" style="stroke:#000000; stroke-linecap:round; stroke-linejoin:round; stroke-width:4; stroke-opacity:1; fill:none" points="229.085,1173.47 2064.76,1173.47 "/>
<polyline clip-path="url(#clip350)" style="stroke:#000000; stroke-linecap:round; stroke-linejoin:round; stroke-width:4; stroke-opacity:1; fill:none" points="500.232,1173.47 500.232,1154.57 "/>
<polyline clip-path="url(#clip350)" style="stroke:#000000; stroke-linecap:round; stroke-linejoin:round; stroke-width:4; stroke-opacity:1; fill:none" points="925.685,1173.47 925.685,1154.57 "/>
<polyline clip-path="url(#clip350)" style="stroke:#000000; stroke-linecap:round; stroke-linejoin:round; stroke-width:4; stroke-opacity:1; fill:none" points="1351.14,1173.47 1351.14,1154.57 "/>
<polyline clip-path="url(#clip350)" style="stroke:#000000; stroke-linecap:round; stroke-linejoin:round; stroke-width:4; stroke-opacity:1; fill:none" points="1776.59,1173.47 1776.59,1154.57 "/>
<path clip-path="url(#clip350)" d="M467.396 1199.01 L485.753 1199.01 L485.753 1202.94 L471.679 1202.94 L471.679 1211.41 Q472.697 1211.07 473.716 1210.9 Q474.734 1210.72 475.753 1210.72 Q481.54 1210.72 484.919 1213.89 Q488.299 1217.06 488.299 1222.48 Q488.299 1228.06 484.827 1231.16 Q481.355 1234.24 475.035 1234.24 Q472.859 1234.24 470.591 1233.87 Q468.345 1233.5 465.938 1232.76 L465.938 1228.06 Q468.021 1229.19 470.244 1229.75 Q472.466 1230.3 474.943 1230.3 Q478.947 1230.3 481.285 1228.2 Q483.623 1226.09 483.623 1222.48 Q483.623 1218.87 481.285 1216.76 Q478.947 1214.65 474.943 1214.65 Q473.068 1214.65 471.193 1215.07 Q469.341 1215.49 467.396 1216.37 L467.396 1199.01 Z" fill="#000000" fill-rule="nonzero" fill-opacity="1" /><path clip-path="url(#clip350)" d="M497.512 1227.69 L502.396 1227.69 L502.396 1233.57 L497.512 1233.57 L497.512 1227.69 Z" fill="#000000" fill-rule="nonzero" fill-opacity="1" /><path clip-path="url(#clip350)" d="M522.581 1202.09 Q518.97 1202.09 517.141 1205.65 Q515.336 1209.19 515.336 1216.32 Q515.336 1223.43 517.141 1226.99 Q518.97 1230.53 522.581 1230.53 Q526.216 1230.53 528.021 1226.99 Q529.85 1223.43 529.85 1216.32 Q529.85 1209.19 528.021 1205.65 Q526.216 1202.09 522.581 1202.09 M522.581 1198.38 Q528.391 1198.38 531.447 1202.99 Q534.526 1207.57 534.526 1216.32 Q534.526 1225.05 531.447 1229.65 Q528.391 1234.24 522.581 1234.24 Q516.771 1234.24 513.692 1229.65 Q510.637 1225.05 510.637 1216.32 Q510.637 1207.57 513.692 1202.99 Q516.771 1198.38 522.581 1198.38 Z" fill="#000000" fill-rule="nonzero" fill-opacity="1" /><path clip-path="url(#clip350)" d="M892.005 1199.01 L914.227 1199.01 L914.227 1201 L901.681 1233.57 L896.796 1233.57 L908.602 1202.94 L892.005 1202.94 L892.005 1199.01 Z" fill="#000000" fill-rule="nonzero" fill-opacity="1" /><path clip-path="url(#clip350)" d="M923.347 1227.69 L928.231 1227.69 L928.231 1233.57 L923.347 1233.57 L923.347 1227.69 Z" fill="#000000" fill-rule="nonzero" fill-opacity="1" /><path clip-path="url(#clip350)" d="M938.463 1199.01 L956.819 1199.01 L956.819 1202.94 L942.745 1202.94 L942.745 1211.41 Q943.764 1211.07 944.782 1210.9 Q945.801 1210.72 946.819 1210.72 Q952.606 1210.72 955.986 1213.89 Q959.365 1217.06 959.365 1222.48 Q959.365 1228.06 955.893 1231.16 Q952.421 1234.24 946.102 1234.24 Q943.926 1234.24 941.657 1233.87 Q939.412 1233.5 937.004 1232.76 L937.004 1228.06 Q939.088 1229.19 941.31 1229.75 Q943.532 1230.3 946.009 1230.3 Q950.014 1230.3 952.352 1228.2 Q954.69 1226.09 954.69 1222.48 Q954.69 1218.87 952.352 1216.76 Q950.014 1214.65 946.009 1214.65 Q944.134 1214.65 942.259 1215.07 Q940.407 1215.49 938.463 1216.37 L938.463 1199.01 Z" fill="#000000" fill-rule="nonzero" fill-opacity="1" /><path clip-path="url(#clip350)" d="M1303.21 1229.63 L1310.85 1229.63 L1310.85 1203.27 L1302.54 1204.93 L1302.54 1200.67 L1310.8 1199.01 L1315.48 1199.01 L1315.48 1229.63 L1323.12 1229.63 L1323.12 1233.57 L1303.21 1233.57 L1303.21 1229.63 Z" fill="#000000" fill-rule="nonzero" fill-opacity="1" /><path clip-path="url(#clip350)" d="M1342.56 1202.09 Q1338.95 1202.09 1337.12 1205.65 Q1335.32 1209.19 1335.32 1216.32 Q1335.32 1223.43 1337.12 1226.99 Q1338.95 1230.53 1342.56 1230.53 Q1346.2 1230.53 1348 1226.99 Q1349.83 1223.43 1349.83 1216.32 Q1349.83 1209.19 1348 1205.65 Q1346.2 1202.09 1342.56 1202.09 M1342.56 1198.38 Q1348.37 1198.38 1351.43 1202.99 Q1354.51 1207.57 1354.51 1216.32 Q1354.51 1225.05 1351.43 1229.65 Q1348.37 1234.24 1342.56 1234.24 Q1336.75 1234.24 1333.67 1229.65 Q1330.62 1225.05 1330.62 1216.32 Q1330.62 1207.57 1333.67 1202.99 Q1336.75 1198.38 1342.56 1198.38 Z" fill="#000000" fill-rule="nonzero" fill-opacity="1" /><path clip-path="url(#clip350)" d="M1362.72 1227.69 L1367.61 1227.69 L1367.61 1233.57 L1362.72 1233.57 L1362.72 1227.69 Z" fill="#000000" fill-rule="nonzero" fill-opacity="1" /><path clip-path="url(#clip350)" d="M1387.79 1202.09 Q1384.18 1202.09 1382.35 1205.65 Q1380.55 1209.19 1380.55 1216.32 Q1380.55 1223.43 1382.35 1226.99 Q1384.18 1230.53 1387.79 1230.53 Q1391.43 1230.53 1393.23 1226.99 Q1395.06 1223.43 1395.06 1216.32 Q1395.06 1209.19 1393.23 1205.65 Q1391.43 1202.09 1387.79 1202.09 M1387.79 1198.38 Q1393.6 1198.38 1396.66 1202.99 Q1399.74 1207.57 1399.74 1216.32 Q1399.74 1225.05 1396.66 1229.65 Q1393.6 1234.24 1387.79 1234.24 Q1381.98 1234.24 1378.9 1229.65 Q1375.85 1225.05 1375.85 1216.32 Q1375.85 1207.57 1378.9 1202.99 Q1381.98 1198.38 1387.79 1198.38 Z" fill="#000000" fill-rule="nonzero" fill-opacity="1" /><path clip-path="url(#clip350)" d="M1729.16 1229.63 L1736.8 1229.63 L1736.8 1203.27 L1728.49 1204.93 L1728.49 1200.67 L1736.75 1199.01 L1741.43 1199.01 L1741.43 1229.63 L1749.07 1229.63 L1749.07 1233.57 L1729.16 1233.57 L1729.16 1229.63 Z" fill="#000000" fill-rule="nonzero" fill-opacity="1" /><path clip-path="url(#clip350)" d="M1762.54 1229.63 L1778.86 1229.63 L1778.86 1233.57 L1756.92 1233.57 L1756.92 1229.63 Q1759.58 1226.88 1764.16 1222.25 Q1768.77 1217.59 1769.95 1216.25 Q1772.19 1213.73 1773.07 1211.99 Q1773.98 1210.23 1773.98 1208.54 Q1773.98 1205.79 1772.03 1204.05 Q1770.11 1202.32 1767.01 1202.32 Q1764.81 1202.32 1762.36 1203.08 Q1759.92 1203.84 1757.15 1205.4 L1757.15 1200.67 Q1759.97 1199.54 1762.42 1198.96 Q1764.88 1198.38 1766.92 1198.38 Q1772.29 1198.38 1775.48 1201.07 Q1778.67 1203.75 1778.67 1208.24 Q1778.67 1210.37 1777.86 1212.29 Q1777.08 1214.19 1774.97 1216.78 Q1774.39 1217.46 1771.29 1220.67 Q1768.19 1223.87 1762.54 1229.63 Z" fill="#000000" fill-rule="nonzero" fill-opacity="1" /><path clip-path="url(#clip350)" d="M1788.67 1227.69 L1793.56 1227.69 L1793.56 1233.57 L1788.67 1233.57 L1788.67 1227.69 Z" fill="#000000" fill-rule="nonzero" fill-opacity="1" /><path clip-path="url(#clip350)" d="M1803.79 1199.01 L1822.15 1199.01 L1822.15 1202.94 L1808.07 1202.94 L1808.07 1211.41 Q1809.09 1211.07 1810.11 1210.9 Q1811.13 1210.72 1812.15 1210.72 Q1817.93 1210.72 1821.31 1213.89 Q1824.69 1217.06 1824.69 1222.48 Q1824.69 1228.06 1821.22 1231.16 Q1817.75 1234.24 1811.43 1234.24 Q1809.25 1234.24 1806.98 1233.87 Q1804.74 1233.5 1802.33 1232.76 L1802.33 1228.06 Q1804.42 1229.19 1806.64 1229.75 Q1808.86 1230.3 1811.34 1230.3 Q1815.34 1230.3 1817.68 1228.2 Q1820.02 1226.09 1820.02 1222.48 Q1820.02 1218.87 1817.68 1216.76 Q1815.34 1214.65 1811.34 1214.65 Q1809.46 1214.65 1807.59 1215.07 Q1805.73 1215.49 1803.79 1216.37 L1803.79 1199.01 Z" fill="#000000" fill-rule="nonzero" fill-opacity="1" /><path clip-path="url(#clip350)" d="M546.873 1291.73 Q548.942 1292.44 550.884 1294.73 Q552.857 1297.02 554.83 1301.03 L561.355 1314.01 L554.448 1314.01 L548.369 1301.82 Q546.014 1297.05 543.786 1295.49 Q541.59 1293.93 537.77 1293.93 L530.768 1293.93 L530.768 1314.01 L524.339 1314.01 L524.339 1266.49 L538.852 1266.49 Q547.001 1266.49 551.011 1269.9 Q555.021 1273.31 555.021 1280.18 Q555.021 1284.67 552.921 1287.63 Q550.852 1290.59 546.873 1291.73 M530.768 1271.78 L530.768 1288.65 L538.852 1288.65 Q543.499 1288.65 545.855 1286.51 Q548.242 1284.35 548.242 1280.18 Q548.242 1276.01 545.855 1273.91 Q543.499 1271.78 538.852 1271.78 L530.768 1271.78 Z" fill="#000000" fill-rule="nonzero" fill-opacity="1" /><path clip-path="url(#clip350)" d="M569.376 1278.37 L575.232 1278.37 L575.232 1314.01 L569.376 1314.01 L569.376 1278.37 M569.376 1264.49 L575.232 1264.49 L575.232 1271.91 L569.376 1271.91 L569.376 1264.49 Z" fill="#000000" fill-rule="nonzero" fill-opacity="1" /><path clip-path="url(#clip350)" d="M583.285 1278.37 L589.492 1278.37 L600.632 1308.29 L611.772 1278.37 L617.978 1278.37 L604.61 1314.01 L596.653 1314.01 L583.285 1278.37 Z" fill="#000000" fill-rule="nonzero" fill-opacity="1" /><path clip-path="url(#clip350)" d="M656.554 1294.73 L656.554 1297.59 L629.627 1297.59 Q630.009 1303.64 633.256 1306.82 Q636.534 1309.97 642.359 1309.97 Q645.733 1309.97 648.884 1309.14 Q652.067 1308.32 655.186 1306.66 L655.186 1312.2 Q652.035 1313.54 648.725 1314.24 Q645.414 1314.94 642.009 1314.94 Q633.479 1314.94 628.482 1309.97 Q623.516 1305.01 623.516 1296.54 Q623.516 1287.79 628.227 1282.66 Q632.969 1277.51 640.99 1277.51 Q648.183 1277.51 652.353 1282.15 Q656.554 1286.77 656.554 1294.73 M650.698 1293.01 Q650.634 1288.2 647.993 1285.34 Q645.383 1282.47 641.054 1282.47 Q636.152 1282.47 633.192 1285.24 Q630.264 1288.01 629.818 1293.04 L650.698 1293.01 Z" fill="#000000" fill-rule="nonzero" fill-opacity="1" /><path clip-path="url(#clip350)" d="M686.823 1283.84 Q685.837 1283.27 684.659 1283.01 Q683.513 1282.73 682.113 1282.73 Q677.147 1282.73 674.474 1285.97 Q671.832 1289.19 671.832 1295.24 L671.832 1314.01 L665.944 1314.01 L665.944 1278.37 L671.832 1278.37 L671.832 1283.9 Q673.678 1280.66 676.638 1279.1 Q679.598 1277.51 683.831 1277.51 Q684.436 1277.51 685.168 1277.6 Q685.9 1277.67 686.791 1277.83 L686.823 1283.84 Z" fill="#000000" fill-rule="nonzero" fill-opacity="1" /><path clip-path="url(#clip350)" d="M713.941 1266.49 L720.371 1266.49 L720.371 1314.01 L713.941 1314.01 L713.941 1266.49 Z" fill="#000000" fill-rule="nonzero" fill-opacity="1" /><path clip-path="url(#clip350)" d="M762.543 1292.5 L762.543 1314.01 L756.687 1314.01 L756.687 1292.69 Q756.687 1287.63 754.714 1285.11 Q752.74 1282.6 748.793 1282.6 Q744.051 1282.6 741.314 1285.62 Q738.577 1288.65 738.577 1293.87 L738.577 1314.01 L732.688 1314.01 L732.688 1278.37 L738.577 1278.37 L738.577 1283.9 Q740.677 1280.69 743.51 1279.1 Q746.375 1277.51 750.098 1277.51 Q756.241 1277.51 759.392 1281.33 Q762.543 1285.11 762.543 1292.5 Z" fill="#000000" fill-rule="nonzero" fill-opacity="1" /><path clip-path="url(#clip350)" d="M792.271 1264.49 L792.271 1269.36 L786.669 1269.36 Q783.518 1269.36 782.277 1270.63 Q781.068 1271.91 781.068 1275.22 L781.068 1278.37 L790.712 1278.37 L790.712 1282.92 L781.068 1282.92 L781.068 1314.01 L775.179 1314.01 L775.179 1282.92 L769.578 1282.92 L769.578 1278.37 L775.179 1278.37 L775.179 1275.88 Q775.179 1269.93 777.948 1267.23 Q780.717 1264.49 786.733 1264.49 L792.271 1264.49 Z" fill="#000000" fill-rule="nonzero" fill-opacity="1" /><path clip-path="url(#clip350)" d="M797.173 1264.49 L803.029 1264.49 L803.029 1314.01 L797.173 1314.01 L797.173 1264.49 Z" fill="#000000" fill-rule="nonzero" fill-opacity="1" /><path clip-path="url(#clip350)" d="M829.097 1282.47 Q824.386 1282.47 821.649 1286.16 Q818.912 1289.83 818.912 1296.22 Q818.912 1302.62 821.617 1306.31 Q824.354 1309.97 829.097 1309.97 Q833.776 1309.97 836.513 1306.28 Q839.25 1302.59 839.25 1296.22 Q839.25 1289.89 836.513 1286.2 Q833.776 1282.47 829.097 1282.47 M829.097 1277.51 Q836.736 1277.51 841.096 1282.47 Q845.457 1287.44 845.457 1296.22 Q845.457 1304.98 841.096 1309.97 Q836.736 1314.94 829.097 1314.94 Q821.426 1314.94 817.066 1309.97 Q812.737 1304.98 812.737 1296.22 Q812.737 1287.44 817.066 1282.47 Q821.426 1277.51 829.097 1277.51 Z" fill="#000000" fill-rule="nonzero" fill-opacity="1" /><path clip-path="url(#clip350)" d="M851.759 1278.37 L857.615 1278.37 L864.936 1306.18 L872.225 1278.37 L879.131 1278.37 L886.452 1306.18 L893.741 1278.37 L899.597 1278.37 L890.271 1314.01 L883.365 1314.01 L875.694 1284.8 L867.991 1314.01 L861.085 1314.01 L851.759 1278.37 Z" fill="#000000" fill-rule="nonzero" fill-opacity="1" /><path clip-path="url(#clip350)" d="M935.882 1271.78 L935.882 1308.73 L943.648 1308.73 Q953.483 1308.73 958.034 1304.28 Q962.618 1299.82 962.618 1290.21 Q962.618 1280.66 958.034 1276.23 Q953.483 1271.78 943.648 1271.78 L935.882 1271.78 M929.452 1266.49 L942.661 1266.49 Q956.475 1266.49 962.936 1272.26 Q969.397 1277.98 969.397 1290.21 Q969.397 1302.49 962.904 1308.25 Q956.411 1314.01 942.661 1314.01 L929.452 1314.01 L929.452 1266.49 Z" fill="#000000" fill-rule="nonzero" fill-opacity="1" /><path clip-path="url(#clip350)" d="M998.934 1270.86 Q991.932 1270.86 987.794 1276.08 Q983.688 1281.3 983.688 1290.3 Q983.688 1299.28 987.794 1304.5 Q991.932 1309.72 998.934 1309.72 Q1005.94 1309.72 1010.01 1304.5 Q1014.12 1299.28 1014.12 1290.3 Q1014.12 1281.3 1010.01 1276.08 Q1005.94 1270.86 998.934 1270.86 M998.934 1265.64 Q1008.93 1265.64 1014.91 1272.35 Q1020.9 1279.04 1020.9 1290.3 Q1020.9 1301.54 1014.91 1308.25 Q1008.93 1314.94 998.934 1314.94 Q988.908 1314.94 982.892 1308.25 Q976.909 1301.57 976.909 1290.3 Q976.909 1279.04 982.892 1272.35 Q988.908 1265.64 998.934 1265.64 Z" fill="#000000" fill-rule="nonzero" fill-opacity="1" /><path clip-path="url(#clip350)" d="M1087.26 1270.16 L1087.26 1276.93 Q1084.01 1273.91 1080.32 1272.41 Q1076.66 1270.92 1072.52 1270.92 Q1064.37 1270.92 1060.04 1275.92 Q1055.72 1280.88 1055.72 1290.3 Q1055.72 1299.69 1060.04 1304.69 Q1064.37 1309.65 1072.52 1309.65 Q1076.66 1309.65 1080.32 1308.16 Q1084.01 1306.66 1087.26 1303.64 L1087.26 1310.35 Q1083.88 1312.65 1080.1 1313.79 Q1076.34 1314.94 1072.14 1314.94 Q1061.35 1314.94 1055.14 1308.35 Q1048.94 1301.73 1048.94 1290.3 Q1048.94 1278.84 1055.14 1272.26 Q1061.35 1265.64 1072.14 1265.64 Q1076.4 1265.64 1080.16 1266.78 Q1083.95 1267.9 1087.26 1270.16 Z" fill="#000000" fill-rule="nonzero" fill-opacity="1" /><path clip-path="url(#clip350)" d="M1110.75 1282.47 Q1106.04 1282.47 1103.3 1286.16 Q1100.56 1289.83 1100.56 1296.22 Q1100.56 1302.62 1103.27 1306.31 Q1106.01 1309.97 1110.75 1309.97 Q1115.43 1309.97 1118.16 1306.28 Q1120.9 1302.59 1120.9 1296.22 Q1120.9 1289.89 1118.16 1286.2 Q1115.43 1282.47 1110.75 1282.47 M1110.75 1277.51 Q1118.39 1277.51 1122.75 1282.47 Q1127.11 1287.44 1127.11 1296.22 Q1127.11 1304.98 1122.75 1309.97 Q1118.39 1314.94 1110.75 1314.94 Q1103.08 1314.94 1098.72 1309.97 Q1094.39 1304.98 1094.39 1296.22 Q1094.39 1287.44 1098.72 1282.47 Q1103.08 1277.51 1110.75 1277.51 Z" fill="#000000" fill-rule="nonzero" fill-opacity="1" /><path clip-path="url(#clip350)" d="M1166.45 1292.5 L1166.45 1314.01 L1160.59 1314.01 L1160.59 1292.69 Q1160.59 1287.63 1158.62 1285.11 Q1156.64 1282.6 1152.7 1282.6 Q1147.96 1282.6 1145.22 1285.62 Q1142.48 1288.65 1142.48 1293.87 L1142.48 1314.01 L1136.59 1314.01 L1136.59 1278.37 L1142.48 1278.37 L1142.48 1283.9 Q1144.58 1280.69 1147.41 1279.1 Q1150.28 1277.51 1154 1277.51 Q1160.15 1277.51 1163.3 1281.33 Q1166.45 1285.11 1166.45 1292.5 Z" fill="#000000" fill-rule="nonzero" fill-opacity="1" /><path clip-path="url(#clip350)" d="M1203.78 1279.74 L1203.78 1285.21 Q1201.3 1283.84 1198.79 1283.17 Q1196.3 1282.47 1193.76 1282.47 Q1188.06 1282.47 1184.91 1286.1 Q1181.76 1289.7 1181.76 1296.22 Q1181.76 1302.75 1184.91 1306.38 Q1188.06 1309.97 1193.76 1309.97 Q1196.3 1309.97 1198.79 1309.3 Q1201.3 1308.6 1203.78 1307.24 L1203.78 1312.65 Q1201.33 1313.79 1198.69 1314.36 Q1196.08 1314.94 1193.12 1314.94 Q1185.07 1314.94 1180.32 1309.88 Q1175.58 1304.82 1175.58 1296.22 Q1175.58 1287.5 1180.36 1282.5 Q1185.16 1277.51 1193.5 1277.51 Q1196.21 1277.51 1198.79 1278.08 Q1201.36 1278.62 1203.78 1279.74 Z" fill="#000000" fill-rule="nonzero" fill-opacity="1" /><path clip-path="url(#clip350)" d="M1244.46 1294.73 L1244.46 1297.59 L1217.53 1297.59 Q1217.91 1303.64 1221.16 1306.82 Q1224.44 1309.97 1230.26 1309.97 Q1233.64 1309.97 1236.79 1309.14 Q1239.97 1308.32 1243.09 1306.66 L1243.09 1312.2 Q1239.94 1313.54 1236.63 1314.24 Q1233.32 1314.94 1229.91 1314.94 Q1221.38 1314.94 1216.39 1309.97 Q1211.42 1305.01 1211.42 1296.54 Q1211.42 1287.79 1216.13 1282.66 Q1220.87 1277.51 1228.9 1277.51 Q1236.09 1277.51 1240.26 1282.15 Q1244.46 1286.77 1244.46 1294.73 M1238.6 1293.01 Q1238.54 1288.2 1235.9 1285.34 Q1233.29 1282.47 1228.96 1282.47 Q1224.06 1282.47 1221.1 1285.24 Q1218.17 1288.01 1217.72 1293.04 L1238.6 1293.01 Z" fill="#000000" fill-rule="nonzero" fill-opacity="1" /><path clip-path="url(#clip350)" d="M1283.7 1292.5 L1283.7 1314.01 L1277.85 1314.01 L1277.85 1292.69 Q1277.85 1287.63 1275.87 1285.11 Q1273.9 1282.6 1269.95 1282.6 Q1265.21 1282.6 1262.47 1285.62 Q1259.74 1288.65 1259.74 1293.87 L1259.74 1314.01 L1253.85 1314.01 L1253.85 1278.37 L1259.74 1278.37 L1259.74 1283.9 Q1261.84 1280.69 1264.67 1279.1 Q1267.53 1277.51 1271.26 1277.51 Q1277.4 1277.51 1280.55 1281.33 Q1283.7 1285.11 1283.7 1292.5 Z" fill="#000000" fill-rule="nonzero" fill-opacity="1" /><path clip-path="url(#clip350)" d="M1301.18 1268.25 L1301.18 1278.37 L1313.24 1278.37 L1313.24 1282.92 L1301.18 1282.92 L1301.18 1302.27 Q1301.18 1306.63 1302.36 1307.87 Q1303.56 1309.11 1307.23 1309.11 L1313.24 1309.11 L1313.24 1314.01 L1307.23 1314.01 Q1300.45 1314.01 1297.87 1311.5 Q1295.29 1308.95 1295.29 1302.27 L1295.29 1282.92 L1290.99 1282.92 L1290.99 1278.37 L1295.29 1278.37 L1295.29 1268.25 L1301.18 1268.25 Z" fill="#000000" fill-rule="nonzero" fill-opacity="1" /><path clip-path="url(#clip350)" d="M1341.6 1283.84 Q1340.61 1283.27 1339.44 1283.01 Q1338.29 1282.73 1336.89 1282.73 Q1331.92 1282.73 1329.25 1285.97 Q1326.61 1289.19 1326.61 1295.24 L1326.61 1314.01 L1320.72 1314.01 L1320.72 1278.37 L1326.61 1278.37 L1326.61 1283.9 Q1328.45 1280.66 1331.41 1279.1 Q1334.37 1277.51 1338.61 1277.51 Q1339.21 1277.51 1339.94 1277.6 Q1340.68 1277.67 1341.57 1277.83 L1341.6 1283.84 Z" fill="#000000" fill-rule="nonzero" fill-opacity="1" /><path clip-path="url(#clip350)" d="M1363.94 1296.1 Q1356.85 1296.1 1354.11 1297.72 Q1351.37 1299.34 1351.37 1303.26 Q1351.37 1306.38 1353.41 1308.22 Q1355.48 1310.04 1359.01 1310.04 Q1363.88 1310.04 1366.81 1306.6 Q1369.77 1303.13 1369.77 1297.4 L1369.77 1296.1 L1363.94 1296.1 M1375.62 1293.68 L1375.62 1314.01 L1369.77 1314.01 L1369.77 1308.6 Q1367.76 1311.85 1364.77 1313.41 Q1361.78 1314.94 1357.45 1314.94 Q1351.98 1314.94 1348.73 1311.88 Q1345.51 1308.79 1345.51 1303.64 Q1345.51 1297.62 1349.53 1294.57 Q1353.57 1291.51 1361.56 1291.51 L1369.77 1291.51 L1369.77 1290.94 Q1369.77 1286.9 1367.09 1284.7 Q1364.45 1282.47 1359.65 1282.47 Q1356.59 1282.47 1353.69 1283.2 Q1350.8 1283.94 1348.12 1285.4 L1348.12 1279.99 Q1351.34 1278.75 1354.36 1278.14 Q1357.39 1277.51 1360.25 1277.51 Q1367.99 1277.51 1371.81 1281.52 Q1375.62 1285.53 1375.62 1293.68 Z" fill="#000000" fill-rule="nonzero" fill-opacity="1" /><path clip-path="url(#clip350)" d="M1393.48 1268.25 L1393.48 1278.37 L1405.54 1278.37 L1405.54 1282.92 L1393.48 1282.92 L1393.48 1302.27 Q1393.48 1306.63 1394.66 1307.87 Q1395.87 1309.11 1399.53 1309.11 L1405.54 1309.11 L1405.54 1314.01 L1399.53 1314.01 Q1392.75 1314.01 1390.17 1311.5 Q1387.59 1308.95 1387.59 1302.27 L1387.59 1282.92 L1383.3 1282.92 L1383.3 1278.37 L1387.59 1278.37 L1387.59 1268.25 L1393.48 1268.25 Z" fill="#000000" fill-rule="nonzero" fill-opacity="1" /><path clip-path="url(#clip350)" d="M1413.25 1278.37 L1419.1 1278.37 L1419.1 1314.01 L1413.25 1314.01 L1413.25 1278.37 M1413.25 1264.49 L1419.1 1264.49 L1419.1 1271.91 L1413.25 1271.91 L1413.25 1264.49 Z" fill="#000000" fill-rule="nonzero" fill-opacity="1" /><path clip-path="url(#clip350)" d="M1445.17 1282.47 Q1440.46 1282.47 1437.72 1286.16 Q1434.98 1289.83 1434.98 1296.22 Q1434.98 1302.62 1437.69 1306.31 Q1440.43 1309.97 1445.17 1309.97 Q1449.85 1309.97 1452.59 1306.28 Q1455.32 1302.59 1455.32 1296.22 Q1455.32 1289.89 1452.59 1286.2 Q1449.85 1282.47 1445.17 1282.47 M1445.17 1277.51 Q1452.81 1277.51 1457.17 1282.47 Q1461.53 1287.44 1461.53 1296.22 Q1461.53 1304.98 1457.17 1309.97 Q1452.81 1314.94 1445.17 1314.94 Q1437.5 1314.94 1433.14 1309.97 Q1428.81 1304.98 1428.81 1296.22 Q1428.81 1287.44 1433.14 1282.47 Q1437.5 1277.51 1445.17 1277.51 Z" fill="#000000" fill-rule="nonzero" fill-opacity="1" /><path clip-path="url(#clip350)" d="M1500.87 1292.5 L1500.87 1314.01 L1495.01 1314.01 L1495.01 1292.69 Q1495.01 1287.63 1493.04 1285.11 Q1491.07 1282.6 1487.12 1282.6 Q1482.38 1282.6 1479.64 1285.62 Q1476.9 1288.65 1476.9 1293.87 L1476.9 1314.01 L1471.01 1314.01 L1471.01 1278.37 L1476.9 1278.37 L1476.9 1283.9 Q1479 1280.69 1481.84 1279.1 Q1484.7 1277.51 1488.42 1277.51 Q1494.57 1277.51 1497.72 1281.33 Q1500.87 1285.11 1500.87 1292.5 Z" fill="#000000" fill-rule="nonzero" fill-opacity="1" /><path clip-path="url(#clip350)" d="M1535.28 1279.42 L1535.28 1284.96 Q1532.79 1283.68 1530.12 1283.05 Q1527.45 1282.41 1524.58 1282.41 Q1520.22 1282.41 1518.03 1283.75 Q1515.86 1285.08 1515.86 1287.76 Q1515.86 1289.79 1517.42 1290.97 Q1518.98 1292.12 1523.69 1293.17 L1525.7 1293.61 Q1531.93 1294.95 1534.54 1297.4 Q1537.19 1299.82 1537.19 1304.18 Q1537.19 1309.14 1533.24 1312.04 Q1529.32 1314.94 1522.45 1314.94 Q1519.59 1314.94 1516.47 1314.36 Q1513.38 1313.82 1509.94 1312.71 L1509.94 1306.66 Q1513.19 1308.35 1516.34 1309.21 Q1519.49 1310.04 1522.58 1310.04 Q1526.71 1310.04 1528.94 1308.64 Q1531.17 1307.2 1531.17 1304.63 Q1531.17 1302.24 1529.55 1300.97 Q1527.96 1299.69 1522.51 1298.51 L1520.48 1298.04 Q1515.03 1296.89 1512.61 1294.54 Q1510.2 1292.15 1510.2 1288.01 Q1510.2 1282.98 1513.76 1280.24 Q1517.33 1277.51 1523.88 1277.51 Q1527.13 1277.51 1529.99 1277.98 Q1532.86 1278.46 1535.28 1279.42 Z" fill="#000000" fill-rule="nonzero" fill-opacity="1" /><path clip-path="url(#clip350)" d="M1581.3 1264.55 Q1577.04 1271.87 1574.97 1279.04 Q1572.9 1286.2 1572.9 1293.55 Q1572.9 1300.9 1574.97 1308.13 Q1577.07 1315.32 1581.3 1322.61 L1576.21 1322.61 Q1571.43 1315.13 1569.05 1307.9 Q1566.69 1300.68 1566.69 1293.55 Q1566.69 1286.45 1569.05 1279.26 Q1571.4 1272.06 1576.21 1264.55 L1581.3 1264.55 Z" fill="#000000" fill-rule="nonzero" fill-opacity="1" /><path clip-path="url(#clip350)" d="M1620.42 1285.21 Q1622.61 1281.26 1625.67 1279.39 Q1628.73 1277.51 1632.86 1277.51 Q1638.43 1277.51 1641.46 1281.42 Q1644.48 1285.31 1644.48 1292.5 L1644.48 1314.01 L1638.59 1314.01 L1638.59 1292.69 Q1638.59 1287.57 1636.78 1285.08 Q1634.96 1282.6 1631.24 1282.6 Q1626.69 1282.6 1624.05 1285.62 Q1621.4 1288.65 1621.4 1293.87 L1621.4 1314.01 L1615.52 1314.01 L1615.52 1292.69 Q1615.52 1287.53 1613.7 1285.08 Q1611.89 1282.6 1608.1 1282.6 Q1603.61 1282.6 1600.97 1285.66 Q1598.33 1288.68 1598.33 1293.87 L1598.33 1314.01 L1592.44 1314.01 L1592.44 1278.37 L1598.33 1278.37 L1598.33 1283.9 Q1600.33 1280.63 1603.13 1279.07 Q1605.94 1277.51 1609.79 1277.51 Q1613.67 1277.51 1616.38 1279.48 Q1619.11 1281.45 1620.42 1285.21 Z" fill="#000000" fill-rule="nonzero" fill-opacity="1" /><path clip-path="url(#clip350)" d="M1679.62 1295.78 Q1679.62 1289.41 1676.98 1285.91 Q1674.37 1282.41 1669.62 1282.41 Q1664.91 1282.41 1662.27 1285.91 Q1659.66 1289.41 1659.66 1295.78 Q1659.66 1302.11 1662.27 1305.61 Q1664.91 1309.11 1669.62 1309.11 Q1674.37 1309.11 1676.98 1305.61 Q1679.62 1302.11 1679.62 1295.78 M1685.48 1309.59 Q1685.48 1318.69 1681.43 1323.12 Q1677.39 1327.57 1669.05 1327.57 Q1665.96 1327.57 1663.23 1327.1 Q1660.49 1326.65 1657.91 1325.7 L1657.91 1320 Q1660.49 1321.4 1663 1322.07 Q1665.52 1322.74 1668.13 1322.74 Q1673.89 1322.74 1676.75 1319.71 Q1679.62 1316.72 1679.62 1310.64 L1679.62 1307.74 Q1677.8 1310.9 1674.97 1312.46 Q1672.14 1314.01 1668.19 1314.01 Q1661.64 1314.01 1657.63 1309.02 Q1653.62 1304.02 1653.62 1295.78 Q1653.62 1287.5 1657.63 1282.5 Q1661.64 1277.51 1668.19 1277.51 Q1672.14 1277.51 1674.97 1279.07 Q1677.8 1280.63 1679.62 1283.78 L1679.62 1278.37 L1685.48 1278.37 L1685.48 1309.59 Z" fill="#000000" fill-rule="nonzero" fill-opacity="1" /><path clip-path="url(#clip350)" d="M1707.95 1266.49 L1713.36 1266.49 L1696.81 1320.06 L1691.4 1320.06 L1707.95 1266.49 Z" fill="#000000" fill-rule="nonzero" fill-opacity="1" /><path clip-path="url(#clip350)" d="M1719.75 1266.49 L1726.18 1266.49 L1726.18 1308.6 L1749.32 1308.6 L1749.32 1314.01 L1719.75 1314.01 L1719.75 1266.49 Z" fill="#000000" fill-rule="nonzero" fill-opacity="1" /><path clip-path="url(#clip350)" d="M1754.89 1264.55 L1759.99 1264.55 Q1764.76 1272.06 1767.12 1279.26 Q1769.5 1286.45 1769.5 1293.55 Q1769.5 1300.68 1767.12 1307.9 Q1764.76 1315.13 1759.99 1322.61 L1754.89 1322.61 Q1759.13 1315.32 1761.2 1308.13 Q1763.3 1300.9 1763.3 1293.55 Q1763.3 1286.2 1761.2 1279.04 Q1759.13 1271.87 1754.89 1264.55 Z" fill="#000000" fill-rule="nonzero" fill-opacity="1" /><polyline clip-path="url(#clip350)" style="stroke:#000000; stroke-linecap:round; stroke-linejoin:round; stroke-width:4; stroke-opacity:1; fill:none" points="229.085,1173.47 229.085,47.2441 "/>
<polyline clip-path="url(#clip350)" style="stroke:#000000; stroke-linecap:round; stroke-linejoin:round; stroke-width:4; stroke-opacity:1; fill:none" points="229.085,1173.47 247.983,1173.47 "/>
<polyline clip-path="url(#clip350)" style="stroke:#000000; stroke-linecap:round; stroke-linejoin:round; stroke-width:4; stroke-opacity:1; fill:none" points="229.085,884.695 247.983,884.695 "/>
<polyline clip-path="url(#clip350)" style="stroke:#000000; stroke-linecap:round; stroke-linejoin:round; stroke-width:4; stroke-opacity:1; fill:none" points="229.085,595.919 247.983,595.919 "/>
<polyline clip-path="url(#clip350)" style="stroke:#000000; stroke-linecap:round; stroke-linejoin:round; stroke-width:4; stroke-opacity:1; fill:none" points="229.085,307.143 247.983,307.143 "/>
<path clip-path="url(#clip350)" d="M185.461 1159.27 Q181.85 1159.27 180.021 1162.83 Q178.216 1166.38 178.216 1173.51 Q178.216 1180.61 180.021 1184.18 Q181.85 1187.72 185.461 1187.72 Q189.095 1187.72 190.901 1184.18 Q192.73 1180.61 192.73 1173.51 Q192.73 1166.38 190.901 1162.83 Q189.095 1159.27 185.461 1159.27 M185.461 1155.57 Q191.271 1155.57 194.327 1160.17 Q197.405 1164.76 197.405 1173.51 Q197.405 1182.23 194.327 1186.84 Q191.271 1191.42 185.461 1191.42 Q179.651 1191.42 176.572 1186.84 Q173.517 1182.23 173.517 1173.51 Q173.517 1164.76 176.572 1160.17 Q179.651 1155.57 185.461 1155.57 Z" fill="#000000" fill-rule="nonzero" fill-opacity="1" /><path clip-path="url(#clip350)" d="M115.948 898.04 L123.586 898.04 L123.586 871.674 L115.276 873.341 L115.276 869.081 L123.54 867.415 L128.216 867.415 L128.216 898.04 L135.855 898.04 L135.855 901.975 L115.948 901.975 L115.948 898.04 Z" fill="#000000" fill-rule="nonzero" fill-opacity="1" /><path clip-path="url(#clip350)" d="M155.299 870.493 Q151.688 870.493 149.859 874.058 Q148.054 877.6 148.054 884.729 Q148.054 891.836 149.859 895.401 Q151.688 898.942 155.299 898.942 Q158.933 898.942 160.739 895.401 Q162.568 891.836 162.568 884.729 Q162.568 877.6 160.739 874.058 Q158.933 870.493 155.299 870.493 M155.299 866.79 Q161.109 866.79 164.165 871.396 Q167.244 875.979 167.244 884.729 Q167.244 893.456 164.165 898.063 Q161.109 902.646 155.299 902.646 Q149.489 902.646 146.41 898.063 Q143.355 893.456 143.355 884.729 Q143.355 875.979 146.41 871.396 Q149.489 866.79 155.299 866.79 Z" fill="#000000" fill-rule="nonzero" fill-opacity="1" /><path clip-path="url(#clip350)" d="M185.461 870.493 Q181.85 870.493 180.021 874.058 Q178.216 877.6 178.216 884.729 Q178.216 891.836 180.021 895.401 Q181.85 898.942 185.461 898.942 Q189.095 898.942 190.901 895.401 Q192.73 891.836 192.73 884.729 Q192.73 877.6 190.901 874.058 Q189.095 870.493 185.461 870.493 M185.461 866.79 Q191.271 866.79 194.327 871.396 Q197.405 875.979 197.405 884.729 Q197.405 893.456 194.327 898.063 Q191.271 902.646 185.461 902.646 Q179.651 902.646 176.572 898.063 Q173.517 893.456 173.517 884.729 Q173.517 875.979 176.572 871.396 Q179.651 866.79 185.461 866.79 Z" fill="#000000" fill-rule="nonzero" fill-opacity="1" /><path clip-path="url(#clip350)" d="M119.165 609.263 L135.484 609.263 L135.484 613.199 L113.54 613.199 L113.54 609.263 Q116.202 606.509 120.785 601.879 Q125.392 597.226 126.572 595.884 Q128.818 593.361 129.697 591.625 Q130.6 589.865 130.6 588.176 Q130.6 585.421 128.656 583.685 Q126.735 581.949 123.633 581.949 Q121.434 581.949 118.98 582.713 Q116.549 583.477 113.772 585.027 L113.772 580.305 Q116.596 579.171 119.049 578.592 Q121.503 578.014 123.54 578.014 Q128.91 578.014 132.105 580.699 Q135.299 583.384 135.299 587.875 Q135.299 590.004 134.489 591.926 Q133.702 593.824 131.596 596.416 Q131.017 597.088 127.915 600.305 Q124.813 603.5 119.165 609.263 Z" fill="#000000" fill-rule="nonzero" fill-opacity="1" /><path clip-path="url(#clip350)" d="M155.299 581.717 Q151.688 581.717 149.859 585.282 Q148.054 588.824 148.054 595.953 Q148.054 603.06 149.859 606.625 Q151.688 610.166 155.299 610.166 Q158.933 610.166 160.739 606.625 Q162.568 603.06 162.568 595.953 Q162.568 588.824 160.739 585.282 Q158.933 581.717 155.299 581.717 M155.299 578.014 Q161.109 578.014 164.165 582.62 Q167.244 587.203 167.244 595.953 Q167.244 604.68 164.165 609.287 Q161.109 613.87 155.299 613.87 Q149.489 613.87 146.41 609.287 Q143.355 604.68 143.355 595.953 Q143.355 587.203 146.41 582.62 Q149.489 578.014 155.299 578.014 Z" fill="#000000" fill-rule="nonzero" fill-opacity="1" /><path clip-path="url(#clip350)" d="M185.461 581.717 Q181.85 581.717 180.021 585.282 Q178.216 588.824 178.216 595.953 Q178.216 603.06 180.021 606.625 Q181.85 610.166 185.461 610.166 Q189.095 610.166 190.901 606.625 Q192.73 603.06 192.73 595.953 Q192.73 588.824 190.901 585.282 Q189.095 581.717 185.461 581.717 M185.461 578.014 Q191.271 578.014 194.327 582.62 Q197.405 587.203 197.405 595.953 Q197.405 604.68 194.327 609.287 Q191.271 613.87 185.461 613.87 Q179.651 613.87 176.572 609.287 Q173.517 604.68 173.517 595.953 Q173.517 587.203 176.572 582.62 Q179.651 578.014 185.461 578.014 Z" fill="#000000" fill-rule="nonzero" fill-opacity="1" /><path clip-path="url(#clip350)" d="M129.304 305.788 Q132.66 306.506 134.535 308.774 Q136.434 311.043 136.434 314.376 Q136.434 319.492 132.915 322.293 Q129.397 325.094 122.915 325.094 Q120.739 325.094 118.424 324.654 Q116.133 324.237 113.679 323.381 L113.679 318.867 Q115.623 320.001 117.938 320.58 Q120.253 321.159 122.776 321.159 Q127.174 321.159 129.466 319.423 Q131.781 317.686 131.781 314.376 Q131.781 311.321 129.628 309.608 Q127.498 307.872 123.679 307.872 L119.651 307.872 L119.651 304.029 L123.864 304.029 Q127.313 304.029 129.142 302.663 Q130.971 301.275 130.971 298.682 Q130.971 296.02 129.072 294.608 Q127.197 293.173 123.679 293.173 Q121.758 293.173 119.559 293.589 Q117.36 294.006 114.721 294.886 L114.721 290.719 Q117.383 289.978 119.698 289.608 Q122.035 289.238 124.096 289.238 Q129.42 289.238 132.522 291.668 Q135.623 294.075 135.623 298.196 Q135.623 301.066 133.98 303.057 Q132.336 305.025 129.304 305.788 Z" fill="#000000" fill-rule="nonzero" fill-opacity="1" /><path clip-path="url(#clip350)" d="M155.299 292.941 Q151.688 292.941 149.859 296.506 Q148.054 300.048 148.054 307.177 Q148.054 314.284 149.859 317.849 Q151.688 321.39 155.299 321.39 Q158.933 321.39 160.739 317.849 Q162.568 314.284 162.568 307.177 Q162.568 300.048 160.739 296.506 Q158.933 292.941 155.299 292.941 M155.299 289.238 Q161.109 289.238 164.165 293.844 Q167.244 298.427 167.244 307.177 Q167.244 315.904 164.165 320.511 Q161.109 325.094 155.299 325.094 Q149.489 325.094 146.41 320.511 Q143.355 315.904 143.355 307.177 Q143.355 298.427 146.41 293.844 Q149.489 289.238 155.299 289.238 Z" fill="#000000" fill-rule="nonzero" fill-opacity="1" /><path clip-path="url(#clip350)" d="M185.461 292.941 Q181.85 292.941 180.021 296.506 Q178.216 300.048 178.216 307.177 Q178.216 314.284 180.021 317.849 Q181.85 321.39 185.461 321.39 Q189.095 321.39 190.901 317.849 Q192.73 314.284 192.73 307.177 Q192.73 300.048 190.901 296.506 Q189.095 292.941 185.461 292.941 M185.461 289.238 Q191.271 289.238 194.327 293.844 Q197.405 298.427 197.405 307.177 Q197.405 315.904 194.327 320.511 Q191.271 325.094 185.461 325.094 Q179.651 325.094 176.572 320.511 Q173.517 315.904 173.517 307.177 Q173.517 298.427 176.572 293.844 Q179.651 289.238 185.461 289.238 Z" fill="#000000" fill-rule="nonzero" fill-opacity="1" /><path clip-path="url(#clip350)" d="M23.7444 666.216 L30.5239 666.216 Q27.5002 669.463 26.0043 673.155 Q24.5083 676.815 24.5083 680.953 Q24.5083 689.101 29.5054 693.43 Q34.4707 697.759 43.8919 697.759 Q53.2813 697.759 58.2784 693.43 Q63.2436 689.101 63.2436 680.953 Q63.2436 676.815 61.7477 673.155 Q60.2518 669.463 57.2281 666.216 L63.9439 666.216 Q66.2355 669.59 67.3814 673.378 Q68.5272 677.134 68.5272 681.335 Q68.5272 692.125 61.9387 698.331 Q55.3183 704.538 43.8919 704.538 Q32.4336 704.538 25.8451 698.331 Q19.2248 692.125 19.2248 681.335 Q19.2248 677.07 20.3706 673.314 Q21.4846 669.527 23.7444 666.216 Z" fill="#000000" fill-rule="nonzero" fill-opacity="1" /><path clip-path="url(#clip350)" d="M36.0621 642.727 Q36.0621 647.438 39.7542 650.175 Q43.4145 652.912 49.812 652.912 Q56.2095 652.912 59.9017 650.207 Q63.5619 647.469 63.5619 642.727 Q63.5619 638.048 59.8698 635.311 Q56.1777 632.574 49.812 632.574 Q43.4781 632.574 39.786 635.311 Q36.0621 638.048 36.0621 642.727 M31.0968 642.727 Q31.0968 635.088 36.0621 630.728 Q41.0273 626.367 49.812 626.367 Q58.5649 626.367 63.5619 630.728 Q68.5272 635.088 68.5272 642.727 Q68.5272 650.398 63.5619 654.758 Q58.5649 659.087 49.812 659.087 Q41.0273 659.087 36.0621 654.758 Q31.0968 650.398 31.0968 642.727 Z" fill="#000000" fill-rule="nonzero" fill-opacity="1" /><path clip-path="url(#clip350)" d="M53.5359 617.264 L31.9562 617.264 L31.9562 611.408 L53.3131 611.408 Q58.3739 611.408 60.9202 609.434 Q63.4346 607.461 63.4346 603.514 Q63.4346 598.772 60.4109 596.035 Q57.3872 593.266 52.1673 593.266 L31.9562 593.266 L31.9562 587.409 L67.6042 587.409 L67.6042 593.266 L62.1296 593.266 Q65.3762 595.398 66.9676 598.231 Q68.5272 601.032 68.5272 604.756 Q68.5272 610.899 64.7078 614.081 Q60.8883 617.264 53.5359 617.264 M31.0968 602.528 L31.0968 602.528 Z" fill="#000000" fill-rule="nonzero" fill-opacity="1" /><path clip-path="url(#clip350)" d="M46.0881 545.714 L67.6042 545.714 L67.6042 551.57 L46.279 551.57 Q41.2183 551.57 38.7038 553.543 Q36.1894 555.517 36.1894 559.464 Q36.1894 564.206 39.2131 566.943 Q42.2368 569.681 47.4567 569.681 L67.6042 569.681 L67.6042 575.569 L31.9562 575.569 L31.9562 569.681 L37.4944 569.681 Q34.2797 567.58 32.6883 564.747 Q31.0968 561.883 31.0968 558.159 Q31.0968 552.016 34.9163 548.865 Q38.7038 545.714 46.0881 545.714 Z" fill="#000000" fill-rule="nonzero" fill-opacity="1" /><path clip-path="url(#clip350)" d="M21.8347 528.24 L31.9562 528.24 L31.9562 516.177 L36.5077 516.177 L36.5077 528.24 L55.8594 528.24 Q60.2199 528.24 61.4613 527.062 Q62.7026 525.853 62.7026 522.192 L62.7026 516.177 L67.6042 516.177 L67.6042 522.192 Q67.6042 528.972 65.0897 531.55 Q62.5434 534.128 55.8594 534.128 L36.5077 534.128 L36.5077 538.425 L31.9562 538.425 L31.9562 534.128 L21.8347 534.128 L21.8347 528.24 Z" fill="#000000" fill-rule="nonzero" fill-opacity="1" /><path clip-path="url(#clip352)" d="M330.051 1170.58 L330.051 1173.47 L364.087 1173.47 L364.087 1170.58 L330.051 1170.58 L330.051 1170.58  Z" fill="#009af9" fill-rule="evenodd" fill-opacity="1"/>
<polyline clip-path="url(#clip352)" style="stroke:#000000; stroke-linecap:round; stroke-linejoin:round; stroke-width:4; stroke-opacity:1; fill:none" points="330.051,1170.58 330.051,1173.47 364.087,1173.47 364.087,1170.58 330.051,1170.58 "/>
<path clip-path="url(#clip352)" d="M364.087 1170.58 L364.087 1173.47 L398.123 1173.47 L398.123 1170.58 L364.087 1170.58 L364.087 1170.58  Z" fill="#009af9" fill-rule="evenodd" fill-opacity="1"/>
<polyline clip-path="url(#clip352)" style="stroke:#000000; stroke-linecap:round; stroke-linejoin:round; stroke-width:4; stroke-opacity:1; fill:none" points="364.087,1170.58 364.087,1173.47 398.123,1173.47 398.123,1170.58 364.087,1170.58 "/>
<path clip-path="url(#clip352)" d="M398.123 1167.7 L398.123 1173.47 L432.159 1173.47 L432.159 1167.7 L398.123 1167.7 L398.123 1167.7  Z" fill="#009af9" fill-rule="evenodd" fill-opacity="1"/>
<polyline clip-path="url(#clip352)" style="stroke:#000000; stroke-linecap:round; stroke-linejoin:round; stroke-width:4; stroke-opacity:1; fill:none" points="398.123,1167.7 398.123,1173.47 432.159,1173.47 432.159,1167.7 398.123,1167.7 "/>
<path clip-path="url(#clip352)" d="M432.159 1164.81 L432.159 1173.47 L466.196 1173.47 L466.196 1164.81 L432.159 1164.81 L432.159 1164.81  Z" fill="#009af9" fill-rule="evenodd" fill-opacity="1"/>
<polyline clip-path="url(#clip352)" style="stroke:#000000; stroke-linecap:round; stroke-linejoin:round; stroke-width:4; stroke-opacity:1; fill:none" points="432.159,1164.81 432.159,1173.47 466.196,1173.47 466.196,1164.81 432.159,1164.81 "/>
<path clip-path="url(#clip352)" d="M466.196 1124.38 L466.196 1173.47 L500.232 1173.47 L500.232 1124.38 L466.196 1124.38 L466.196 1124.38  Z" fill="#009af9" fill-rule="evenodd" fill-opacity="1"/>
<polyline clip-path="url(#clip352)" style="stroke:#000000; stroke-linecap:round; stroke-linejoin:round; stroke-width:4; stroke-opacity:1; fill:none" points="466.196,1124.38 466.196,1173.47 500.232,1173.47 500.232,1124.38 466.196,1124.38 "/>
<path clip-path="url(#clip352)" d="M500.232 1095.5 L500.232 1173.47 L534.268 1173.47 L534.268 1095.5 L500.232 1095.5 L500.232 1095.5  Z" fill="#009af9" fill-rule="evenodd" fill-opacity="1"/>
<polyline clip-path="url(#clip352)" style="stroke:#000000; stroke-linecap:round; stroke-linejoin:round; stroke-width:4; stroke-opacity:1; fill:none" points="500.232,1095.5 500.232,1173.47 534.268,1173.47 534.268,1095.5 500.232,1095.5 "/>
<path clip-path="url(#clip352)" d="M534.268 1046.41 L534.268 1173.47 L568.304 1173.47 L568.304 1046.41 L534.268 1046.41 L534.268 1046.41  Z" fill="#009af9" fill-rule="evenodd" fill-opacity="1"/>
<polyline clip-path="url(#clip352)" style="stroke:#000000; stroke-linecap:round; stroke-linejoin:round; stroke-width:4; stroke-opacity:1; fill:none" points="534.268,1046.41 534.268,1173.47 568.304,1173.47 568.304,1046.41 534.268,1046.41 "/>
<path clip-path="url(#clip352)" d="M568.304 997.317 L568.304 1173.47 L602.341 1173.47 L602.341 997.317 L568.304 997.317 L568.304 997.317  Z" fill="#009af9" fill-rule="evenodd" fill-opacity="1"/>
<polyline clip-path="url(#clip352)" style="stroke:#000000; stroke-linecap:round; stroke-linejoin:round; stroke-width:4; stroke-opacity:1; fill:none" points="568.304,997.317 568.304,1173.47 602.341,1173.47 602.341,997.317 568.304,997.317 "/>
<path clip-path="url(#clip352)" d="M602.341 904.909 L602.341 1173.47 L636.377 1173.47 L636.377 904.909 L602.341 904.909 L602.341 904.909  Z" fill="#009af9" fill-rule="evenodd" fill-opacity="1"/>
<polyline clip-path="url(#clip352)" style="stroke:#000000; stroke-linecap:round; stroke-linejoin:round; stroke-width:4; stroke-opacity:1; fill:none" points="602.341,904.909 602.341,1173.47 636.377,1173.47 636.377,904.909 602.341,904.909 "/>
<path clip-path="url(#clip352)" d="M636.377 699.878 L636.377 1173.47 L670.413 1173.47 L670.413 699.878 L636.377 699.878 L636.377 699.878  Z" fill="#009af9" fill-rule="evenodd" fill-opacity="1"/>
<polyline clip-path="url(#clip352)" style="stroke:#000000; stroke-linecap:round; stroke-linejoin:round; stroke-width:4; stroke-opacity:1; fill:none" points="636.377,699.878 636.377,1173.47 670.413,1173.47 670.413,699.878 636.377,699.878 "/>
<path clip-path="url(#clip352)" d="M670.413 595.919 L670.413 1173.47 L704.449 1173.47 L704.449 595.919 L670.413 595.919 L670.413 595.919  Z" fill="#009af9" fill-rule="evenodd" fill-opacity="1"/>
<polyline clip-path="url(#clip352)" style="stroke:#000000; stroke-linecap:round; stroke-linejoin:round; stroke-width:4; stroke-opacity:1; fill:none" points="670.413,595.919 670.413,1173.47 704.449,1173.47 704.449,595.919 670.413,595.919 "/>
<path clip-path="url(#clip352)" d="M704.449 506.398 L704.449 1173.47 L738.486 1173.47 L738.486 506.398 L704.449 506.398 L704.449 506.398  Z" fill="#009af9" fill-rule="evenodd" fill-opacity="1"/>
<polyline clip-path="url(#clip352)" style="stroke:#000000; stroke-linecap:round; stroke-linejoin:round; stroke-width:4; stroke-opacity:1; fill:none" points="704.449,506.398 704.449,1173.47 738.486,1173.47 738.486,506.398 704.449,506.398 "/>
<path clip-path="url(#clip352)" d="M738.486 364.898 L738.486 1173.47 L772.522 1173.47 L772.522 364.898 L738.486 364.898 L738.486 364.898  Z" fill="#009af9" fill-rule="evenodd" fill-opacity="1"/>
<polyline clip-path="url(#clip352)" style="stroke:#000000; stroke-linecap:round; stroke-linejoin:round; stroke-width:4; stroke-opacity:1; fill:none" points="738.486,364.898 738.486,1173.47 772.522,1173.47 772.522,364.898 738.486,364.898 "/>
<path clip-path="url(#clip352)" d="M772.522 240.724 L772.522 1173.47 L806.558 1173.47 L806.558 240.724 L772.522 240.724 L772.522 240.724  Z" fill="#009af9" fill-rule="evenodd" fill-opacity="1"/>
<polyline clip-path="url(#clip352)" style="stroke:#000000; stroke-linecap:round; stroke-linejoin:round; stroke-width:4; stroke-opacity:1; fill:none" points="772.522,240.724 772.522,1173.47 806.558,1173.47 806.558,240.724 772.522,240.724 "/>
<path clip-path="url(#clip352)" d="M806.558 165.642 L806.558 1173.47 L840.594 1173.47 L840.594 165.642 L806.558 165.642 L806.558 165.642  Z" fill="#009af9" fill-rule="evenodd" fill-opacity="1"/>
<polyline clip-path="url(#clip352)" style="stroke:#000000; stroke-linecap:round; stroke-linejoin:round; stroke-width:4; stroke-opacity:1; fill:none" points="806.558,165.642 806.558,1173.47 840.594,1173.47 840.594,165.642 806.558,165.642 "/>
<path clip-path="url(#clip352)" d="M840.594 165.642 L840.594 1173.47 L874.631 1173.47 L874.631 165.642 L840.594 165.642 L840.594 165.642  Z" fill="#009af9" fill-rule="evenodd" fill-opacity="1"/>
<polyline clip-path="url(#clip352)" style="stroke:#000000; stroke-linecap:round; stroke-linejoin:round; stroke-width:4; stroke-opacity:1; fill:none" points="840.594,165.642 840.594,1173.47 874.631,1173.47 874.631,165.642 840.594,165.642 "/>
<path clip-path="url(#clip352)" d="M874.631 47.2441 L874.631 1173.47 L908.667 1173.47 L908.667 47.2441 L874.631 47.2441 L874.631 47.2441  Z" fill="#009af9" fill-rule="evenodd" fill-opacity="1"/>
<polyline clip-path="url(#clip352)" style="stroke:#000000; stroke-linecap:round; stroke-linejoin:round; stroke-width:4; stroke-opacity:1; fill:none" points="874.631,47.2441 874.631,1173.47 908.667,1173.47 908.667,47.2441 874.631,47.2441 "/>
<path clip-path="url(#clip352)" d="M908.667 136.765 L908.667 1173.47 L942.703 1173.47 L942.703 136.765 L908.667 136.765 L908.667 136.765  Z" fill="#009af9" fill-rule="evenodd" fill-opacity="1"/>
<polyline clip-path="url(#clip352)" style="stroke:#000000; stroke-linecap:round; stroke-linejoin:round; stroke-width:4; stroke-opacity:1; fill:none" points="908.667,136.765 908.667,1173.47 942.703,1173.47 942.703,136.765 908.667,136.765 "/>
<path clip-path="url(#clip352)" d="M942.703 229.173 L942.703 1173.47 L976.739 1173.47 L976.739 229.173 L942.703 229.173 L942.703 229.173  Z" fill="#009af9" fill-rule="evenodd" fill-opacity="1"/>
<polyline clip-path="url(#clip352)" style="stroke:#000000; stroke-linecap:round; stroke-linejoin:round; stroke-width:4; stroke-opacity:1; fill:none" points="942.703,229.173 942.703,1173.47 976.739,1173.47 976.739,229.173 942.703,229.173 "/>
<path clip-path="url(#clip352)" d="M976.739 260.938 L976.739 1173.47 L1010.78 1173.47 L1010.78 260.938 L976.739 260.938 L976.739 260.938  Z" fill="#009af9" fill-rule="evenodd" fill-opacity="1"/>
<polyline clip-path="url(#clip352)" style="stroke:#000000; stroke-linecap:round; stroke-linejoin:round; stroke-width:4; stroke-opacity:1; fill:none" points="976.739,260.938 976.739,1173.47 1010.78,1173.47 1010.78,260.938 976.739,260.938 "/>
<path clip-path="url(#clip352)" d="M1010.78 465.969 L1010.78 1173.47 L1044.81 1173.47 L1044.81 465.969 L1010.78 465.969 L1010.78 465.969  Z" fill="#009af9" fill-rule="evenodd" fill-opacity="1"/>
<polyline clip-path="url(#clip352)" style="stroke:#000000; stroke-linecap:round; stroke-linejoin:round; stroke-width:4; stroke-opacity:1; fill:none" points="1010.78,465.969 1010.78,1173.47 1044.81,1173.47 1044.81,465.969 1010.78,465.969 "/>
<path clip-path="url(#clip352)" d="M1044.81 477.52 L1044.81 1173.47 L1078.85 1173.47 L1078.85 477.52 L1044.81 477.52 L1044.81 477.52  Z" fill="#009af9" fill-rule="evenodd" fill-opacity="1"/>
<polyline clip-path="url(#clip352)" style="stroke:#000000; stroke-linecap:round; stroke-linejoin:round; stroke-width:4; stroke-opacity:1; fill:none" points="1044.81,477.52 1044.81,1173.47 1078.85,1173.47 1078.85,477.52 1044.81,477.52 "/>
<path clip-path="url(#clip352)" d="M1078.85 607.47 L1078.85 1173.47 L1112.88 1173.47 L1112.88 607.47 L1078.85 607.47 L1078.85 607.47  Z" fill="#009af9" fill-rule="evenodd" fill-opacity="1"/>
<polyline clip-path="url(#clip352)" style="stroke:#000000; stroke-linecap:round; stroke-linejoin:round; stroke-width:4; stroke-opacity:1; fill:none" points="1078.85,607.47 1078.85,1173.47 1112.88,1173.47 1112.88,607.47 1078.85,607.47 "/>
<path clip-path="url(#clip352)" d="M1112.88 673.888 L1112.88 1173.47 L1146.92 1173.47 L1146.92 673.888 L1112.88 673.888 L1112.88 673.888  Z" fill="#009af9" fill-rule="evenodd" fill-opacity="1"/>
<polyline clip-path="url(#clip352)" style="stroke:#000000; stroke-linecap:round; stroke-linejoin:round; stroke-width:4; stroke-opacity:1; fill:none" points="1112.88,673.888 1112.88,1173.47 1146.92,1173.47 1146.92,673.888 1112.88,673.888 "/>
<path clip-path="url(#clip352)" d="M1146.92 800.95 L1146.92 1173.47 L1180.96 1173.47 L1180.96 800.95 L1146.92 800.95 L1146.92 800.95  Z" fill="#009af9" fill-rule="evenodd" fill-opacity="1"/>
<polyline clip-path="url(#clip352)" style="stroke:#000000; stroke-linecap:round; stroke-linejoin:round; stroke-width:4; stroke-opacity:1; fill:none" points="1146.92,800.95 1146.92,1173.47 1180.96,1173.47 1180.96,800.95 1146.92,800.95 "/>
<path clip-path="url(#clip352)" d="M1180.96 899.133 L1180.96 1173.47 L1214.99 1173.47 L1214.99 899.133 L1180.96 899.133 L1180.96 899.133  Z" fill="#009af9" fill-rule="evenodd" fill-opacity="1"/>
<polyline clip-path="url(#clip352)" style="stroke:#000000; stroke-linecap:round; stroke-linejoin:round; stroke-width:4; stroke-opacity:1; fill:none" points="1180.96,899.133 1180.96,1173.47 1214.99,1173.47 1214.99,899.133 1180.96,899.133 "/>
<path clip-path="url(#clip352)" d="M1214.99 893.358 L1214.99 1173.47 L1249.03 1173.47 L1249.03 893.358 L1214.99 893.358 L1214.99 893.358  Z" fill="#009af9" fill-rule="evenodd" fill-opacity="1"/>
<polyline clip-path="url(#clip352)" style="stroke:#000000; stroke-linecap:round; stroke-linejoin:round; stroke-width:4; stroke-opacity:1; fill:none" points="1214.99,893.358 1214.99,1173.47 1249.03,1173.47 1249.03,893.358 1214.99,893.358 "/>
<path clip-path="url(#clip352)" d="M1249.03 916.46 L1249.03 1173.47 L1283.07 1173.47 L1283.07 916.46 L1249.03 916.46 L1249.03 916.46  Z" fill="#009af9" fill-rule="evenodd" fill-opacity="1"/>
<polyline clip-path="url(#clip352)" style="stroke:#000000; stroke-linecap:round; stroke-linejoin:round; stroke-width:4; stroke-opacity:1; fill:none" points="1249.03,916.46 1249.03,1173.47 1283.07,1173.47 1283.07,916.46 1249.03,916.46 "/>
<path clip-path="url(#clip352)" d="M1283.07 1049.3 L1283.07 1173.47 L1317.1 1173.47 L1317.1 1049.3 L1283.07 1049.3 L1283.07 1049.3  Z" fill="#009af9" fill-rule="evenodd" fill-opacity="1"/>
<polyline clip-path="url(#clip352)" style="stroke:#000000; stroke-linecap:round; stroke-linejoin:round; stroke-width:4; stroke-opacity:1; fill:none" points="1283.07,1049.3 1283.07,1173.47 1317.1,1173.47 1317.1,1049.3 1283.07,1049.3 "/>
<path clip-path="url(#clip352)" d="M1317.1 1037.75 L1317.1 1173.47 L1351.14 1173.47 L1351.14 1037.75 L1317.1 1037.75 L1317.1 1037.75  Z" fill="#009af9" fill-rule="evenodd" fill-opacity="1"/>
<polyline clip-path="url(#clip352)" style="stroke:#000000; stroke-linecap:round; stroke-linejoin:round; stroke-width:4; stroke-opacity:1; fill:none" points="1317.1,1037.75 1317.1,1173.47 1351.14,1173.47 1351.14,1037.75 1317.1,1037.75 "/>
<path clip-path="url(#clip352)" d="M1351.14 1112.83 L1351.14 1173.47 L1385.17 1173.47 L1385.17 1112.83 L1351.14 1112.83 L1351.14 1112.83  Z" fill="#009af9" fill-rule="evenodd" fill-opacity="1"/>
<polyline clip-path="url(#clip352)" style="stroke:#000000; stroke-linecap:round; stroke-linejoin:round; stroke-width:4; stroke-opacity:1; fill:none" points="1351.14,1112.83 1351.14,1173.47 1385.17,1173.47 1385.17,1112.83 1351.14,1112.83 "/>
<path clip-path="url(#clip352)" d="M1385.17 1118.6 L1385.17 1173.47 L1419.21 1173.47 L1419.21 1118.6 L1385.17 1118.6 L1385.17 1118.6  Z" fill="#009af9" fill-rule="evenodd" fill-opacity="1"/>
<polyline clip-path="url(#clip352)" style="stroke:#000000; stroke-linecap:round; stroke-linejoin:round; stroke-width:4; stroke-opacity:1; fill:none" points="1385.17,1118.6 1385.17,1173.47 1419.21,1173.47 1419.21,1118.6 1385.17,1118.6 "/>
<path clip-path="url(#clip352)" d="M1419.21 1121.49 L1419.21 1173.47 L1453.25 1173.47 L1453.25 1121.49 L1419.21 1121.49 L1419.21 1121.49  Z" fill="#009af9" fill-rule="evenodd" fill-opacity="1"/>
<polyline clip-path="url(#clip352)" style="stroke:#000000; stroke-linecap:round; stroke-linejoin:round; stroke-width:4; stroke-opacity:1; fill:none" points="1419.21,1121.49 1419.21,1173.47 1453.25,1173.47 1453.25,1121.49 1419.21,1121.49 "/>
<path clip-path="url(#clip352)" d="M1453.25 1130.15 L1453.25 1173.47 L1487.28 1173.47 L1487.28 1130.15 L1453.25 1130.15 L1453.25 1130.15  Z" fill="#009af9" fill-rule="evenodd" fill-opacity="1"/>
<polyline clip-path="url(#clip352)" style="stroke:#000000; stroke-linecap:round; stroke-linejoin:round; stroke-width:4; stroke-opacity:1; fill:none" points="1453.25,1130.15 1453.25,1173.47 1487.28,1173.47 1487.28,1130.15 1453.25,1130.15 "/>
<path clip-path="url(#clip352)" d="M1487.28 1135.93 L1487.28 1173.47 L1521.32 1173.47 L1521.32 1135.93 L1487.28 1135.93 L1487.28 1135.93  Z" fill="#009af9" fill-rule="evenodd" fill-opacity="1"/>
<polyline clip-path="url(#clip352)" style="stroke:#000000; stroke-linecap:round; stroke-linejoin:round; stroke-width:4; stroke-opacity:1; fill:none" points="1487.28,1135.93 1487.28,1173.47 1521.32,1173.47 1521.32,1135.93 1487.28,1135.93 "/>
<path clip-path="url(#clip352)" d="M1521.32 1161.92 L1521.32 1173.47 L1555.36 1173.47 L1555.36 1161.92 L1521.32 1161.92 L1521.32 1161.92  Z" fill="#009af9" fill-rule="evenodd" fill-opacity="1"/>
<polyline clip-path="url(#clip352)" style="stroke:#000000; stroke-linecap:round; stroke-linejoin:round; stroke-width:4; stroke-opacity:1; fill:none" points="1521.32,1161.92 1521.32,1173.47 1555.36,1173.47 1555.36,1161.92 1521.32,1161.92 "/>
<path clip-path="url(#clip352)" d="M1555.36 1161.92 L1555.36 1173.47 L1589.39 1173.47 L1589.39 1161.92 L1555.36 1161.92 L1555.36 1161.92  Z" fill="#009af9" fill-rule="evenodd" fill-opacity="1"/>
<polyline clip-path="url(#clip352)" style="stroke:#000000; stroke-linecap:round; stroke-linejoin:round; stroke-width:4; stroke-opacity:1; fill:none" points="1555.36,1161.92 1555.36,1173.47 1589.39,1173.47 1589.39,1161.92 1555.36,1161.92 "/>
<path clip-path="url(#clip352)" d="M1589.39 1161.92 L1589.39 1173.47 L1623.43 1173.47 L1623.43 1161.92 L1589.39 1161.92 L1589.39 1161.92  Z" fill="#009af9" fill-rule="evenodd" fill-opacity="1"/>
<polyline clip-path="url(#clip352)" style="stroke:#000000; stroke-linecap:round; stroke-linejoin:round; stroke-width:4; stroke-opacity:1; fill:none" points="1589.39,1161.92 1589.39,1173.47 1623.43,1173.47 1623.43,1161.92 1589.39,1161.92 "/>
<path clip-path="url(#clip352)" d="M1623.43 1161.92 L1623.43 1173.47 L1657.46 1173.47 L1657.46 1161.92 L1623.43 1161.92 L1623.43 1161.92  Z" fill="#009af9" fill-rule="evenodd" fill-opacity="1"/>
<polyline clip-path="url(#clip352)" style="stroke:#000000; stroke-linecap:round; stroke-linejoin:round; stroke-width:4; stroke-opacity:1; fill:none" points="1623.43,1161.92 1623.43,1173.47 1657.46,1173.47 1657.46,1161.92 1623.43,1161.92 "/>
<path clip-path="url(#clip352)" d="M1657.46 1173.47 L1657.46 1173.47 L1691.5 1173.47 L1691.5 1173.47 L1657.46 1173.47 L1657.46 1173.47  Z" fill="#009af9" fill-rule="evenodd" fill-opacity="1"/>
<polyline clip-path="url(#clip352)" style="stroke:#000000; stroke-linecap:round; stroke-linejoin:round; stroke-width:4; stroke-opacity:1; fill:none" points="1657.46,1173.47 1657.46,1173.47 1691.5,1173.47 1657.46,1173.47 "/>
<path clip-path="url(#clip352)" d="M1691.5 1170.58 L1691.5 1173.47 L1725.54 1173.47 L1725.54 1170.58 L1691.5 1170.58 L1691.5 1170.58  Z" fill="#009af9" fill-rule="evenodd" fill-opacity="1"/>
<polyline clip-path="url(#clip352)" style="stroke:#000000; stroke-linecap:round; stroke-linejoin:round; stroke-width:4; stroke-opacity:1; fill:none" points="1691.5,1170.58 1691.5,1173.47 1725.54,1173.47 1725.54,1170.58 1691.5,1170.58 "/>
<path clip-path="url(#clip352)" d="M1725.54 1170.58 L1725.54 1173.47 L1759.57 1173.47 L1759.57 1170.58 L1725.54 1170.58 L1725.54 1170.58  Z" fill="#009af9" fill-rule="evenodd" fill-opacity="1"/>
<polyline clip-path="url(#clip352)" style="stroke:#000000; stroke-linecap:round; stroke-linejoin:round; stroke-width:4; stroke-opacity:1; fill:none" points="1725.54,1170.58 1725.54,1173.47 1759.57,1173.47 1759.57,1170.58 1725.54,1170.58 "/>
<path clip-path="url(#clip352)" d="M1759.57 1170.58 L1759.57 1173.47 L1793.61 1173.47 L1793.61 1170.58 L1759.57 1170.58 L1759.57 1170.58  Z" fill="#009af9" fill-rule="evenodd" fill-opacity="1"/>
<polyline clip-path="url(#clip352)" style="stroke:#000000; stroke-linecap:round; stroke-linejoin:round; stroke-width:4; stroke-opacity:1; fill:none" points="1759.57,1170.58 1759.57,1173.47 1793.61,1173.47 1793.61,1170.58 1759.57,1170.58 "/>
<path clip-path="url(#clip352)" d="M1793.61 1167.7 L1793.61 1173.47 L1827.65 1173.47 L1827.65 1167.7 L1793.61 1167.7 L1793.61 1167.7  Z" fill="#009af9" fill-rule="evenodd" fill-opacity="1"/>
<polyline clip-path="url(#clip352)" style="stroke:#000000; stroke-linecap:round; stroke-linejoin:round; stroke-width:4; stroke-opacity:1; fill:none" points="1793.61,1167.7 1793.61,1173.47 1827.65,1173.47 1827.65,1167.7 1793.61,1167.7 "/>
<path clip-path="url(#clip352)" d="M1827.65 1173.47 L1827.65 1173.47 L1861.68 1173.47 L1861.68 1173.47 L1827.65 1173.47 L1827.65 1173.47  Z" fill="#009af9" fill-rule="evenodd" fill-opacity="1"/>
<polyline clip-path="url(#clip352)" style="stroke:#000000; stroke-linecap:round; stroke-linejoin:round; stroke-width:4; stroke-opacity:1; fill:none" points="1827.65,1173.47 1827.65,1173.47 1861.68,1173.47 1827.65,1173.47 "/>
<path clip-path="url(#clip352)" d="M1861.68 1173.47 L1861.68 1173.47 L1895.72 1173.47 L1895.72 1173.47 L1861.68 1173.47 L1861.68 1173.47  Z" fill="#009af9" fill-rule="evenodd" fill-opacity="1"/>
<polyline clip-path="url(#clip352)" style="stroke:#000000; stroke-linecap:round; stroke-linejoin:round; stroke-width:4; stroke-opacity:1; fill:none" points="1861.68,1173.47 1861.68,1173.47 1895.72,1173.47 1861.68,1173.47 "/>
<path clip-path="url(#clip352)" d="M1895.72 1173.47 L1895.72 1173.47 L1929.75 1173.47 L1929.75 1173.47 L1895.72 1173.47 L1895.72 1173.47  Z" fill="#009af9" fill-rule="evenodd" fill-opacity="1"/>
<polyline clip-path="url(#clip352)" style="stroke:#000000; stroke-linecap:round; stroke-linejoin:round; stroke-width:4; stroke-opacity:1; fill:none" points="1895.72,1173.47 1895.72,1173.47 1929.75,1173.47 1895.72,1173.47 "/>
<path clip-path="url(#clip352)" d="M1929.75 1170.58 L1929.75 1173.47 L1963.79 1173.47 L1963.79 1170.58 L1929.75 1170.58 L1929.75 1170.58  Z" fill="#009af9" fill-rule="evenodd" fill-opacity="1"/>
<polyline clip-path="url(#clip352)" style="stroke:#000000; stroke-linecap:round; stroke-linejoin:round; stroke-width:4; stroke-opacity:1; fill:none" points="1929.75,1170.58 1929.75,1173.47 1963.79,1173.47 1963.79,1170.58 1929.75,1170.58 "/>
<circle clip-path="url(#clip352)" style="fill:#009af9; stroke:none; fill-opacity:0" cx="347.069" cy="1170.58" r="2"/>
<circle clip-path="url(#clip352)" style="fill:#009af9; stroke:none; fill-opacity:0" cx="381.105" cy="1170.58" r="2"/>
<circle clip-path="url(#clip352)" style="fill:#009af9; stroke:none; fill-opacity:0" cx="415.141" cy="1167.7" r="2"/>
<circle clip-path="url(#clip352)" style="fill:#009af9; stroke:none; fill-opacity:0" cx="449.177" cy="1164.81" r="2"/>
<circle clip-path="url(#clip352)" style="fill:#009af9; stroke:none; fill-opacity:0" cx="483.214" cy="1124.38" r="2"/>
<circle clip-path="url(#clip352)" style="fill:#009af9; stroke:none; fill-opacity:0" cx="517.25" cy="1095.5" r="2"/>
<circle clip-path="url(#clip352)" style="fill:#009af9; stroke:none; fill-opacity:0" cx="551.286" cy="1046.41" r="2"/>
<circle clip-path="url(#clip352)" style="fill:#009af9; stroke:none; fill-opacity:0" cx="585.322" cy="997.317" r="2"/>
<circle clip-path="url(#clip352)" style="fill:#009af9; stroke:none; fill-opacity:0" cx="619.359" cy="904.909" r="2"/>
<circle clip-path="url(#clip352)" style="fill:#009af9; stroke:none; fill-opacity:0" cx="653.395" cy="699.878" r="2"/>
<circle clip-path="url(#clip352)" style="fill:#009af9; stroke:none; fill-opacity:0" cx="687.431" cy="595.919" r="2"/>
<circle clip-path="url(#clip352)" style="fill:#009af9; stroke:none; fill-opacity:0" cx="721.468" cy="506.398" r="2"/>
<circle clip-path="url(#clip352)" style="fill:#009af9; stroke:none; fill-opacity:0" cx="755.504" cy="364.898" r="2"/>
<circle clip-path="url(#clip352)" style="fill:#009af9; stroke:none; fill-opacity:0" cx="789.54" cy="240.724" r="2"/>
<circle clip-path="url(#clip352)" style="fill:#009af9; stroke:none; fill-opacity:0" cx="823.576" cy="165.642" r="2"/>
<circle clip-path="url(#clip352)" style="fill:#009af9; stroke:none; fill-opacity:0" cx="857.613" cy="165.642" r="2"/>
<circle clip-path="url(#clip352)" style="fill:#009af9; stroke:none; fill-opacity:0" cx="891.649" cy="47.2441" r="2"/>
<circle clip-path="url(#clip352)" style="fill:#009af9; stroke:none; fill-opacity:0" cx="925.685" cy="136.765" r="2"/>
<circle clip-path="url(#clip352)" style="fill:#009af9; stroke:none; fill-opacity:0" cx="959.721" cy="229.173" r="2"/>
<circle clip-path="url(#clip352)" style="fill:#009af9; stroke:none; fill-opacity:0" cx="993.758" cy="260.938" r="2"/>
<circle clip-path="url(#clip352)" style="fill:#009af9; stroke:none; fill-opacity:0" cx="1027.79" cy="465.969" r="2"/>
<circle clip-path="url(#clip352)" style="fill:#009af9; stroke:none; fill-opacity:0" cx="1061.83" cy="477.52" r="2"/>
<circle clip-path="url(#clip352)" style="fill:#009af9; stroke:none; fill-opacity:0" cx="1095.87" cy="607.47" r="2"/>
<circle clip-path="url(#clip352)" style="fill:#009af9; stroke:none; fill-opacity:0" cx="1129.9" cy="673.888" r="2"/>
<circle clip-path="url(#clip352)" style="fill:#009af9; stroke:none; fill-opacity:0" cx="1163.94" cy="800.95" r="2"/>
<circle clip-path="url(#clip352)" style="fill:#009af9; stroke:none; fill-opacity:0" cx="1197.98" cy="899.133" r="2"/>
<circle clip-path="url(#clip352)" style="fill:#009af9; stroke:none; fill-opacity:0" cx="1232.01" cy="893.358" r="2"/>
<circle clip-path="url(#clip352)" style="fill:#009af9; stroke:none; fill-opacity:0" cx="1266.05" cy="916.46" r="2"/>
<circle clip-path="url(#clip352)" style="fill:#009af9; stroke:none; fill-opacity:0" cx="1300.08" cy="1049.3" r="2"/>
<circle clip-path="url(#clip352)" style="fill:#009af9; stroke:none; fill-opacity:0" cx="1334.12" cy="1037.75" r="2"/>
<circle clip-path="url(#clip352)" style="fill:#009af9; stroke:none; fill-opacity:0" cx="1368.16" cy="1112.83" r="2"/>
<circle clip-path="url(#clip352)" style="fill:#009af9; stroke:none; fill-opacity:0" cx="1402.19" cy="1118.6" r="2"/>
<circle clip-path="url(#clip352)" style="fill:#009af9; stroke:none; fill-opacity:0" cx="1436.23" cy="1121.49" r="2"/>
<circle clip-path="url(#clip352)" style="fill:#009af9; stroke:none; fill-opacity:0" cx="1470.27" cy="1130.15" r="2"/>
<circle clip-path="url(#clip352)" style="fill:#009af9; stroke:none; fill-opacity:0" cx="1504.3" cy="1135.93" r="2"/>
<circle clip-path="url(#clip352)" style="fill:#009af9; stroke:none; fill-opacity:0" cx="1538.34" cy="1161.92" r="2"/>
<circle clip-path="url(#clip352)" style="fill:#009af9; stroke:none; fill-opacity:0" cx="1572.37" cy="1161.92" r="2"/>
<circle clip-path="url(#clip352)" style="fill:#009af9; stroke:none; fill-opacity:0" cx="1606.41" cy="1161.92" r="2"/>
<circle clip-path="url(#clip352)" style="fill:#009af9; stroke:none; fill-opacity:0" cx="1640.45" cy="1161.92" r="2"/>
<circle clip-path="url(#clip352)" style="fill:#009af9; stroke:none; fill-opacity:0" cx="1674.48" cy="1173.47" r="2"/>
<circle clip-path="url(#clip352)" style="fill:#009af9; stroke:none; fill-opacity:0" cx="1708.52" cy="1170.58" r="2"/>
<circle clip-path="url(#clip352)" style="fill:#009af9; stroke:none; fill-opacity:0" cx="1742.56" cy="1170.58" r="2"/>
<circle clip-path="url(#clip352)" style="fill:#009af9; stroke:none; fill-opacity:0" cx="1776.59" cy="1170.58" r="2"/>
<circle clip-path="url(#clip352)" style="fill:#009af9; stroke:none; fill-opacity:0" cx="1810.63" cy="1167.7" r="2"/>
<circle clip-path="url(#clip352)" style="fill:#009af9; stroke:none; fill-opacity:0" cx="1844.66" cy="1173.47" r="2"/>
<circle clip-path="url(#clip352)" style="fill:#009af9; stroke:none; fill-opacity:0" cx="1878.7" cy="1173.47" r="2"/>
<circle clip-path="url(#clip352)" style="fill:#009af9; stroke:none; fill-opacity:0" cx="1912.74" cy="1173.47" r="2"/>
<circle clip-path="url(#clip352)" style="fill:#009af9; stroke:none; fill-opacity:0" cx="1946.77" cy="1170.58" r="2"/>
<path clip-path="url(#clip350)" d="M1767.57 188.465 L2003.57 188.465 L2003.57 84.785 L1767.57 84.785  Z" fill="#ffffff" fill-rule="evenodd" fill-opacity="1"/>
<polyline clip-path="url(#clip350)" style="stroke:#000000; stroke-linecap:round; stroke-linejoin:round; stroke-width:4; stroke-opacity:1; fill:none" points="1767.57,188.465 2003.57,188.465 2003.57,84.785 1767.57,84.785 1767.57,188.465 "/>
<path clip-path="url(#clip350)" d="M1787.97 157.361 L1910.34 157.361 L1910.34 115.889 L1787.97 115.889 L1787.97 157.361  Z" fill="#009af9" fill-rule="evenodd" fill-opacity="1"/>
<polyline clip-path="url(#clip350)" style="stroke:#000000; stroke-linecap:round; stroke-linejoin:round; stroke-width:4; stroke-opacity:1; fill:none" points="1787.97,157.361 1910.34,157.361 1910.34,115.889 1787.97,115.889 1787.97,157.361 "/>
<path clip-path="url(#clip350)" d="M1944.58 156.312 Q1942.78 160.942 1941.06 162.354 Q1939.35 163.766 1936.48 163.766 L1933.08 163.766 L1933.08 160.201 L1935.58 160.201 Q1937.34 160.201 1938.31 159.368 Q1939.28 158.535 1940.46 155.433 L1941.23 153.488 L1930.74 127.979 L1935.25 127.979 L1943.36 148.257 L1951.46 127.979 L1955.97 127.979 L1944.58 156.312 Z" fill="#000000" fill-rule="nonzero" fill-opacity="1" /><path clip-path="url(#clip350)" d="M1963.26 149.97 L1970.9 149.97 L1970.9 123.604 L1962.59 125.271 L1962.59 121.012 L1970.86 119.345 L1975.53 119.345 L1975.53 149.97 L1983.17 149.97 L1983.17 153.905 L1963.26 153.905 L1963.26 149.97 Z" fill="#000000" fill-rule="nonzero" fill-opacity="1" /></svg>
