<?xml version="1.0" encoding="UTF-8"?>
<svg xmlns="http://www.w3.org/2000/svg"
     xmlns:xlink="http://www.w3.org/1999/xlink"
     version="1.2"
     width="160mm" height="160mm" viewBox="0 0 160 160"
     stroke="none"
     fill="#000000"
     stroke-width="0.3"
     font-size="3.88"
>
<defs>
  <marker id="arrow" markerWidth="15" markerHeight="7" refX="5" refY="3.5" orient="auto" markerUnits="strokeWidth">
    <path d="M0,0 L15,3.5 L0,7 z" stroke="context-stroke" fill="context-stroke"/>
  </marker>
</defs>
<g fill="#000000" fill-opacity="0.000" id="img-acc88aba-1">
  <g transform="translate(80,80)">
    <path d="M-80,-80 L80,-80 80,80 -80,80  z" class="primitive"/>
  </g>
</g>
<g stroke-width="1.5" stroke="#D3D3D3" id="img-acc88aba-2">
</g>
<g stroke-width="1.5" stroke="#D3D3D3" id="img-acc88aba-3">
  <g transform="translate(32.58,32.58)">
    <path fill="none" d="M-13.35,-13.35 L13.35,13.35 " class="primitive"/>
  </g>
  <g transform="translate(77.79,77.79)">
    <path fill="none" d="M-15.64,-15.64 L15.64,15.64 " class="primitive"/>
  </g>
  <g transform="translate(122.99,122.99)">
    <path fill="none" d="M-13.35,-13.35 L13.35,13.35 " class="primitive"/>
  </g>
</g>
<g fill="#D3D3D3" id="img-acc88aba-4">
</g>
<g fill="#D3D3D3" id="img-acc88aba-5">
  <g transform="translate(47.41,47.41)">
    <path d="M0.14,-3.09 L2.95,2.95 -3.09,0.14  z" class="primitive"/>
  </g>
  <g transform="translate(94.9,94.9)">
    <path d="M0.14,-3.09 L2.95,2.95 -3.09,0.14  z" class="primitive"/>
  </g>
  <g transform="translate(137.82,137.82)">
    <path d="M0.14,-3.09 L2.95,2.95 -3.09,0.14  z" class="primitive"/>
  </g>
</g>
<g font-size="4" fill="#000000" id="img-acc88aba-6">
</g>
<g stroke-width="0" stroke="#000000" stroke-opacity="0.000" id="img-acc88aba-7">
  <g transform="translate(13.33,13.33)" fill="#0000FF">
    <circle cx="0" cy="0" r="8" class="primitive"/>
  </g>
  <g transform="translate(56.25,56.25)" fill="#A0FF35">
    <circle cx="0" cy="0" r="8" class="primitive"/>
  </g>
  <g transform="translate(103.75,103.75)" fill="#24390F">
    <circle cx="0" cy="0" r="8" class="primitive"/>
  </g>
  <g transform="translate(146.67,146.67)" fill="#FF987F">
    <circle cx="0" cy="0" r="8" class="primitive"/>
  </g>
</g>
<g font-family="Helvetica" font-size="4" fill="#000000" id="img-acc88aba-8">
  <g transform="translate(13.33,13.33)">
    <g class="primitive">
      <text text-anchor="middle" dy="0.35em">Atmosphere</text>
    </g>
  </g>
  <g transform="translate(56.25,56.25)">
    <g class="primitive">
      <text text-anchor="middle" dy="0.35em">Plants</text>
    </g>
  </g>
  <g transform="translate(103.75,103.75)">
    <g class="primitive">
      <text text-anchor="middle" dy="0.35em">Soil</text>
    </g>
  </g>
  <g transform="translate(146.67,146.67)">
    <g class="primitive">
      <text text-anchor="middle" dy="0.35em">Ocean</text>
    </g>
  </g>
</g>
<g font-family="Helvetica" font-size="4" fill="#000000" id="img-acc88aba-9">
  <g transform="translate(80,0)">
    <g class="primitive">
      <text text-anchor="middle" dy="0.35em"></text>
    </g>
  </g>
</g>
</svg>
