<?xml version="1.0" encoding="UTF-8" standalone="no"?>
<!-- Created with Inkscape (http://www.inkscape.org/) -->

<svg
   version="1.1"
   id="svg1"
   width="101.94133"
   height="66.641335"
   viewBox="0 0 101.94133 66.641335"
   xmlns="http://www.w3.org/2000/svg"
   xmlns:svg="http://www.w3.org/2000/svg">
  <defs
     id="defs1" />
  <g
     id="g1">
    <path
       id="path1"
       d="M -9.6822,-7.4717 H 9.68223 V 7.47169 H -9.6822 Z"
       style="fill:none;stroke:#000000;stroke-width:0.3985;stroke-linecap:butt;stroke-linejoin:miter;stroke-miterlimit:10;stroke-dasharray:none;stroke-opacity:1"
       transform="matrix(1.3333333,0,0,-1.3333333,13.174667,48.022667)" />
    <g
       id="g2"
       aria-label="X&#10;1"
       transform="matrix(1.3333333,0,0,1.3333333,4.6933333,51.565333)">
      <path
         id="path2"
         d="M 4.8266797,-4.0890391 3.9946484,-6.0812266 c -0.035156,-0.070312 -0.046875,-0.1171875 -0.046875,-0.1289062 0,-0.058594 0.1640625,-0.2460938 0.5859375,-0.28125 0.09375,-0.011719 0.1992188,-0.023437 0.1992188,-0.1875 0,-0.1289063 -0.1171875,-0.1289063 -0.1523438,-0.1289063 -0.4101562,0 -0.8320312,0.035156 -1.2539062,0.035156 -0.2460938,0 -0.8671875,-0.035156 -1.1132813,-0.035156 -0.058594,0 -0.1875,0 -0.1875,0.1992188 0,0.1171875 0.1054688,0.1171875 0.234375,0.1171875 0.5976563,0 0.65625,0.09375 0.75,0.3164062 l 1.171875,2.7773438 -2.0976562,2.2617187 -0.1289063,0.1054688 c -0.4921875,0.52734374 -0.96093746,0.69140624 -1.46484371,0.72656249 -0.12890625,0 -0.22265625,0 -0.22265625,0.19921875 0,0 0,0.1054687475 0.12890625,0.1054687475 0.3046875,0 0.63281251,-0.0351562475 0.93750001,-0.0351562475 0.3632812,0 0.7617187,0.0351562475 1.1132812,0.0351562475 0.058594,0 0.1757813,0 0.1757813,-0.1992187475 0,-0.10546875 -0.09375,-0.10546875 -0.1171875,-0.10546875 -0.082031,-0.0117188 -0.3984375,-0.0351563 -0.3984375,-0.31640625 0,-0.15234375 0.1523437,-0.31640625 0.2695312,-0.44531254 l 1.0195313,-1.078125 0.890625,-0.9726562 1.0078125,2.37890624 c 0.046875,0.10546875 0.046875,0.1171875 0.046875,0.140625 0,0.0820313 -0.1875,0.24609375 -0.5742188,0.29296875 -0.1054687,0 -0.1992187,0.0117188 -0.1992187,0.1875 0,0.1171874975 0.1171875,0.1171874975 0.1523437,0.1171874975 0.28125,0 0.9726563,-0.0351562475 1.2539063,-0.0351562475 0.2460937,0 0.8554687,0.0351562475 1.1015625,0.0351562475 0.070312,0 0.1992187,0 0.1992187,-0.1874999975 0,-0.1171875 -0.1054687,-0.1171875 -0.1875,-0.1171875 -0.6679687,-0.0117188 -0.6796875,-0.046875 -0.8554687,-0.4453125 C 5.8462109,-1.6749766 5.1782422,-3.2218516 4.9438672,-3.8195078 c 0.6796875,-0.703125 1.734375,-1.8867188 2.0507812,-2.1679688 0.28125,-0.234375 0.6679688,-0.4804687 1.265625,-0.5039062 0.1289063,-0.011719 0.2109375,-0.011719 0.2109375,-0.1992188 0,-0.011719 0,-0.1171875 -0.1289062,-0.1171875 -0.2929688,0 -0.6210938,0.035156 -0.9375,0.035156 -0.3632813,0 -0.7382813,-0.035156 -1.1015625,-0.035156 -0.058594,0 -0.1875,0 -0.1875,0.1992188 0,0.070312 0.046875,0.1054687 0.1171875,0.1171875 0.09375,0.011719 0.3984375,0.023437 0.3984375,0.3046875 0,0.140625 -0.1054688,0.2695312 -0.1875,0.3632812 z m 0,0"
         style="fill:#000000;fill-opacity:1;fill-rule:nonzero;stroke:none" />
      <path
         id="path3"
         d="m 10.586445,-2.9347422 c 0,-0.1875 -0.01172,-0.1992187 -0.210937,-0.1992187 -0.4453127,0.4335937 -1.0781252,0.4453125 -1.3593752,0.4453125 v 0.2460937 c 0.1640625,0 0.6210938,0 1.0078122,-0.1875 v 3.55078126 c 0,0.23437504 0,0.32812504 -0.6914059,0.32812504 H 9.0630078 v 0.2460937 c 0.1289063,-0.011719 0.9843752,-0.023437 1.2421872,-0.023437 0.210938,0 1.089844,0.011719 1.242188,0.023437 V 1.2488516 H 11.28957 c -0.703125,0 -0.703125,-0.09375 -0.703125,-0.32812504 z m 0,0"
         style="fill:#000000;fill-opacity:1;fill-rule:nonzero;stroke:none" />
    </g>
    <path
       id="path4"
       d="M 47.0114,-7.4717 H 66.37583 V 7.47169 H 47.0114 Z"
       style="fill:none;stroke:#000000;stroke-width:0.3985;stroke-linecap:butt;stroke-linejoin:miter;stroke-miterlimit:10;stroke-dasharray:none;stroke-opacity:1"
       transform="matrix(1.3333333,0,0,-1.3333333,13.174667,48.022667)" />
    <g
       id="g4"
       aria-label="X&#10;2"
       transform="matrix(1.3333333,0,0,1.3333333,80.284,51.565333)">
      <path
         id="path5"
         d="M 4.8289922,-4.0890391 3.9969609,-6.0812266 c -0.035156,-0.070312 -0.046875,-0.1171875 -0.046875,-0.1289062 0,-0.058594 0.1640625,-0.2460938 0.5859375,-0.28125 0.09375,-0.011719 0.1992188,-0.023437 0.1992188,-0.1875 0,-0.1289063 -0.1171875,-0.1289063 -0.1523438,-0.1289063 -0.4101562,0 -0.8320312,0.035156 -1.2539062,0.035156 -0.2460938,0 -0.8671875,-0.035156 -1.1132813,-0.035156 -0.058594,0 -0.1875,0 -0.1875,0.1992188 0,0.1171875 0.1054688,0.1171875 0.234375,0.1171875 0.5976563,0 0.65625,0.09375 0.75,0.3164062 l 1.171875,2.7773438 -2.0976562,2.2617187 -0.1289063,0.1054688 c -0.4921875,0.52734374 -0.96093746,0.69140624 -1.46484371,0.72656249 -0.12890625,0 -0.22265625,0 -0.22265625,0.19921875 0,0 0,0.1054687475 0.12890625,0.1054687475 0.3046875,0 0.63281251,-0.0351562475 0.93750001,-0.0351562475 0.3632812,0 0.7617187,0.0351562475 1.1132812,0.0351562475 0.058594,0 0.1757813,0 0.1757813,-0.1992187475 0,-0.10546875 -0.09375,-0.10546875 -0.1171875,-0.10546875 -0.082031,-0.0117188 -0.3984375,-0.0351563 -0.3984375,-0.31640625 0,-0.15234375 0.1523437,-0.31640625 0.2695312,-0.44531254 l 1.0195313,-1.078125 0.890625,-0.9726562 1.0078125,2.37890624 c 0.046875,0.10546875 0.046875,0.1171875 0.046875,0.140625 0,0.0820313 -0.1875,0.24609375 -0.5742188,0.29296875 -0.1054687,0 -0.1992187,0.0117188 -0.1992187,0.1875 0,0.1171874975 0.1171875,0.1171874975 0.1523437,0.1171874975 0.28125,0 0.9726563,-0.0351562475 1.2539063,-0.0351562475 0.2460937,0 0.8554687,0.0351562475 1.1015625,0.0351562475 0.070312,0 0.1992187,0 0.1992187,-0.1874999975 0,-0.1171875 -0.1054687,-0.1171875 -0.1875,-0.1171875 -0.6679687,-0.0117188 -0.6796875,-0.046875 -0.8554687,-0.4453125 C 5.8485234,-1.6749766 5.1805547,-3.2218516 4.9461797,-3.8195078 c 0.6796875,-0.703125 1.734375,-1.8867188 2.0507812,-2.1679688 0.28125,-0.234375 0.6679688,-0.4804687 1.265625,-0.5039062 0.1289063,-0.011719 0.2109375,-0.011719 0.2109375,-0.1992188 0,-0.011719 0,-0.1171875 -0.1289062,-0.1171875 -0.2929688,0 -0.6210938,0.035156 -0.9375,0.035156 -0.3632813,0 -0.7382813,-0.035156 -1.1015625,-0.035156 -0.058594,0 -0.1875,0 -0.1875,0.1992188 0,0.070312 0.046875,0.1054687 0.1171875,0.1171875 0.09375,0.011719 0.3984375,0.023437 0.3984375,0.3046875 0,0.140625 -0.1054688,0.2695312 -0.1875,0.3632812 z m 0,0"
         style="fill:#000000;fill-opacity:1;fill-rule:nonzero;stroke:none" />
      <path
         id="path6"
         d="m 11.769422,0.22932031 h -0.234375 c -0.02344,0.15234375 -0.08203,0.5625 -0.175781,0.6328125 -0.05859,0.0351563 -0.597657,0.0351563 -0.691407,0.0351563 H 9.3787969 c 0.7382811,-0.64453125 0.9843751,-0.84375 1.3945311,-1.171875 0.515625,-0.41015625 0.996094,-0.84374991 0.996094,-1.49999991 0,-0.8437501 -0.738281,-1.3593751 -1.628906,-1.3593751 -0.8671879,0 -1.4531254,0.609375 -1.4531254,1.2421875 0,0.3632812 0.3046875,0.3984375 0.375,0.3984375 0.1640625,0 0.375,-0.1171875 0.375,-0.375 0,-0.1289063 -0.058594,-0.3632813 -0.421875,-0.3632813 0.2226563,-0.5039062 0.6914063,-0.65625 1.0195314,-0.65625 0.703125,0 1.066406,0.5507813 1.066406,1.1132813 0,0.609375 -0.433594,1.08984376 -0.65625,1.33593751 L 8.7577031,1.2254141 c -0.070312,0.058594 -0.070312,0.070312 -0.070312,0.2695312 h 2.8828129 z m 0,0"
         style="fill:#000000;fill-opacity:1;fill-rule:nonzero;stroke:none" />
    </g>
    <path
       id="path7"
       d="M 18.66458,20.8751 H 38.02901 V 35.81849 H 18.66458 Z"
       style="fill:none;stroke:#000000;stroke-width:0.3985;stroke-linecap:butt;stroke-linejoin:miter;stroke-miterlimit:10;stroke-dasharray:none;stroke-opacity:1"
       transform="matrix(1.3333333,0,0,-1.3333333,13.174667,48.022667)" />
    <g
       id="g7"
       aria-label="X&#10;3"
       transform="matrix(1.3333333,0,0,1.3333333,42.488,13.770667)">
      <path
         id="path8"
         d="M 4.8283359,-4.0906953 3.9963047,-6.0828828 c -0.035156,-0.070312 -0.046875,-0.1171875 -0.046875,-0.1289063 0,-0.058594 0.1640625,-0.2460937 0.5859375,-0.28125 0.09375,-0.011719 0.1992187,-0.023437 0.1992187,-0.1875 0,-0.1289062 -0.1171875,-0.1289062 -0.1523437,-0.1289062 -0.4101563,0 -0.8320313,0.035156 -1.2539063,0.035156 -0.2460937,0 -0.8671875,-0.035156 -1.1132812,-0.035156 -0.058594,0 -0.1875,0 -0.1875,0.1992187 0,0.1171875 0.1054687,0.1171875 0.234375,0.1171875 0.5976562,0 0.65625,0.09375 0.75,0.3164063 l 1.171875,2.7773437 -2.0976563,2.2617188 -0.1289062,0.1054687 c -0.4921875,0.52734379 -0.96093751,0.69140629 -1.46484376,0.72656254 -0.12890625,0 -0.22265625,0 -0.22265625,0.19921875 0,0 0,0.1054687475 0.12890625,0.1054687475 0.3046875,0 0.63281246,-0.0351562475 0.93749996,-0.0351562475 0.3632813,0 0.7617188,0.0351562475 1.1132813,0.0351562475 0.058594,0 0.1757812,0 0.1757812,-0.1992187475 0,-0.10546875 -0.09375,-0.10546875 -0.1171875,-0.10546875 -0.082031,-0.0117188 -0.3984375,-0.0351563 -0.3984375,-0.31640625 0,-0.15234375 0.1523438,-0.31640625 0.2695313,-0.44531249 l 1.0195312,-1.078125 0.890625,-0.9726563 1.0078125,2.37890629 c 0.046875,0.10546875 0.046875,0.1171875 0.046875,0.140625 0,0.0820313 -0.1875,0.24609375 -0.5742187,0.29296875 -0.1054688,0 -0.1992188,0.0117188 -0.1992188,0.1875 0,0.1171874975 0.1171875,0.1171874975 0.1523438,0.1171874975 0.28125,0 0.9726562,-0.0351562475 1.2539062,-0.0351562475 0.2460938,0 0.8554688,0.0351562475 1.1015625,0.0351562475 0.070312,0 0.1992188,0 0.1992188,-0.1874999975 0,-0.1171875 -0.1054688,-0.1171875 -0.1875,-0.1171875 -0.6679688,-0.0117188 -0.6796875,-0.046875 -0.8554688,-0.4453125 C 5.8478672,-1.6766328 5.1798984,-3.2235078 4.9455234,-3.8211641 c 0.6796875,-0.703125 1.734375,-1.8867187 2.0507813,-2.1679687 0.28125,-0.234375 0.6679687,-0.4804688 1.265625,-0.5039063 0.1289062,-0.011719 0.2109375,-0.011719 0.2109375,-0.1992187 0,-0.011719 0,-0.1171875 -0.1289063,-0.1171875 -0.2929687,0 -0.6210937,0.035156 -0.9375,0.035156 -0.3632812,0 -0.7382812,-0.035156 -1.1015625,-0.035156 -0.058594,0 -0.1875,0 -0.1875,0.1992187 0,0.070312 0.046875,0.1054688 0.1171875,0.1171875 0.09375,0.011719 0.3984375,0.023437 0.3984375,0.3046875 0,0.140625 -0.1054687,0.2695313 -0.1875,0.3632813 z m 0,0"
         style="fill:#000000;fill-opacity:1;fill-rule:nonzero;stroke:none" />
      <path
         id="path9"
         d="m 10.151578,-0.83874219 c 0.550781,0 0.9375,0.375 0.9375,1.125 0,0.86718749 -0.503906,1.12499999 -0.902344,1.12499999 -0.2812496,0 -0.8906246,-0.082031 -1.1835934,-0.49218749 0.328125,-0.0117188 0.3984375,-0.24609375 0.3984375,-0.38671875 0,-0.22265625 -0.1640625,-0.38671875 -0.3867187,-0.38671875 -0.1875,0 -0.3867188,0.1171875 -0.3867188,0.41015625 0,0.65625004 0.7265625,1.07812504 1.5703124,1.07812504 0.972656,0 1.640625,-0.64453129 1.640625,-1.34765629 0,-0.5390625 -0.445312,-1.08984375 -1.21875,-1.2421875 0.738281,-0.26953121 0.996094,-0.79687501 0.996094,-1.21875001 0,-0.5507812 -0.632813,-0.9609375 -1.40625,-0.9609375 -0.7734376,0 -1.3593751,0.375 -1.3593751,0.9375 0,0.234375 0.1523437,0.3632813 0.3632812,0.3632813 0.2109375,0 0.3515625,-0.1640625 0.3515625,-0.3515625 0,-0.1992188 -0.140625,-0.3515625 -0.3515625,-0.3632813 0.234375,-0.3046875 0.7148438,-0.3867187 0.9726559,-0.3867187 0.316407,0 0.761719,0.1523437 0.761719,0.7617187 0,0.2929688 -0.105469,0.609375 -0.28125,0.8320313 -0.234375,0.2578125 -0.421875,0.28125 -0.7734374,0.2929687 -0.1757812,0.023437 -0.1875,0.023437 -0.2226562,0.023437 -0.011719,0 -0.070312,0.011719 -0.070312,0.09375 0,0.09375 0.058594,0.09375 0.1757812,0.09375 z m 0,0"
         style="fill:#000000;fill-opacity:1;fill-rule:nonzero;stroke:none" />
    </g>
    <path
       id="path10"
       d="M 46.81215,0 H 11.87398"
       style="fill:none;stroke:#000000;stroke-width:0.3985;stroke-linecap:butt;stroke-linejoin:miter;stroke-miterlimit:10;stroke-dasharray:none;stroke-opacity:1"
       transform="matrix(1.3333333,0,0,-1.3333333,13.174667,48.022667)" />
    <path
       id="path11"
       d="M 1.99252,0 -1.19551,1.59401 0,0 -1.19551,-1.59401"
       style="fill:#000000;fill-opacity:1;fill-rule:nonzero;stroke:none"
       transform="matrix(-1.3333333,0,0,1.3333333,29.00664,48.022667)" />
    <g
       id="g11"
       aria-label="αX&#10;1&#10;X&#10;2"
       transform="matrix(1.3333333,0,0,1.3333333,31.344,60.885333)">
      <path
         id="path12"
         d="m 4.4060625,-2.1083359 c 0,-1.3359375 -0.8085937,-1.8515625 -1.5703125,-1.8515625 -1.21875,0 -2.44921875,1.2304687 -2.44921875,2.53125 0,0.91406246 0.62109375,1.52343746 1.50000005,1.52343746 0.9609375,0 1.6992187,-0.57421875 1.9335937,-0.75 0.1171875,0.4453125 0.4101563,0.75 0.8554688,0.75 0.4804687,0 0.7734375,-0.46875 0.7734375,-0.6328125 0,-0.09375 -0.09375,-0.09375 -0.1289063,-0.09375 -0.09375,0 -0.1054687,0.0351563 -0.1289062,0.1171875 -0.09375,0.2578125 -0.328125,0.38671875 -0.4921875,0.38671875 -0.2929688,0 -0.2929688,-0.796875 -0.2929688,-0.97265621 0,-0.1171875 0,-0.140625 0.082031,-0.234375 0.1523437,-0.1875 0.3984375,-0.5039063 0.6328125,-0.9609375 0.2695312,-0.5273438 0.4101562,-1.078125 0.4101562,-1.125 0,-0.011719 0,-0.1054688 -0.1171875,-0.1054688 -0.1054687,0 -0.1054687,0.035156 -0.1523437,0.1757813 -0.09375,0.3164062 -0.2929688,0.9960937 -0.8554688,1.7460937 z M 3.77325,-0.91302344 c -0.2226562,0.1875 -0.9492187,0.78515625 -1.8632812,0.78515625 -0.5039063,0 -0.8320313,-0.328125 -0.8320313,-0.97265621 0,-0.3867188 0.1640625,-1.2773438 0.5273438,-1.8515625 0.234375,-0.3632813 0.703125,-0.7851563 1.2304687,-0.7851563 0.5976563,0 0.796875,0.5390625 0.8789063,1.078125 0.070312,0.4804688 0.011719,1.3476563 0.058594,1.74609376 z m 6.700195,-2.51953126 c 0.222657,-0.2109375 0.738282,-0.7851562 0.949219,-1.0078125 0.09375,-0.09375 0.316406,-0.328125 0.410156,-0.421875 0.550782,-0.5742187 0.914063,-0.9257812 1.664063,-0.984375 0.105469,-0.011719 0.210937,-0.011719 0.210937,-0.1640625 0,-0.035156 -0.03516,-0.1054687 -0.128906,-0.1054687 -0.05859,0 -0.363281,0.011719 -0.410156,0.011719 -0.08203,0.011719 -0.292969,0.011719 -0.433594,0.011719 -0.164062,0 -0.328125,-0.011719 -0.492187,-0.011719 -0.164063,0 -0.339844,-0.011719 -0.492188,-0.011719 -0.05859,0 -0.175781,0 -0.175781,0.1523437 0,0.1054688 0.117187,0.1171875 0.128906,0.1171875 0.07031,0.011719 0.339844,0.035156 0.339844,0.2578125 0,0.1523438 -0.199219,0.375 -0.210938,0.3867188 l -1.476562,1.5234375 -0.7968752,-1.7929688 c -0.035156,-0.082031 -0.035156,-0.1054687 -0.035156,-0.1171875 0,-0.035156 0.140625,-0.2226562 0.5273432,-0.2578125 0.03516,0 0.152344,-0.011719 0.152344,-0.1640625 0,-0.070312 -0.07031,-0.1054687 -0.140625,-0.1054687 -0.175781,0 -0.3867185,0.011719 -0.5624997,0.011719 -0.1757813,0 -0.3632813,0.011719 -0.5507813,0.011719 -0.2929687,0 -0.3046875,0 -0.5273437,-0.011719 l -0.4921875,-0.011719 c -0.035156,0 -0.1640625,0 -0.1640625,0.1523437 0,0.1171875 0.1054687,0.1171875 0.2109375,0.1171875 0.5273437,0 0.5742187,0.1054688 0.65625,0.28125 l 1.0664062,2.390625 c 0,0.011719 0.046875,0.1054688 0.046875,0.1171875 0,0.023437 -1.1484375,1.2304688 -1.2890625,1.359375 -0.09375,0.1054688 -0.328125,0.3632813 -0.421875,0.4570313 -0.5507812,0.55078121 -0.9023437,0.91406246 -1.6523437,0.96093746 -0.1054688,0.0117188 -0.2109375,0.0234375 -0.2109375,0.1640625 0,0.05859375 0.035156,0.1171875 0.1289062,0.1171875 0.046875,0 0.3515625,-0.0234375 0.4101563,-0.0234375 0.082031,0 0.2929687,0 0.4335937,0 0.1640625,0 0.328125,0 0.4921875,0 0.1640625,0 0.328125,0.0234375 0.4804688,0.0234375 0.046875,0 0.1757812,0 0.1757812,-0.1640625 0,-0.10546875 -0.1054687,-0.1171875 -0.1171875,-0.1171875 -0.070312,0 -0.3398437,-0.0234375 -0.3398437,-0.2578125 0,-0.140625 0.1054687,-0.2578125 0.3867187,-0.55078126 l 0.6914063,-0.7148437 0.4804687,-0.5039063 c 0.1640625,-0.1640625 0.3867188,-0.4101562 0.46875,-0.4921875 l 0.9609375,2.14453126 c 0.04687,0.09375 0.04687,0.10546875 0.04687,0.1171875 0,0.046875 -0.140625,0.234375 -0.527344,0.2578125 -0.04687,0 -0.152344,0.0117188 -0.152344,0.1640625 0,0.08203125 0.05859,0.1171875 0.128907,0.1171875 0.1875,0 0.386718,-0.0234375 0.574218,-0.0234375 0.175782,0 0.351563,0 0.539063,0 0.292969,0 0.316406,0 0.527344,0 l 0.492187,0.0234375 c 0.04687,0 0.175781,0 0.175781,-0.1640625 0,-0.1171875 -0.105468,-0.1171875 -0.210937,-0.1171875 -0.539063,0 -0.574219,-0.09375 -0.65625,-0.26953125 z m 0,0"
         style="fill:#ff0000;fill-opacity:1;fill-rule:nonzero;stroke:none" />
      <path
         id="path13"
         d="m 15.670711,-2.7997422 c 0,-0.1757812 -0.02344,-0.1757812 -0.199219,-0.1757812 -0.398437,0.375 -1.007812,0.375 -1.21875,0.375 v 0.234375 c 0.152344,0 0.550781,0 0.902344,-0.1640625 v 3.02343746 c 0,0.1875 0,0.26953125 -0.609375,0.26953125 h -0.257813 v 0.234375 c 0.328125,-0.0234375 0.796875,-0.0234375 1.125,-0.0234375 0.339844,0 0.796875,0 1.136719,0.0234375 v -0.234375 h -0.257812 c -0.621094,0 -0.621094,-0.0820313 -0.621094,-0.26953125 z m 0,0"
         style="fill:#ff0000;fill-opacity:1;fill-rule:nonzero;stroke:none" />
      <path
         id="path14"
         d="m 22.233211,-3.4325547 c 0.222656,-0.2109375 0.738281,-0.7851562 0.949219,-1.0078125 0.09375,-0.09375 0.316406,-0.328125 0.410156,-0.421875 0.550781,-0.5742187 0.914062,-0.9257812 1.664062,-0.984375 0.105469,-0.011719 0.210938,-0.011719 0.210938,-0.1640625 0,-0.035156 -0.03516,-0.1054687 -0.128906,-0.1054687 -0.05859,0 -0.363282,0.011719 -0.410157,0.011719 -0.08203,0.011719 -0.292968,0.011719 -0.433593,0.011719 -0.164063,0 -0.328125,-0.011719 -0.492188,-0.011719 -0.164062,0 -0.339844,-0.011719 -0.492187,-0.011719 -0.05859,0 -0.175782,0 -0.175782,0.1523437 0,0.1054688 0.117188,0.1171875 0.128907,0.1171875 0.07031,0.011719 0.339843,0.035156 0.339843,0.2578125 0,0.1523438 -0.199218,0.375 -0.210937,0.3867188 l -1.476563,1.5234375 -0.796875,-1.7929688 c -0.03516,-0.082031 -0.03516,-0.1054687 -0.03516,-0.1171875 0,-0.035156 0.140625,-0.2226562 0.527344,-0.2578125 0.03516,0 0.152344,-0.011719 0.152344,-0.1640625 0,-0.070312 -0.07031,-0.1054687 -0.140625,-0.1054687 -0.175782,0 -0.386719,0.011719 -0.5625,0.011719 -0.175782,0 -0.363282,0.011719 -0.550782,0.011719 -0.292968,0 -0.304687,0 -0.527343,-0.011719 l -0.492188,-0.011719 c -0.03516,0 -0.164062,0 -0.164062,0.1523437 0,0.1171875 0.105468,0.1171875 0.210937,0.1171875 0.527344,0 0.574219,0.1054688 0.65625,0.28125 l 1.066406,2.390625 c 0,0.011719 0.04687,0.1054688 0.04687,0.1171875 0,0.023437 -1.148437,1.2304688 -1.289062,1.359375 -0.09375,0.1054688 -0.328125,0.3632813 -0.421875,0.4570313 -0.550781,0.55078121 -0.902344,0.91406246 -1.652344,0.96093746 -0.105469,0.0117188 -0.210937,0.0234375 -0.210937,0.1640625 0,0.05859375 0.03516,0.1171875 0.128906,0.1171875 0.04687,0 0.351562,-0.0234375 0.410156,-0.0234375 0.08203,0 0.292969,0 0.433594,0 0.164062,0 0.328125,0 0.492187,0 0.164063,0 0.328125,0.0234375 0.480469,0.0234375 0.04687,0 0.175781,0 0.175781,-0.1640625 0,-0.10546875 -0.105468,-0.1171875 -0.117187,-0.1171875 -0.07031,0 -0.339844,-0.0234375 -0.339844,-0.2578125 0,-0.140625 0.105469,-0.2578125 0.386719,-0.55078126 l 0.691406,-0.7148437 0.480469,-0.5039063 c 0.164062,-0.1640625 0.386719,-0.4101562 0.46875,-0.4921875 l 0.960937,2.14453126 c 0.04687,0.09375 0.04687,0.10546875 0.04687,0.1171875 0,0.046875 -0.140625,0.234375 -0.527343,0.2578125 -0.04687,0 -0.152344,0.0117188 -0.152344,0.1640625 0,0.08203125 0.05859,0.1171875 0.128906,0.1171875 0.1875,0 0.386719,-0.0234375 0.574219,-0.0234375 0.175781,0 0.351562,0 0.539062,0 0.292969,0 0.316407,0 0.527344,0 l 0.492188,0.0234375 c 0.04687,0 0.175781,0 0.175781,-0.1640625 0,-0.1171875 -0.105469,-0.1171875 -0.210938,-0.1171875 -0.539062,0 -0.574218,-0.09375 -0.65625,-0.26953125 z m 0,0"
         style="fill:#ff0000;fill-opacity:1;fill-rule:nonzero;stroke:none" />
      <path
         id="path15"
         d="m 28.499812,-0.11614844 h -0.210937 c -0.02344,0.08203125 -0.08203,0.46875 -0.164063,0.5390625 -0.04687,0.0351563 -0.527343,0.0351563 -0.609375,0.0351563 h -1.125 l 0.773438,-0.62109375 c 0.199219,-0.1640625 0.726562,-0.5390625 0.914062,-0.7265625 0.175782,-0.17578121 0.421875,-0.48046871 0.421875,-0.90234381 0,-0.75 -0.667968,-1.1835937 -1.476562,-1.1835937 -0.761719,0 -1.300781,0.5039062 -1.300781,1.0664062 0,0.3046875 0.257812,0.3398438 0.316406,0.3398438 0.152344,0 0.328125,-0.1054688 0.328125,-0.3164063 0,-0.140625 -0.08203,-0.328125 -0.339844,-0.328125 0.128906,-0.3046875 0.503906,-0.5273437 0.914063,-0.5273437 0.621093,0 0.960937,0.46875 0.960937,0.9492187 0,0.421875 -0.28125,0.85546881 -0.703125,1.24218756 l -1.417969,1.30078125 c -0.05859,0.0585938 -0.05859,0.0585938 -0.05859,0.24609375 h 2.601562 z m 0,0"
         style="fill:#ff0000;fill-opacity:1;fill-rule:nonzero;stroke:none" />
    </g>
    <path
       id="path16"
       d="M 7.66917,7.67094 19.26796,19.26712"
       style="fill:none;stroke:#000000;stroke-width:0.3985;stroke-linecap:butt;stroke-linejoin:miter;stroke-miterlimit:10;stroke-dasharray:none;stroke-opacity:1"
       transform="matrix(1.3333333,0,0,-1.3333333,13.174667,48.022667)" />
    <path
       id="path17"
       d="M 1.99252,0 -1.19551,1.59401 0,0 -1.19551,-1.59401"
       style="fill:#000000;fill-opacity:1;fill-rule:nonzero;stroke:none"
       transform="matrix(0.94290667,-0.94269333,-0.94269333,-0.94290667,38.86528,22.333173)" />
    <g
       id="g17"
       aria-label="βX&#10;2"
       transform="matrix(0.94290667,-0.94269333,0.94269333,0.94290667,18.896,32.376)">
      <path
         id="path18"
         d="m 5.2528027,-5.1395255 c 0.00822,-0.6049145 -0.4310323,-1.1932054 -1.3922648,-1.1930967 -0.2154486,2.44e-5 -0.3977476,0.033191 -0.6463272,0.1658029 -0.7871685,0.4226999 -1.2759728,1.2928364 -1.524468,2.1712321 L 0.28167744,1.6393833 c -0.0165655,0.066294 0.0497302,0.099432 0.11602207,0.099425 0.0662919,-7.5e-6 0.11600707,-0.033159 0.11600707,-0.033159 L 1.1432021,-0.74722244 C 1.3587126,-0.20033868 1.7730707,0.09792798 2.3862708,0.0978586 3.0657627,0.09778172 3.728646,-0.21717978 4.2257846,-0.66470633 4.623491,-1.0625027 4.8885948,-1.6260138 4.8885273,-2.2226409 4.8884636,-2.786122 4.6398071,-3.333002 4.2254546,-3.5815497 4.6728986,-3.813622 5.2528815,-4.4434606 5.2528027,-5.1395255 Z m -1.673696,1.5414759 c -0.13258,0.033161 -0.281733,0.066324 -0.4391753,0.074628 -0.1408712,-0.00827 -0.273455,-0.00826 -0.4060445,-0.057959 0.1160034,-0.066305 0.2817331,-0.066324 0.4060313,-0.058051 0.1574424,-0.0083 0.3065991,-0.00832 0.4391885,0.041383 z m 1.126771,-1.6905708 c 6.56e-5,0.5800541 -0.3313113,1.3093024 -0.7953302,1.5248036 -0.2154562,-0.066268 -0.4474816,-0.099387 -0.6960762,-0.099359 -0.4806162,5.44e-5 -0.7457763,0.066376 -0.7457501,0.2983979 2.07e-5,0.1823027 0.2154787,0.2651432 0.629803,0.2650963 0.3148866,-3.56e-5 0.5220422,-0.058064 0.7954878,-0.1326738 0.281763,0.1988438 0.3978207,0.6131551 0.3978601,0.9611875 6.94e-5,0.6132001 -0.1904439,1.2844271 -0.613005,1.72365868 -0.3397038,0.37293035 -0.7954334,0.61329004 -1.2926226,0.61334629 -0.6794919,7.687e-5 -1.0772977,-0.48049437 -1.0773708,-1.12684037 -1.13e-5,-0.099438 -2.25e-5,-0.1988757 0.033114,-0.2817443 l 0.6129225,-2.4528695 c 0.1987894,-0.7623793 0.8947025,-2.1048689 1.9222268,-2.1049852 0.4308974,-4.87e-5 0.8286712,0.1987819 0.8287407,0.8119819 z m 5.5127953,1.857621 c 0.223712,-0.2071875 0.745694,-0.7955871 0.944546,-1.0110583 0.09943,-0.099449 0.314849,-0.3314951 0.414277,-0.4143712 0.546843,-0.580116 0.911409,-0.9281897 1.665472,-0.9862804 0.107722,-0.024872 0.20716,-0.024883 0.207143,-0.1740397 -4e-6,-0.033146 -0.03316,-0.099434 -0.132595,-0.099423 -0.04972,5.6e-6 -0.356316,0.0249 -0.39775,0.016618 -0.08286,9.3e-6 -0.298313,3.37e-5 -0.439183,0.00834 -0.157444,-0.00827 -0.323174,-0.00825 -0.488903,-0.00823 -0.16573,1.87e-5 -0.348035,-0.016534 -0.497191,-0.016517 -0.04972,5.7e-6 -0.174016,0.00831 -0.173999,0.157463 1.1e-5,0.099438 0.12431,0.1077102 0.12431,0.1077102 0.08287,0.016564 0.348036,0.033107 0.348062,0.2651283 1.7e-5,0.1491567 -0.198834,0.3646279 -0.215405,0.3812027 l -1.474823,1.5248805 -0.7957048,-1.7897912 c -0.033155,-0.082861 -0.033159,-0.116007 -0.033159,-0.116007 -3.7e-6,-0.033146 0.1325576,-0.2320367 0.5303052,-0.2652276 0.033146,-3.8e-6 0.1491549,-0.01659 0.149138,-0.1657466 -7.5e-6,-0.066292 -0.066303,-0.09943 -0.149168,-0.099421 -0.1657297,1.87e-5 -0.3811765,0.016616 -0.5634792,0.016637 -0.1657298,1.88e-5 -0.3646055,4.13e-5 -0.5469082,6.19e-5 -0.2983135,3.37e-5 -0.2983135,3.37e-5 -0.5303352,6e-5 l -0.4806181,-0.016519 c -0.041431,0.00829 -0.1657297,1.87e-5 -0.1657128,0.1491755 1.31e-5,0.1160108 0.099451,0.1159996 0.1988888,0.1159883 0.5303351,-6e-5 0.5883527,0.1076578 0.6629508,0.2816656 l 1.0609403,2.3863882 c 1.9e-6,0.016573 0.049732,0.1160052 0.049732,0.1160052 3.7e-6,0.033146 -1.1433946,1.2431024 -1.2925382,1.3591301 -0.082852,0.1160202 -0.3148453,0.3646411 -0.4142719,0.4640902 -0.5468462,0.54696999 -0.8948374,0.91161479 -1.6571886,0.96141997 -0.099436,0.0165842 -0.1988738,0.0165955 -0.1988569,0.16575224 5.6e-6,0.04971892 0.033159,0.116007065126 0.1160239,0.115997689946 C 6.092391,7.3074838e-5 6.4072757,-0.01653552 6.4569946,-0.01654115 c 0.082865,-9.38e-6 0.2983135,-3.375e-5 0.4308973,-4.875e-5 0.1657297,-1.875e-5 0.3314595,-3.75e-5 0.4971892,-5.625e-5 0.1657298,-1.875e-5 0.3314614,0.0165354713 0.4806181,0.016518596 0.049719,-5.62511e-6 0.1823027,-2.062539e-5 0.182284,-0.165750366 -1.13e-5,-0.0994378 -0.1160239,-0.11599769 -0.1325969,-0.11599582 -0.066292,7.5e-6 -0.3314614,-0.0165355 -0.3314895,-0.26513008 -1.5e-5,-0.13258379 0.09941,-0.24860586 0.3811165,-0.54695128 l 0.6959843,-0.7127166 0.48056,-0.4972436 c 0.165711,-0.1657485 0.3811315,-0.4143675 0.463987,-0.4972417 l 0.9614744,2.13780486 c 0.04973,0.0994322 0.04973,0.11600519 0.04973,0.11600519 6e-6,0.0497189 -0.132556,0.24860961 -0.530305,0.26522758 -0.04972,5.63e-6 -0.149155,0.0165898 -0.1491382,0.16574662 9.4e-6,0.08286487 0.066305,0.11600331637 0.1325972,0.11599581622 0.182302,-2.062539e-5 0.381176,-0.0166160962 0.571766,-0.008351176 0.174016,-0.00830617 0.356318,-0.0083268 0.538621,-0.00834743 0.298314,-3.375e-5 0.314887,-3.562e-5 0.530335,-6e-5 l 0.497191,0.0165167268 c 0.03315,-3.75008e-6 0.16573,-1.875036e-5 0.165711,-0.16574848682 -1.3e-5,-0.11601082 -0.09945,-0.11599957 -0.215461,-0.11598644 -0.530336,6e-5 -0.563493,-0.0993741 -0.646376,-0.26509446 z m 0,0"
         style="fill:#ff0000;fill-opacity:1;fill-rule:nonzero;stroke:none" />
      <path
         id="path19"
         d="m 16.487776,-0.11297062 -0.215448,2.438e-5 c -0.01656,0.08286674 -0.08281,0.46405264 -0.16567,0.53035392 -0.04971,0.0331516 -0.530332,0.0332059 -0.613196,0.0332153 l -1.126963,1.275e-4 0.778861,-0.61328816 c 0.198857,-0.16575224 0.729149,-0.54699064 0.911431,-0.72931398 0.182284,-0.16575034 0.430843,-0.48066494 0.430796,-0.89498934 -8.6e-5,-0.7623568 -0.679627,-1.1931772 -1.47513,-1.1930872 -0.762357,8.62e-5 -1.309207,0.5139103 -1.309143,1.0773914 3.4e-5,0.2983135 0.265205,0.3314295 0.314924,0.3314239 0.149157,-1.69e-5 0.331448,-0.099475 0.331424,-0.314924 -1.5e-5,-0.1325838 -0.0829,-0.3314501 -0.331497,-0.331422 0.115977,-0.2983267 0.497129,-0.5303914 0.911454,-0.5304383 0.6132,-6.94e-5 0.961286,0.4805075 0.961341,0.9611237 4.7e-5,0.4143244 -0.281645,0.84525355 -0.712497,1.24305367 l -1.408557,1.29285134 c -0.06628,0.0662994 -0.06628,0.0662994 -0.06626,0.24860211 l 2.601957,-2.9438e-4 z m 0,0"
         style="fill:#ff0000;fill-opacity:1;fill-rule:nonzero;stroke:none" />
    </g>
    <path
       id="path20"
       d="M 36.01599,20.67586 47.61476,9.07968"
       style="fill:none;stroke:#000000;stroke-width:0.3985;stroke-linecap:butt;stroke-linejoin:miter;stroke-miterlimit:10;stroke-dasharray:none;stroke-opacity:1"
       transform="matrix(1.3333333,0,0,-1.3333333,13.174667,48.022667)" />
    <path
       id="path21"
       d="M 1.99252,0 -1.19551,1.59401 0,0 -1.19551,-1.59401"
       style="fill:#000000;fill-opacity:1;fill-rule:nonzero;stroke:none"
       transform="matrix(0.94290667,0.94269333,0.94269333,-0.94290667,76.661013,35.916427)" />
    <g
       id="g21"
       aria-label="γX&#10;3"
       transform="matrix(0.94290667,0.94269333,-0.94269333,0.94290667,66.797333,16.133333)">
      <path
         id="path22"
         d="M 3.5628032,-1.1763112 C 3.5463053,-1.8392321 3.4137946,-2.485593 3.1404071,-3.0739645 2.8504522,-3.7120569 2.419583,-3.9607002 1.9389668,-3.9607546 c -1.12696223,-1.275e-4 -1.77346009,1.3422103 -1.77349196,1.6239508 -1.313e-5,0.1160108 0.0994247,0.1160221 0.11599769,0.116024 0.0828649,9.3e-6 0.0994416,-0.033135 0.13259504,-0.099423 0.28183431,-0.8286168 1.12707283,-0.9776779 1.40881343,-0.9776461 1.4418487,1.632e-4 1.4913726,1.7237581 1.4913089,2.2872392 -6.19e-5,0.54690813 -0.033221,0.6629152 -0.082955,0.79549337 C 2.9991234,0.58036026 2.7752842,1.500135 2.7669705,1.7404422 c -7.5e-6,0.066292 -2.25e-5,0.1988757 0.1159883,0.1988888 0.066292,7.5e-6 0.1491568,1.69e-5 0.2983754,-0.5468744 0.2321154,-0.82862243 0.2984617,-1.30923118 0.3482218,-1.67383098 0.016584,-0.099436 0.4973655,-1.55780332 1.2930501,-3.16529172 0.1574761,-0.2900093 0.157478,-0.3065822 0.1574798,-0.3231552 7.5e-6,-0.066292 -0.041422,-0.091156 -0.1242869,-0.091165 -0.016573,-1.9e-6 -0.074578,-0.00829 -0.1160165,0.049706 -0.1989169,0.3645829 -0.4144181,0.8286018 -0.5967696,1.2594785 -0.058016,0.091145 -0.2983866,0.6463122 -0.5802097,1.3754906 z m 6.2648392,-2.2532157 c 0.2237606,-0.2237098 0.7458736,-0.7954184 0.9447736,-1.0108445 0.09945,-0.099427 0.314924,-0.3314239 0.414371,-0.4142775 0.546974,-0.5799922 0.911619,-0.9279834 1.665698,-1.0024765 0.107725,-0.00827 0.207163,-0.00826 0.20718,-0.1574198 4e-6,-0.033146 -0.03314,-0.099442 -0.132573,-0.099453 -0.04972,-5.7e-6 -0.35632,0.00825 -0.397753,0.016528 -0.08286,-9.4e-6 -0.298314,-3.37e-5 -0.439183,-0.00834 -0.157444,0.00827 -0.323174,0.00825 -0.488904,0.00823 -0.165729,-1.87e-5 -0.34803,-0.016612 -0.497187,-0.016629 -0.04972,-5.6e-6 -0.174015,-0.00831 -0.174032,0.1408506 -1.1e-5,0.099438 0.124283,0.1243114 0.124283,0.1243114 0.08286,0.016582 0.348029,0.033185 0.348003,0.2652069 -1.7e-5,0.1491568 -0.198917,0.3645829 -0.215492,0.381154 L 9.7116597,-3.6781346 8.9163594,-5.4681058 c -0.033136,-0.082869 -0.033133,-0.1160146 -0.033133,-0.1160146 3.8e-6,-0.033146 0.1326101,-0.2320066 0.5303652,-0.2651076 0.033146,3.8e-6 0.1491586,-0.016556 0.1491755,-0.1657128 7.5e-6,-0.066292 -0.066281,-0.099445 -0.1491455,-0.099455 -0.1657298,-1.87e-5 -0.3811803,0.01653 -0.563483,0.016509 -0.1657297,-1.88e-5 -0.3646054,-4.13e-5 -0.5469081,-6.19e-5 -0.2983136,-3.38e-5 -0.2983136,-3.38e-5 -0.5303352,-6e-5 l -0.4806144,-0.016627 c -0.041432,-0.00829 -0.1657297,-1.87e-5 -0.1657466,0.1491381 -1.31e-5,0.1160108 0.099425,0.116022 0.1988626,0.1160333 0.5303351,6e-5 0.5717554,0.107789 0.6628871,0.2818155 l 1.0604003,2.3866283 c -1.9e-6,0.016573 0.049706,0.1160164 0.049706,0.1160164 -3.8e-6,0.033146 -1.1436759,1.2428437 -1.2928457,1.3588376 -0.082878,0.1160015 -0.3149278,0.3645698 -0.4143769,0.4639964 -0.54697,0.54684628 -0.8950437,0.91141233 -1.6574061,0.961045 -0.09944,0.0165617 -0.1988776,0.0165505 -0.1988945,0.16570724 -5.6e-6,0.04971892 0.033133,0.11601456738 0.1159977,0.11602394256 0.049719,5.6251e-6 0.3646073,-0.0165317226 0.4143262,-0.0165261026 0.082865,9.38e-6 0.2983136,3.376e-5 0.4308974,4.876e-5 0.1657297,1.875e-5 0.3314594,3.75e-5 0.4971892,5.625e-5 0.1657297,1.875e-5 0.3314576,0.0166104712 0.4806143,0.0166273465 0.049719,5.62511e-6 0.1823028,2.062539e-5 0.1823215,-0.16570911646 1.13e-5,-0.0994378 -0.1159977,-0.11602394 -0.1325707,-0.11602581 -0.066292,-7.5e-6 -0.3314576,-0.0166105 -0.3314294,-0.26520509 1.5e-5,-0.13258379 0.099466,-0.24858336 0.3812402,-0.54686502 l 0.6961456,-0.7125591 0.4806725,-0.4971349 c 0.1657485,-0.1657109 0.3812252,-0.4142812 0.4640995,-0.4971367 l 0.9609909,2.13802241 c 0.04971,0.0994435 0.0497,0.11601644 0.0497,0.11601644 -5e-6,0.0497189 -0.132611,0.24857961 -0.5303647,0.26510758 -0.049719,-5.62e-6 -0.1491586,0.0165561 -0.1491755,0.16571287 -9.4e-6,0.08286487 0.066279,0.11601832 0.1325707,0.11602582 0.1823027,2.062e-5 0.3811805,-0.01652985 0.5717705,-0.02479478 0.174015,0.0083062 0.356318,0.0083268 0.538621,0.0083474 0.298313,3.375e-5 0.314886,3.563e-5 0.530335,6e-5 l 0.497187,0.01662923 c 0.03315,3.75e-6 0.16573,1.875e-5 0.165749,-0.16571099 1.3e-5,-0.11601082 -0.09943,-0.11602207 -0.215436,-0.1160352 -0.530335,-6e-5 -0.56347,-0.0995016 -0.646316,-0.2652407 z m 0,0"
         style="fill:#ff0000;fill-opacity:1;fill-rule:nonzero;stroke:none" />
      <path
         id="path23"
         d="m 14.633528,-0.9844695 c 0.497189,5.626e-5 0.85347,0.33984253 0.853401,0.95304257 -7.4e-5,0.64634598 -0.381284,0.92804341 -0.828754,0.92799279 -0.149157,-1.688e-5 -0.778926,-0.0332341 -1.044056,-0.36472356 0.232025,-0.0331197 0.331482,-0.19883818 0.331499,-0.34799495 2.4e-5,-0.21544866 -0.14912,-0.33147635 -0.347995,-0.33149885 -0.16573,-1.875e-5 -0.331469,0.08282737 -0.331499,0.34799495 -6.6e-5,0.58005409 0.646241,0.92815965 1.408598,0.92824595 0.878367,9.93e-5 1.47506,-0.57988724 1.475126,-1.15994133 4.8e-5,-0.43089732 -0.331357,-0.91155107 -1.043976,-1.07736147 0.480633,-0.1491024 0.861857,-0.5468106 0.853625,-1.0357143 5.5e-5,-0.4806162 -0.5551,-0.836998 -1.267737,-0.8370786 -0.712638,-8.06e-5 -1.243009,0.3147459 -1.243065,0.8119351 -3e-5,0.2651676 0.198838,0.331482 0.314849,0.3314951 0.165729,1.88e-5 0.323185,-0.1076878 0.331495,-0.314849 -0.0083,-0.1905901 -0.149123,-0.2983304 -0.298278,-0.3149202 0.265203,-0.3148566 0.828684,-0.3147928 0.86183,-0.3147891 0.314887,3.57e-5 0.696048,0.1492356 0.687706,0.6381374 0.0083,0.3231739 -0.174118,0.9032073 -0.770749,0.9362858 -0.116013,0.01656 -0.265169,0.016543 -0.314888,0.016537 -0.06629,-7.5e-6 -0.132586,0.016558 -0.132597,0.1159959 -0.0083,0.0911504 0.058,0.0911579 0.157433,0.0911691 z m 0,0"
         style="fill:#ff0000;fill-opacity:1;fill-rule:nonzero;stroke:none" />
    </g>
  </g>
</svg>
