<?xml version="1.0" encoding="utf-8"?>
<svg xmlns="http://www.w3.org/2000/svg" xmlns:xlink="http://www.w3.org/1999/xlink" width="528" height="336" viewBox="0 0 2112 1344">
<defs>
  <clipPath id="clip130">
    <rect x="0" y="0" width="2112" height="1344"/>
  </clipPath>
</defs>
<path clip-path="url(#clip130)" d="M0 1344 L2112 1344 L2112 2.13163e-14 L0 2.13163e-14  Z" fill="#ffffff" fill-rule="evenodd" fill-opacity="1"/>
<defs>
  <clipPath id="clip131">
    <rect x="422" y="0" width="1479" height="1344"/>
  </clipPath>
</defs>
<path clip-path="url(#clip130)" d="M109.297 1173.47 L2064.76 1173.47 L2064.76 47.2441 L109.297 47.2441  Z" fill="#ffffff" fill-rule="evenodd" fill-opacity="1"/>
<defs>
  <clipPath id="clip132">
    <rect x="109" y="47" width="1956" height="1127"/>
  </clipPath>
</defs>
<polyline clip-path="url(#clip132)" style="stroke:#000000; stroke-linecap:round; stroke-linejoin:round; stroke-width:2; stroke-opacity:0.1; fill:none" points="358.827,1173.47 358.827,47.2441 "/>
<polyline clip-path="url(#clip132)" style="stroke:#000000; stroke-linecap:round; stroke-linejoin:round; stroke-width:2; stroke-opacity:0.1; fill:none" points="747.2,1173.47 747.2,47.2441 "/>
<polyline clip-path="url(#clip132)" style="stroke:#000000; stroke-linecap:round; stroke-linejoin:round; stroke-width:2; stroke-opacity:0.1; fill:none" points="1135.57,1173.47 1135.57,47.2441 "/>
<polyline clip-path="url(#clip132)" style="stroke:#000000; stroke-linecap:round; stroke-linejoin:round; stroke-width:2; stroke-opacity:0.1; fill:none" points="1523.95,1173.47 1523.95,47.2441 "/>
<polyline clip-path="url(#clip132)" style="stroke:#000000; stroke-linecap:round; stroke-linejoin:round; stroke-width:2; stroke-opacity:0.1; fill:none" points="1912.32,1173.47 1912.32,47.2441 "/>
<polyline clip-path="url(#clip132)" style="stroke:#000000; stroke-linecap:round; stroke-linejoin:round; stroke-width:2; stroke-opacity:0.1; fill:none" points="109.297,935.956 2064.76,935.956 "/>
<polyline clip-path="url(#clip132)" style="stroke:#000000; stroke-linecap:round; stroke-linejoin:round; stroke-width:2; stroke-opacity:0.1; fill:none" points="109.297,661.768 2064.76,661.768 "/>
<polyline clip-path="url(#clip132)" style="stroke:#000000; stroke-linecap:round; stroke-linejoin:round; stroke-width:2; stroke-opacity:0.1; fill:none" points="109.297,387.58 2064.76,387.58 "/>
<polyline clip-path="url(#clip132)" style="stroke:#000000; stroke-linecap:round; stroke-linejoin:round; stroke-width:2; stroke-opacity:0.1; fill:none" points="109.297,113.392 2064.76,113.392 "/>
<polyline clip-path="url(#clip130)" style="stroke:#000000; stroke-linecap:round; stroke-linejoin:round; stroke-width:4; stroke-opacity:1; fill:none" points="109.297,1173.47 2064.76,1173.47 "/>
<polyline clip-path="url(#clip130)" style="stroke:#000000; stroke-linecap:round; stroke-linejoin:round; stroke-width:4; stroke-opacity:1; fill:none" points="358.827,1173.47 358.827,1154.57 "/>
<polyline clip-path="url(#clip130)" style="stroke:#000000; stroke-linecap:round; stroke-linejoin:round; stroke-width:4; stroke-opacity:1; fill:none" points="747.2,1173.47 747.2,1154.57 "/>
<polyline clip-path="url(#clip130)" style="stroke:#000000; stroke-linecap:round; stroke-linejoin:round; stroke-width:4; stroke-opacity:1; fill:none" points="1135.57,1173.47 1135.57,1154.57 "/>
<polyline clip-path="url(#clip130)" style="stroke:#000000; stroke-linecap:round; stroke-linejoin:round; stroke-width:4; stroke-opacity:1; fill:none" points="1523.95,1173.47 1523.95,1154.57 "/>
<polyline clip-path="url(#clip130)" style="stroke:#000000; stroke-linecap:round; stroke-linejoin:round; stroke-width:4; stroke-opacity:1; fill:none" points="1912.32,1173.47 1912.32,1154.57 "/>
<path clip-path="url(#clip130)" d="M358.827 1202.09 Q355.216 1202.09 353.387 1205.65 Q351.582 1209.19 351.582 1216.32 Q351.582 1223.43 353.387 1226.99 Q355.216 1230.53 358.827 1230.53 Q362.461 1230.53 364.267 1226.99 Q366.095 1223.43 366.095 1216.32 Q366.095 1209.19 364.267 1205.65 Q362.461 1202.09 358.827 1202.09 M358.827 1198.38 Q364.637 1198.38 367.693 1202.99 Q370.771 1207.57 370.771 1216.32 Q370.771 1225.05 367.693 1229.65 Q364.637 1234.24 358.827 1234.24 Q353.017 1234.24 349.938 1229.65 Q346.883 1225.05 346.883 1216.32 Q346.883 1207.57 349.938 1202.99 Q353.017 1198.38 358.827 1198.38 Z" fill="#000000" fill-rule="nonzero" fill-opacity="1" /><path clip-path="url(#clip130)" d="M737.582 1229.63 L745.221 1229.63 L745.221 1203.27 L736.911 1204.93 L736.911 1200.67 L745.175 1199.01 L749.85 1199.01 L749.85 1229.63 L757.489 1229.63 L757.489 1233.57 L737.582 1233.57 L737.582 1229.63 Z" fill="#000000" fill-rule="nonzero" fill-opacity="1" /><path clip-path="url(#clip130)" d="M1130.23 1229.63 L1146.55 1229.63 L1146.55 1233.57 L1124.6 1233.57 L1124.6 1229.63 Q1127.26 1226.88 1131.85 1222.25 Q1136.45 1217.59 1137.63 1216.25 Q1139.88 1213.73 1140.76 1211.99 Q1141.66 1210.23 1141.66 1208.54 Q1141.66 1205.79 1139.72 1204.05 Q1137.8 1202.32 1134.69 1202.32 Q1132.49 1202.32 1130.04 1203.08 Q1127.61 1203.84 1124.83 1205.4 L1124.83 1200.67 Q1127.66 1199.54 1130.11 1198.96 Q1132.56 1198.38 1134.6 1198.38 Q1139.97 1198.38 1143.17 1201.07 Q1146.36 1203.75 1146.36 1208.24 Q1146.36 1210.37 1145.55 1212.29 Q1144.76 1214.19 1142.66 1216.78 Q1142.08 1217.46 1138.98 1220.67 Q1135.87 1223.87 1130.23 1229.63 Z" fill="#000000" fill-rule="nonzero" fill-opacity="1" /><path clip-path="url(#clip130)" d="M1528.19 1214.93 Q1531.55 1215.65 1533.43 1217.92 Q1535.32 1220.19 1535.32 1223.52 Q1535.32 1228.64 1531.81 1231.44 Q1528.29 1234.24 1521.81 1234.24 Q1519.63 1234.24 1517.31 1233.8 Q1515.02 1233.38 1512.57 1232.53 L1512.57 1228.01 Q1514.51 1229.15 1516.83 1229.72 Q1519.14 1230.3 1521.67 1230.3 Q1526.06 1230.3 1528.36 1228.57 Q1530.67 1226.83 1530.67 1223.52 Q1530.67 1220.46 1528.52 1218.75 Q1526.39 1217.02 1522.57 1217.02 L1518.54 1217.02 L1518.54 1213.17 L1522.75 1213.17 Q1526.2 1213.17 1528.03 1211.81 Q1529.86 1210.42 1529.86 1207.83 Q1529.86 1205.16 1527.96 1203.75 Q1526.09 1202.32 1522.57 1202.32 Q1520.65 1202.32 1518.45 1202.73 Q1516.25 1203.15 1513.61 1204.03 L1513.61 1199.86 Q1516.27 1199.12 1518.59 1198.75 Q1520.93 1198.38 1522.99 1198.38 Q1528.31 1198.38 1531.41 1200.81 Q1534.51 1203.22 1534.51 1207.34 Q1534.51 1210.21 1532.87 1212.2 Q1531.23 1214.17 1528.19 1214.93 Z" fill="#000000" fill-rule="nonzero" fill-opacity="1" /><path clip-path="url(#clip130)" d="M1915.33 1203.08 L1903.52 1221.53 L1915.33 1221.53 L1915.33 1203.08 M1914.1 1199.01 L1919.98 1199.01 L1919.98 1221.53 L1924.91 1221.53 L1924.91 1225.42 L1919.98 1225.42 L1919.98 1233.57 L1915.33 1233.57 L1915.33 1225.42 L1899.73 1225.42 L1899.73 1220.9 L1914.1 1199.01 Z" fill="#000000" fill-rule="nonzero" fill-opacity="1" /><path clip-path="url(#clip130)" d="M1101.2 1274.77 Q1101.2 1276.57 1100.07 1277.6 Q1098.95 1278.6 1097.66 1278.6 Q1096.43 1278.6 1095.79 1277.89 Q1095.15 1277.19 1095.15 1276.28 Q1095.15 1275.06 1096.05 1274 Q1096.95 1272.93 1098.3 1272.71 Q1096.98 1271.87 1095.02 1271.87 Q1093.73 1271.87 1092.6 1272.55 Q1091.51 1273.22 1090.83 1274.09 Q1090.19 1274.96 1089.61 1276.22 Q1089.06 1277.44 1088.83 1278.18 Q1088.64 1278.89 1088.48 1279.67 L1086.22 1288.68 Q1085.13 1292.97 1085.13 1294.48 Q1085.13 1296.35 1086.03 1297.6 Q1086.93 1298.83 1088.74 1298.83 Q1089.45 1298.83 1090.25 1298.64 Q1091.06 1298.41 1092.09 1297.83 Q1093.15 1297.22 1094.08 1296.32 Q1095.05 1295.38 1095.98 1293.8 Q1096.92 1292.23 1097.53 1290.2 Q1097.72 1289.49 1098.37 1289.49 Q1099.17 1289.49 1099.17 1290.13 Q1099.17 1290.68 1098.72 1291.84 Q1098.3 1292.97 1097.37 1294.45 Q1096.47 1295.9 1095.27 1297.22 Q1094.08 1298.51 1092.31 1299.41 Q1090.54 1300.31 1088.61 1300.31 Q1085.84 1300.31 1084 1298.83 Q1082.17 1297.35 1081.49 1295.29 Q1081.33 1295.58 1081.1 1295.96 Q1080.88 1296.35 1080.2 1297.22 Q1079.56 1298.06 1078.82 1298.7 Q1078.08 1299.31 1076.92 1299.79 Q1075.79 1300.31 1074.57 1300.31 Q1073.02 1300.31 1071.64 1299.86 Q1070.28 1299.41 1069.32 1298.38 Q1068.35 1297.35 1068.35 1295.93 Q1068.35 1294.35 1069.41 1293.26 Q1070.51 1292.13 1071.99 1292.13 Q1072.92 1292.13 1073.66 1292.68 Q1074.44 1293.22 1074.44 1294.42 Q1074.44 1295.74 1073.54 1296.73 Q1072.63 1297.73 1071.35 1297.99 Q1072.67 1298.83 1074.63 1298.83 Q1076.76 1298.83 1078.43 1296.96 Q1080.11 1295.09 1080.91 1291.97 Q1082.91 1284.46 1083.68 1281.12 Q1084.45 1277.73 1084.45 1276.28 Q1084.45 1274.93 1084.1 1274 Q1083.74 1273.06 1083.13 1272.64 Q1082.55 1272.19 1082.01 1272.03 Q1081.49 1271.87 1080.91 1271.87 Q1079.94 1271.87 1078.85 1272.26 Q1077.79 1272.64 1076.5 1273.55 Q1075.24 1274.42 1074.05 1276.22 Q1072.86 1278.02 1072.05 1280.5 Q1071.89 1281.24 1071.18 1281.24 Q1070.41 1281.21 1070.41 1280.57 Q1070.41 1280.02 1070.83 1278.89 Q1071.28 1277.73 1072.18 1276.28 Q1073.12 1274.83 1074.31 1273.55 Q1075.53 1272.23 1077.3 1271.32 Q1079.11 1270.42 1081.04 1270.42 Q1081.91 1270.42 1082.75 1270.62 Q1083.62 1270.78 1084.65 1271.26 Q1085.71 1271.74 1086.64 1272.81 Q1087.58 1273.87 1088.16 1275.41 Q1088.54 1274.67 1089.06 1273.97 Q1089.61 1273.26 1090.44 1272.39 Q1091.31 1271.49 1092.5 1270.97 Q1093.73 1270.42 1095.08 1270.42 Q1096.4 1270.42 1097.69 1270.78 Q1098.98 1271.1 1100.07 1272.16 Q1101.2 1273.19 1101.2 1274.77 Z" fill="#000000" fill-rule="nonzero" fill-opacity="1" /><polyline clip-path="url(#clip130)" style="stroke:#000000; stroke-linecap:round; stroke-linejoin:round; stroke-width:4; stroke-opacity:1; fill:none" points="109.297,1173.47 109.297,47.2441 "/>
<polyline clip-path="url(#clip130)" style="stroke:#000000; stroke-linecap:round; stroke-linejoin:round; stroke-width:4; stroke-opacity:1; fill:none" points="109.297,935.956 128.195,935.956 "/>
<polyline clip-path="url(#clip130)" style="stroke:#000000; stroke-linecap:round; stroke-linejoin:round; stroke-width:4; stroke-opacity:1; fill:none" points="109.297,661.768 128.195,661.768 "/>
<polyline clip-path="url(#clip130)" style="stroke:#000000; stroke-linecap:round; stroke-linejoin:round; stroke-width:4; stroke-opacity:1; fill:none" points="109.297,387.58 128.195,387.58 "/>
<polyline clip-path="url(#clip130)" style="stroke:#000000; stroke-linecap:round; stroke-linejoin:round; stroke-width:4; stroke-opacity:1; fill:none" points="109.297,113.392 128.195,113.392 "/>
<path clip-path="url(#clip130)" d="M57.7099 949.3 L65.3487 949.3 L65.3487 922.935 L57.0386 924.601 L57.0386 920.342 L65.3024 918.676 L69.9783 918.676 L69.9783 949.3 L77.6172 949.3 L77.6172 953.236 L57.7099 953.236 L57.7099 949.3 Z" fill="#000000" fill-rule="nonzero" fill-opacity="1" /><path clip-path="url(#clip130)" d="M61.2978 675.112 L77.6172 675.112 L77.6172 679.048 L55.6728 679.048 L55.6728 675.112 Q58.3349 672.358 62.9182 667.728 Q67.5246 663.076 68.7052 661.733 Q70.9505 659.21 71.8302 657.474 Q72.7329 655.714 72.7329 654.025 Q72.7329 651.27 70.7885 649.534 Q68.8672 647.798 65.7654 647.798 Q63.5663 647.798 61.1126 648.562 Q58.6821 649.326 55.9043 650.877 L55.9043 646.154 Q58.7284 645.02 61.1821 644.441 Q63.6358 643.863 65.6728 643.863 Q71.0431 643.863 74.2376 646.548 Q77.432 649.233 77.432 653.724 Q77.432 655.853 76.6218 657.775 Q75.8348 659.673 73.7283 662.265 Q73.1496 662.937 70.0478 666.154 Q66.9459 669.349 61.2978 675.112 Z" fill="#000000" fill-rule="nonzero" fill-opacity="1" /><path clip-path="url(#clip130)" d="M70.4876 386.226 Q73.844 386.943 75.719 389.212 Q77.6172 391.48 77.6172 394.814 Q77.6172 399.929 74.0987 402.73 Q70.5802 405.531 64.0987 405.531 Q61.9228 405.531 59.608 405.091 Q57.3164 404.675 54.8627 403.818 L54.8627 399.304 Q56.8071 400.439 59.1219 401.017 Q61.4367 401.596 63.9598 401.596 Q68.358 401.596 70.6496 399.86 Q72.9644 398.124 72.9644 394.814 Q72.9644 391.758 70.8117 390.045 Q68.682 388.309 64.8626 388.309 L60.8349 388.309 L60.8349 384.466 L65.0478 384.466 Q68.4969 384.466 70.3255 383.101 Q72.1542 381.712 72.1542 379.119 Q72.1542 376.457 70.2561 375.045 Q68.3811 373.61 64.8626 373.61 Q62.9413 373.61 60.7423 374.027 Q58.5432 374.443 55.9043 375.323 L55.9043 371.156 Q58.5664 370.416 60.8812 370.045 Q63.2191 369.675 65.2793 369.675 Q70.6033 369.675 73.7052 372.105 Q76.807 374.513 76.807 378.633 Q76.807 381.503 75.1635 383.494 Q73.52 385.462 70.4876 386.226 Z" fill="#000000" fill-rule="nonzero" fill-opacity="1" /><path clip-path="url(#clip130)" d="M68.0339 100.186 L56.2284 118.635 L68.0339 118.635 L68.0339 100.186 M66.807 96.1119 L72.6866 96.1119 L72.6866 118.635 L77.6172 118.635 L77.6172 122.524 L72.6866 122.524 L72.6866 130.672 L68.0339 130.672 L68.0339 122.524 L52.4321 122.524 L52.4321 118.01 L66.807 96.1119 Z" fill="#000000" fill-rule="nonzero" fill-opacity="1" /><polyline clip-path="url(#clip132)" style="stroke:#009af9; stroke-linecap:round; stroke-linejoin:round; stroke-width:4; stroke-opacity:1; fill:none" points="164.64,79.1184 261.734,96.2552 358.827,113.392 455.92,130.529 553.013,147.665 650.107,164.802 747.2,181.939 844.293,199.076 941.387,216.212 1038.48,233.349 1135.57,250.486 1232.67,267.623 1329.76,284.759 1426.85,301.896 1523.95,319.033 1621.04,336.17 1718.13,353.306 1815.23,370.443 1912.32,387.58 2009.41,404.717 "/>
<polyline clip-path="url(#clip132)" style="stroke:#e26f46; stroke-linecap:round; stroke-linejoin:round; stroke-width:4; stroke-opacity:1; fill:none" points="164.64,1141.6 261.734,1107.32 358.827,1073.05 455.92,1038.78 553.013,1004.5 650.107,970.229 747.2,935.956 844.293,901.682 941.387,867.409 1038.48,833.135 1135.57,798.862 1232.67,764.588 1329.76,730.315 1426.85,696.041 1523.95,661.768 1621.04,627.494 1718.13,593.221 1815.23,558.947 1912.32,524.674 2009.41,490.4 "/>
<polyline clip-path="url(#clip132)" style="stroke:#3da44d; stroke-linecap:round; stroke-linejoin:round; stroke-width:4; stroke-opacity:1; fill:none" points="358.827,2299.7 358.827,-1078.98 "/>
<polyline clip-path="url(#clip132)" style="stroke:#3da44d; stroke-linecap:round; stroke-linejoin:round; stroke-width:4; stroke-opacity:1; fill:none" points="1912.32,2299.7 1912.32,-1078.98 "/>
<polyline clip-path="url(#clip132)" style="stroke:#c271d2; stroke-linecap:round; stroke-linejoin:round; stroke-width:4; stroke-opacity:1; fill:none" points="-1846.16,935.956 4020.21,935.956 "/>
<polyline clip-path="url(#clip132)" style="stroke:#c271d2; stroke-linecap:round; stroke-linejoin:round; stroke-width:4; stroke-opacity:1; fill:none" points="-1846.16,113.392 4020.21,113.392 "/>
<path clip-path="url(#clip132)" d="M358.827 935.956 L455.92 935.956 L553.013 935.956 L650.107 935.956 L747.2 935.956 L844.293 901.682 L941.387 867.409 L1038.48 833.135 L1135.57 798.862 L1232.67 764.588 L1329.76 730.315 L1426.85 696.041 L1523.95 661.768 L1621.04 627.494 L1718.13 593.221 L1815.23 558.947 L1912.32 524.674 L1912.32 387.58 L1815.23 370.443 L1718.13 353.306 L1621.04 336.17 L1523.95 319.033 L1426.85 301.896 L1329.76 284.759 L1232.67 267.623 L1135.57 250.486 L1038.48 233.349 L941.387 216.212 L844.293 199.076 L747.2 181.939 L650.107 164.802 L553.013 147.665 L455.92 130.529 L358.827 113.392  Z" fill="#0000ff" fill-rule="evenodd" fill-opacity="0.2"/>
<polyline clip-path="url(#clip132)" style="stroke:#0000ff; stroke-linecap:round; stroke-linejoin:round; stroke-width:4; stroke-opacity:0.2; fill:none" points="358.827,935.956 455.92,935.956 553.013,935.956 650.107,935.956 747.2,935.956 844.293,901.682 941.387,867.409 1038.48,833.135 1135.57,798.862 1232.67,764.588 1329.76,730.315 1426.85,696.041 1523.95,661.768 1621.04,627.494 1718.13,593.221 1815.23,558.947 1912.32,524.674 "/>
</svg>
